if (_typeface_js && _typeface_js.loadFace) _typeface_js.loadFace({"glyphs":{"0":{"ha":1019,"x_min":56,"x_max":1047,"o":"m 661 454 q 831 417 747 436 q 1001 381 915 397 q 1000 372 1001 376 q 997 363 999 367 q 924 207 972 276 q 809 89 875 138 q 663 13 743 40 q 493 -14 582 -14 q 326 7 406 -14 q 187 72 247 28 q 91 186 126 117 q 56 353 56 256 q 65 464 56 410 q 96 571 75 518 q 264 535 181 554 q 432 501 347 517 q 410 420 417 465 q 404 339 404 375 q 428 256 404 288 q 504 225 451 225 q 574 249 546 225 q 619 307 601 272 q 646 381 636 342 q 661 454 656 421 m 601 703 q 522 671 554 703 q 469 601 490 639 l 151 719 q 338 886 226 828 q 581 944 449 944 q 744 924 661 944 q 895 859 828 903 q 1005 748 963 815 q 1047 588 1047 681 q 1044 542 1047 567 q 1036 492 1042 518 q 1024 442 1031 467 q 1010 399 1018 418 q 847 459 928 431 q 683 519 765 488 q 695 563 690 536 q 700 608 700 589 q 673 679 700 656 q 601 703 646 703 z "},"1":{"ha":631,"x_min":76,"x_max":740,"o":"m 603 496 l 506 0 l 144 0 l 254 550 l 76 550 l 85 588 l 603 496 m 110 674 q 135 739 124 706 q 160 804 146 772 q 174 803 167 804 q 189 803 182 803 q 317 824 254 803 q 424 894 379 844 q 582 874 503 883 q 740 853 661 864 l 608 511 l 110 674 z "},"2":{"ha":967,"x_min":-22,"x_max":978,"o":"m 238 533 q 383 579 304 564 q 532 603 461 594 q 558 605 543 604 q 586 610 572 606 q 610 621 600 614 q 625 642 621 628 q 592 669 619 660 q 529 682 564 678 q 461 687 494 686 q 413 688 428 688 q 308 683 360 688 q 204 663 256 678 l 154 896 q 288 922 221 913 q 422 932 354 932 q 517 928 461 932 q 635 913 574 924 q 758 885 696 903 q 868 839 819 867 q 947 772 917 811 q 978 679 978 732 q 940 547 978 597 q 846 464 903 496 q 719 415 789 432 q 588 386 650 399 l 238 533 m 622 343 q 522 298 567 321 q 431 238 476 275 l 910 238 l 863 0 l -22 0 q 17 124 -8 61 q 77 243 42 186 q 158 349 113 300 q 261 431 204 397 l 622 343 z "},"3":{"ha":946,"x_min":-25,"x_max":1006,"o":"m 385 610 q 483 593 433 603 q 582 583 533 583 q 622 590 603 583 q 640 622 640 596 q 615 658 640 644 q 555 680 589 672 q 488 690 521 688 q 440 693 454 693 q 272 674 358 693 l 207 892 q 329 917 268 907 q 453 926 390 926 q 549 922 492 926 q 667 905 606 917 q 788 873 728 893 q 897 822 849 853 q 976 749 946 792 q 1006 650 1006 707 q 989 574 1006 608 q 944 514 972 539 q 879 473 915 489 q 804 451 843 457 q 589 519 696 486 q 374 586 482 553 l 385 610 m 919 283 q 881 142 919 199 q 781 50 842 85 q 646 1 719 15 q 501 -14 572 -14 q 364 -7 433 -14 q 226 17 294 0 q 94 60 158 33 q -25 128 31 88 l 161 319 q 314 253 232 275 q 479 231 396 231 q 511 231 492 231 q 549 238 531 232 q 579 253 567 243 q 592 283 592 264 q 578 308 592 299 q 542 323 564 318 q 491 330 519 328 q 435 332 463 332 q 362 330 394 332 q 318 328 329 328 q 335 416 328 372 q 351 504 342 460 l 800 436 q 848 417 826 432 q 885 380 869 401 q 910 333 901 358 q 919 283 919 308 z "},"4":{"ha":1024,"x_min":-7,"x_max":1086,"o":"m 611 419 l 1001 300 l 971 153 l 844 153 l 815 0 l 504 0 l 536 157 l -7 157 l 32 350 l 257 529 l 496 454 q 447 413 472 432 q 394 375 422 394 l 403 364 q 492 368 446 368 q 546 367 519 368 q 599 367 572 367 l 611 419 m 558 522 l 329 626 q 553 763 442 696 q 778 899 665 829 l 1086 861 l 922 397 l 1046 382 q 1035 350 1039 367 q 1025 317 1031 333 l 653 483 l 664 517 q 678 560 671 539 q 697 603 686 582 l 678 610 q 617 566 649 586 q 558 522 586 546 z "},"5":{"ha":982,"x_min":-28,"x_max":1069,"o":"m 910 482 q 946 419 935 454 q 957 346 957 383 q 913 179 957 247 q 801 68 869 111 q 647 6 732 25 q 478 -14 561 -14 q 216 18 338 -14 q -28 118 94 50 q 58 222 15 171 q 146 325 101 272 q 317 256 225 286 q 499 226 410 226 q 541 228 519 226 q 581 238 563 231 q 612 261 600 246 q 624 303 624 276 q 608 338 624 325 q 571 356 593 350 q 526 362 549 361 q 488 363 503 363 q 403 353 444 363 q 321 329 361 344 q 208 364 264 346 q 96 399 153 382 l 156 600 l 910 482 m 438 653 l 194 732 q 253 849 225 790 q 313 967 282 908 l 1069 844 l 981 629 l 464 713 l 438 653 m 460 644 q 479 647 469 646 q 499 647 489 647 q 599 641 544 647 q 706 618 653 635 q 809 574 760 601 q 894 504 858 546 l 460 644 z "},"6":{"ha":961,"x_min":39,"x_max":1008,"o":"m 951 290 l 182 657 q 306 761 238 718 q 451 831 375 804 q 607 870 526 858 q 769 882 688 882 q 890 877 831 882 q 1008 863 949 872 l 933 647 q 851 656 893 653 q 769 660 810 660 q 613 645 690 660 q 465 596 536 631 l 474 585 q 514 589 493 588 q 554 590 535 590 q 633 586 589 590 q 722 572 678 582 q 810 545 767 563 q 886 503 853 528 q 940 442 919 478 q 960 360 960 407 q 957 326 960 343 q 951 290 954 310 m 39 290 q 60 429 39 361 q 119 557 81 497 l 938 272 q 876 133 922 189 q 764 44 829 78 q 622 -2 699 11 q 471 -15 544 -15 q 317 -2 394 -15 q 178 46 240 11 q 78 140 117 81 q 39 290 39 199 m 640 285 q 623 327 640 311 q 581 351 606 343 q 528 363 556 360 q 483 365 501 365 q 436 361 461 365 q 390 347 411 357 q 353 318 368 336 q 339 272 339 300 q 355 228 339 244 q 394 204 371 213 q 444 193 418 196 q 492 190 471 190 q 542 194 515 190 q 590 208 568 197 q 626 237 611 218 q 640 285 640 256 z "},"7":{"ha":956,"x_min":86,"x_max":1067,"o":"m 710 411 q 586 219 626 321 q 521 0 546 118 l 169 0 q 197 133 181 72 q 239 249 214 193 q 299 357 264 304 q 379 467 333 410 l 710 411 m 353 556 q 436 614 393 588 q 524 667 479 640 q 305 699 414 683 q 86 735 196 715 l 183 972 q 625 901 406 938 q 1067 831 844 865 q 1020 719 1044 774 q 974 608 996 665 q 818 537 894 576 q 671 449 742 497 l 353 556 z "},"8":{"ha":1014,"x_min":17,"x_max":1036,"o":"m 135 643 l 860 442 q 906 417 885 435 q 943 374 928 399 q 967 324 958 350 q 975 272 975 297 q 953 174 975 217 q 896 100 932 132 q 813 47 860 68 q 715 12 765 25 q 615 -7 665 -1 q 521 -12 564 -12 q 429 -8 482 -12 q 320 6 376 -4 q 210 35 264 17 q 113 83 156 54 q 43 153 69 113 q 17 249 17 194 q 34 334 17 296 q 81 402 51 372 q 148 453 110 432 q 228 488 186 474 q 158 553 182 515 q 135 643 135 590 m 715 647 q 699 685 715 669 q 662 708 683 700 q 616 720 640 717 q 575 724 592 724 q 537 720 556 724 q 503 708 518 717 q 479 683 489 699 q 469 646 469 668 q 474 628 469 636 q 485 613 478 619 l 174 742 q 226 828 189 794 q 312 883 264 863 q 413 910 360 903 q 514 918 467 918 q 606 913 553 918 q 718 896 660 908 q 833 863 776 883 q 935 814 890 843 q 1008 745 981 785 q 1036 653 1036 706 q 1022 583 1036 614 q 985 527 1008 551 q 930 485 961 503 q 865 457 899 468 l 574 576 q 593 574 585 575 q 610 574 601 574 q 647 577 628 574 q 681 590 665 581 q 706 613 696 599 q 715 647 715 626 m 657 281 q 639 323 657 307 q 594 349 621 339 q 540 362 568 358 q 494 365 513 365 q 447 362 474 365 q 397 349 419 358 q 358 322 374 339 q 342 275 342 304 q 360 231 342 247 q 406 205 379 214 q 460 193 432 196 q 508 190 489 190 q 556 194 529 190 q 604 208 582 197 q 642 235 626 218 q 657 281 657 253 z "},"9":{"ha":961,"x_min":71,"x_max":996,"o":"m 517 735 q 458 726 488 735 q 410 694 429 718 q 277 743 343 719 q 144 790 211 767 q 214 862 174 833 q 301 908 254 890 q 397 932 347 925 q 496 939 447 939 q 600 933 544 939 q 711 912 656 926 q 818 873 767 897 q 909 814 869 849 q 972 733 949 779 q 996 625 996 686 q 988 557 996 597 q 971 490 981 517 l 681 594 q 697 640 697 618 q 676 686 697 668 q 626 715 656 704 q 567 731 597 726 q 517 735 536 735 m 531 497 q 598 507 563 497 q 657 542 633 517 q 810 508 735 525 q 964 475 886 490 q 856 250 936 342 q 665 102 775 158 q 428 22 556 46 q 181 -3 301 -3 q 138 -3 158 -3 q 94 -1 117 -3 l 140 222 q 170 221 156 221 q 200 221 185 221 q 302 226 250 221 q 406 244 354 232 q 506 274 457 256 q 596 321 554 293 l 586 332 q 510 317 549 321 q 431 313 471 313 q 315 321 378 313 q 197 352 251 329 q 107 417 143 375 q 71 529 71 460 q 96 661 71 599 q 236 631 167 646 q 376 600 306 615 q 374 578 374 586 q 391 534 374 550 q 433 510 408 518 q 484 499 457 501 q 531 497 511 497 z "},"\u0000":{"ha":0,"x_min":0,"x_max":0,"o":""},"\r":{"ha":486,"x_min":0,"x_max":0,"o":""}," ":{"ha":486,"x_min":0,"x_max":0,"o":""},"Ł":{"ha":890,"x_min":7,"x_max":842,"o":"m 540 421 l 485 397 l 461 267 l 842 267 l 789 0 l 43 0 l 89 224 l 7 189 q 33 316 21 253 q 57 443 44 379 l 139 476 l 157 568 l 540 421 m 207 660 l 326 919 l 683 851 l 592 651 l 785 694 l 675 456 l 568 429 l 207 660 z "},"ł":{"ha":544,"x_min":1,"x_max":667,"o":"m 543 449 l 532 392 l 451 360 l 381 0 l 40 0 l 83 214 l 1 181 l 54 450 l 138 482 q 145 526 140 504 q 154 571 150 549 l 543 449 m 194 657 l 289 864 l 667 897 l 546 635 l 633 651 l 550 467 l 194 657 z "},"Š":{"ha":940,"x_min":-31,"x_max":1083,"o":"m 231 804 q 294 861 257 839 q 372 897 331 883 q 458 915 414 910 q 544 919 503 919 q 684 908 613 919 q 825 876 756 897 q 960 826 894 856 q 1083 757 1026 796 q 997 656 1040 706 q 908 556 953 607 q 841 597 879 575 q 760 635 803 618 q 676 665 718 653 q 599 676 633 676 q 567 672 586 676 q 547 650 547 668 q 575 622 547 638 q 644 588 603 607 q 735 545 686 569 q 828 490 785 521 q 901 422 871 460 q 936 336 932 383 l 231 804 m 907 313 q 908 303 908 308 q 908 294 908 299 q 869 144 908 204 q 768 49 831 85 q 628 0 706 14 q 476 -14 551 -14 q 217 10 346 -14 q -31 92 89 35 q 40 203 6 147 q 111 315 75 258 q 194 284 149 300 q 285 256 239 268 q 378 235 332 243 q 467 226 425 226 q 505 231 486 226 q 524 258 524 235 q 492 287 524 275 q 413 313 460 299 q 310 347 365 328 q 207 394 254 365 q 128 466 160 424 q 96 569 96 508 q 104 640 96 606 q 131 707 113 675 l 907 313 m 571 1218 l 628 1118 l 758 1190 q 885 1170 822 1181 q 1013 1149 949 1160 q 850 1041 931 1094 q 688 935 769 988 l 439 975 l 318 1260 l 571 1218 z "},"š":{"ha":719,"x_min":-35,"x_max":899,"o":"m 61 433 q 78 513 61 475 l 674 199 q 638 92 669 133 q 558 28 606 51 q 453 -5 510 4 q 342 -14 396 -14 q -35 46 146 -14 l 64 222 q 125 203 92 213 q 193 185 158 193 q 262 172 228 176 q 325 167 296 167 q 353 172 339 167 q 367 194 367 178 q 344 216 367 207 q 288 235 321 225 q 214 258 254 244 q 140 294 174 272 q 84 350 107 317 q 61 433 61 383 m 442 465 q 521 428 479 449 q 598 382 563 408 q 656 324 633 356 q 679 250 679 292 q 678 235 679 243 q 676 219 678 226 q 414 416 544 318 q 151 611 283 514 q 261 683 196 664 q 392 703 326 703 q 496 694 440 703 q 607 672 551 686 q 715 637 663 657 q 810 592 768 617 l 668 431 q 622 457 651 442 q 561 485 593 472 q 499 508 529 499 q 449 518 468 518 q 426 513 439 518 q 414 496 414 508 q 422 475 414 482 q 442 465 431 468 m 457 1008 l 514 908 l 644 981 q 772 960 708 971 q 899 939 835 950 q 736 831 817 885 q 574 725 656 778 l 325 765 l 204 1050 l 457 1008 z "},"Ý":{"ha":1053,"x_min":225,"x_max":1286,"o":"m 313 679 l 265 957 q 463 924 365 942 q 660 892 560 907 q 662 838 661 864 q 663 785 663 813 q 660 685 663 736 q 646 589 657 635 l 669 585 q 774 725 717 660 q 892 854 832 790 l 1286 790 l 778 335 l 313 679 m 735 321 l 711 293 l 654 0 l 276 0 l 335 292 l 225 576 l 735 321 m 824 925 q 703 955 763 940 q 581 982 643 969 l 828 1189 l 1221 1096 l 824 925 z "},"ý":{"ha":831,"x_min":44,"x_max":1079,"o":"m 478 365 q 606 334 546 347 q 732 308 667 321 l 407 -247 l 44 -247 l 183 -29 q 139 198 161 85 q 96 425 117 311 l 97 425 q 110 424 99 425 q 153 418 121 424 q 246 402 185 413 q 411 374 307 392 q 410 360 411 372 q 407 332 408 347 q 403 290 404 314 l 478 365 m 167 531 l 167 747 l 486 692 q 463 569 475 629 q 438 450 451 510 l 428 425 l 167 531 m 479 406 q 562 538 517 472 q 651 665 607 603 q 811 638 732 651 q 971 608 890 624 l 708 314 l 479 406 m 682 710 q 561 740 621 725 q 439 767 501 754 l 686 974 l 1079 881 l 682 710 z "},"Þ":{"ha":956,"x_min":0,"x_max":986,"o":"m 500 357 q 580 382 544 357 q 618 454 615 407 q 786 428 703 443 q 954 401 869 414 q 908 287 940 333 q 833 210 876 240 q 735 162 789 179 q 624 137 682 144 q 508 128 567 129 q 393 126 449 126 l 365 0 l 0 0 l 107 532 q 281 504 194 518 q 454 478 367 490 l 432 357 l 500 357 m 478 544 q 308 587 392 564 q 138 629 224 610 q 186 784 161 708 q 235 939 211 860 l 600 907 l 568 807 q 707 789 633 801 q 842 747 781 776 q 945 665 904 718 q 986 528 986 613 q 968 425 986 476 l 636 507 q 621 549 636 533 q 584 571 606 564 q 538 579 563 578 q 493 582 513 581 l 478 544 z "},"þ":{"ha":863,"x_min":-58,"x_max":875,"o":"m 424 188 q 466 203 449 188 q 495 240 483 218 q 514 288 507 263 q 524 332 521 313 l 831 269 q 788 163 815 214 q 722 72 761 111 q 631 10 682 33 q 518 -14 581 -14 q 424 6 467 -14 q 342 57 382 26 q 322 -40 332 8 q 301 -137 313 -89 l -58 -237 l 74 421 l 399 356 l 368 201 q 395 191 382 194 q 424 188 408 188 m 425 431 l 113 539 l 249 894 q 436 919 343 906 q 624 944 529 932 l 504 638 q 584 672 543 657 q 669 688 625 688 q 755 671 717 688 q 820 624 793 654 q 861 554 847 594 q 875 468 875 514 q 872 423 875 447 q 864 374 869 399 q 852 325 858 349 q 838 283 846 301 q 690 335 763 308 q 543 388 618 363 q 552 419 549 403 q 556 453 556 436 q 535 497 556 483 q 486 511 514 511 q 456 507 469 511 l 425 431 z "},"Ž":{"ha":981,"x_min":-29,"x_max":1182,"o":"m 663 376 q 638 360 651 367 q 613 342 624 353 q 552 295 583 318 q 488 253 521 272 l 497 240 q 553 247 525 246 q 608 249 581 249 l 926 249 l 876 0 l -29 0 l 17 232 q 206 372 111 303 q 392 514 300 440 l 663 376 m 464 589 l 522 613 q 564 627 543 621 q 607 640 585 633 l 604 654 q 508 667 557 657 q 409 690 458 676 q 310 717 360 703 q 215 744 261 732 l 338 969 l 1182 756 l 1069 543 l 683 388 l 464 589 m 619 1213 l 676 1113 l 807 1185 q 934 1165 871 1175 q 1061 1143 997 1154 q 899 1035 979 1089 q 736 929 818 982 l 488 969 l 367 1254 l 619 1213 z "},"ž":{"ha":779,"x_min":-18,"x_max":942,"o":"m 307 426 l 458 483 q 313 523 385 503 q 167 564 240 543 l 267 736 q 594 644 432 692 q 922 553 757 597 l 829 396 q 676 338 751 368 q 524 281 601 308 l 307 426 m 504 271 l 403 194 l 718 194 l 679 0 l -18 0 l 15 174 q 131 260 74 217 q 247 347 189 304 l 504 271 m 500 1008 l 557 908 l 688 981 q 815 960 751 971 q 942 939 878 950 q 779 831 860 885 q 617 725 699 778 l 368 765 l 247 1050 l 500 1008 z "},"ð":{"ha":842,"x_min":18,"x_max":918,"o":"m 404 185 q 463 207 440 185 q 493 261 485 229 q 624 204 560 233 q 753 147 688 175 q 593 27 689 68 q 397 -14 497 -14 q 267 -2 335 -14 q 144 39 200 10 q 53 118 89 68 q 18 246 18 168 q 31 348 18 297 q 76 440 44 399 l 353 321 q 338 285 342 304 q 333 247 333 267 q 353 199 333 214 q 404 185 372 185 m 444 400 q 392 381 415 400 l 136 525 q 239 586 181 567 q 358 606 297 606 q 503 583 431 606 q 635 518 575 560 q 585 592 617 560 q 516 648 554 624 q 435 688 478 672 q 351 714 393 704 q 388 822 369 768 q 426 928 407 875 q 557 888 493 911 q 681 828 621 864 q 723 855 701 843 q 767 881 744 867 l 918 735 l 824 679 q 859 587 849 635 q 869 489 869 539 q 863 405 869 449 q 842 317 856 361 q 808 233 828 274 q 764 163 789 193 l 514 307 q 517 325 515 317 q 519 343 519 333 q 496 388 519 375 q 444 400 472 400 z "},"!":{"ha":500,"x_min":7,"x_max":635,"o":"m 322 342 q 210 365 265 353 q 99 389 156 378 l 131 614 l 129 613 l 265 890 q 450 850 358 871 q 635 808 542 829 l 496 533 l 499 536 l 322 342 m 203 -14 q 136 -7 171 -14 q 73 16 101 0 q 26 58 44 32 q 7 124 7 85 q 26 202 7 169 q 77 256 46 235 q 147 286 108 276 q 226 296 186 296 q 292 289 257 296 q 356 267 326 282 q 403 226 385 251 q 422 161 422 200 q 403 84 422 117 q 352 29 383 51 q 281 -3 321 7 q 203 -14 242 -14 z "},"\"":{"ha":917,"x_min":113,"x_max":1018,"o":"m 793 539 l 546 583 q 599 776 572 681 q 654 968 626 872 q 836 934 746 953 q 1018 900 926 915 l 793 539 m 361 525 l 113 571 q 167 763 140 667 q 219 954 193 858 l 586 888 l 361 525 z "},"#":{"ha":1147,"x_min":21,"x_max":1222,"o":"m 528 514 l 494 350 l 669 350 l 701 510 l 997 444 l 985 374 l 1107 374 l 1061 138 l 938 138 q 923 69 931 103 q 908 0 915 35 l 581 0 l 608 138 l 474 138 q 458 69 467 103 q 443 0 450 35 l 115 0 l 143 138 l 21 138 l 68 374 l 190 374 l 213 490 l 90 490 l 121 643 q 403 578 264 611 q 686 514 543 546 l 528 514 m 1003 461 q 585 618 792 540 q 168 775 378 696 l 193 839 l 313 822 q 338 890 325 857 q 364 957 350 924 q 528 934 447 946 q 693 911 610 922 l 640 779 l 772 761 l 824 893 l 1151 849 l 1101 715 l 1222 700 l 1136 475 l 1015 490 l 1003 461 m 686 514 l 703 514 l 701 510 l 686 514 z "},"$":{"ha":940,"x_min":-28,"x_max":1026,"o":"m 879 397 q 907 300 907 356 q 878 172 907 225 q 803 83 850 118 q 695 28 757 47 q 567 4 633 10 l 539 -125 l 222 -125 l 253 25 q -28 106 108 47 l 113 315 q 197 283 151 299 q 289 254 242 267 q 383 234 336 242 q 472 226 429 226 q 490 227 479 226 q 510 231 500 228 q 526 241 519 235 q 533 258 533 247 q 516 275 533 267 q 477 292 499 283 q 436 306 456 300 q 411 313 417 311 q 320 342 374 324 q 218 386 267 360 q 134 449 169 413 q 96 536 99 486 l 879 397 m 111 636 q 153 758 121 707 q 233 842 185 808 q 340 891 281 875 q 467 908 400 907 l 510 1039 l 826 1007 l 776 861 q 906 819 843 844 q 1026 754 969 793 l 856 561 q 787 601 825 581 q 707 639 749 622 q 624 667 665 656 q 544 678 582 678 q 511 672 526 678 q 496 646 496 667 q 517 622 496 633 q 572 597 538 610 q 647 567 606 583 q 728 531 688 551 q 803 485 768 511 q 858 426 838 460 l 111 636 z "},"&":{"ha":1025,"x_min":0,"x_max":1044,"o":"m 0 200 q 20 294 0 251 q 73 372 40 338 q 147 433 106 406 q 232 479 189 460 l 883 242 q 860 221 872 231 q 835 200 847 211 q 912 99 872 149 q 989 0 951 50 l 624 0 l 586 44 q 454 3 521 19 q 317 -12 388 -12 q 210 -3 267 -12 q 108 31 154 7 q 31 97 61 56 q 0 200 0 138 m 792 490 q 824 499 810 490 q 849 519 838 507 l 1044 365 q 974 307 1010 335 q 900 254 939 279 l 290 582 q 270 635 278 607 q 263 690 263 663 q 292 794 263 750 q 367 866 321 838 q 468 908 413 894 q 575 921 524 921 q 819 883 700 921 q 1040 774 939 846 l 853 594 q 810 623 833 608 q 760 650 786 638 q 707 670 733 663 q 657 678 681 678 q 622 667 635 678 q 608 633 608 657 q 629 589 608 614 q 679 542 650 564 q 740 505 708 519 q 792 490 771 490 m 356 319 q 315 286 335 307 q 294 238 294 265 q 304 208 294 219 q 328 190 314 197 q 358 181 342 183 q 389 178 375 178 q 430 183 410 178 q 469 196 450 189 l 374 318 l 356 319 z "},"'":{"ha":486,"x_min":136,"x_max":547,"o":"m 408 468 l 136 468 q 146 666 140 568 q 156 864 151 764 l 547 864 l 408 468 z "},"(":{"ha":597,"x_min":49,"x_max":710,"o":"m 111 622 q 294 796 188 725 q 517 919 401 867 q 613 847 565 883 q 710 775 661 811 q 637 718 675 750 q 563 650 599 686 q 497 575 526 614 q 449 497 467 536 l 111 622 m 457 453 q 424 250 424 354 q 448 96 424 171 q 513 -46 472 21 q 385 -91 449 -69 q 257 -135 321 -112 q 174 -42 213 -92 q 108 60 136 7 q 65 173 81 114 q 49 296 49 232 q 61 417 49 358 q 101 531 74 476 l 457 453 z "},")":{"ha":597,"x_min":-86,"x_max":575,"o":"m 513 129 q 329 -44 436 26 q 107 -168 222 -115 q 10 -96 58 -132 q -86 -24 -37 -60 q -13 33 -51 1 q 61 101 25 65 q 127 176 97 138 q 175 254 157 215 l 513 129 m 167 299 q 200 501 200 397 q 176 656 200 581 q 111 797 151 731 q 239 842 175 821 q 367 886 303 864 q 449 794 411 843 q 515 691 488 744 q 559 578 543 638 q 575 456 575 519 q 563 334 575 393 q 522 221 550 275 l 167 299 z "},"*":{"ha":764,"x_min":57,"x_max":800,"o":"m 76 694 q 148 772 113 733 q 219 850 183 811 l 374 697 l 374 904 q 484 888 429 897 q 594 872 539 879 l 522 679 l 717 779 l 800 589 q 759 583 792 588 q 691 572 726 578 q 626 563 656 567 q 594 558 597 558 q 519 566 564 563 q 429 574 475 569 q 341 585 383 579 q 271 599 299 592 q 240 613 268 599 q 178 644 213 626 q 113 676 143 661 q 76 694 83 692 m 254 533 l 592 533 q 622 525 593 533 q 687 506 651 517 q 754 486 722 496 q 792 475 786 476 l 676 300 l 499 429 l 536 222 l 315 222 l 351 429 l 175 300 l 57 474 q 94 485 63 475 q 160 505 125 494 q 225 524 196 515 q 254 533 254 533 z "},"+":{"ha":897,"x_min":71,"x_max":894,"o":"m 876 519 l 876 289 l 628 289 l 628 57 l 321 57 l 321 289 l 71 289 l 71 519 l 876 519 m 89 553 l 89 621 l 338 621 l 358 842 l 664 842 l 646 592 q 770 586 708 589 q 894 581 832 583 l 890 553 l 89 553 z "},",":{"ha":500,"x_min":-107,"x_max":521,"o":"m 119 -169 l -107 -126 l 126 325 l 521 251 l 119 -169 z "},"-":{"ha":678,"x_min":44,"x_max":742,"o":"m 161 611 l 169 639 l 742 586 q 708 486 726 536 q 675 386 690 436 l 161 611 m 635 360 l 619 286 l 44 286 l 97 539 l 635 360 z "},".":{"ha":500,"x_min":14,"x_max":435,"o":"m 32 263 l 38 275 l 38 274 q 122 355 69 326 q 236 383 174 383 q 309 374 274 383 q 372 344 344 364 q 417 294 400 324 q 435 222 435 264 q 432 195 435 208 q 425 168 429 182 l 32 263 m 424 147 q 395 80 417 110 q 343 29 374 50 q 276 -3 313 8 q 204 -14 240 -14 q 134 -4 168 -14 q 74 24 100 6 q 31 72 47 43 q 14 142 14 101 q 19 196 14 172 l 424 147 z "},"/":{"ha":792,"x_min":-129,"x_max":1025,"o":"m 324 560 l 678 978 l 1025 950 q 822 711 924 829 q 619 472 721 593 l 324 560 m 608 454 l 218 -112 l -129 -112 q 88 203 -19 46 q 304 517 194 360 l 608 454 z "},":":{"ha":500,"x_min":8,"x_max":546,"o":"m 150 626 q 230 691 181 671 q 332 711 279 711 q 400 703 363 711 q 470 676 438 694 q 524 631 503 658 q 546 565 546 603 q 545 551 546 558 q 543 538 544 544 l 150 626 m 542 517 q 517 449 539 478 q 465 400 496 419 q 396 371 433 381 q 325 361 358 361 q 257 369 292 361 q 194 393 222 376 q 147 437 165 410 q 129 503 129 464 q 136 554 129 526 l 542 517 m 40 233 l 47 246 q 124 306 76 286 q 222 325 172 325 q 293 317 256 325 q 363 292 331 310 q 417 246 396 274 q 438 176 438 218 q 432 139 438 156 l 40 233 m 417 121 l 407 96 q 323 12 379 38 q 204 -14 267 -14 q 136 -6 171 -14 q 73 18 101 1 q 26 62 44 35 q 8 128 8 89 q 14 181 8 158 l 417 121 z "},";":{"ha":500,"x_min":-83,"x_max":619,"o":"m 225 631 q 300 693 250 674 q 399 713 350 713 q 467 704 429 713 q 540 678 506 696 q 597 632 574 660 q 619 565 619 604 q 616 535 619 551 q 607 504 613 518 l 225 631 m 594 483 q 565 428 588 451 q 512 389 542 404 q 449 366 482 374 q 386 358 415 358 q 318 365 353 358 q 255 389 283 372 q 208 433 226 406 q 190 500 190 460 q 196 550 190 528 l 594 483 m 144 -151 l -83 -125 q 0 92 -43 -17 q 83 308 43 200 q 277 288 181 299 q 471 268 374 278 l 144 -151 z "},"<":{"ha":715,"x_min":81,"x_max":781,"o":"m 99 592 l 106 618 l 781 819 q 743 679 763 749 q 706 539 724 610 l 492 486 l 99 592 m 460 494 l 378 433 l 686 288 l 686 -4 l 81 325 l 81 494 l 460 494 z "},"=":{"ha":965,"x_min":88,"x_max":949,"o":"m 300 756 l 949 714 q 939 594 944 654 q 929 475 933 535 q 713 489 821 482 q 497 503 606 496 l 300 756 m 404 476 l 94 476 l 94 715 l 185 715 l 404 476 m 586 392 l 915 371 q 906 252 911 311 q 896 133 900 193 q 844 136 869 136 q 793 139 819 136 l 586 392 m 725 132 l 88 132 l 88 372 l 499 372 l 725 132 z "},">":{"ha":715,"x_min":-24,"x_max":676,"o":"m 658 590 l 651 617 l -24 818 q 14 678 -6 747 q 51 538 33 608 l 265 485 l 658 590 m 297 493 l 379 432 l 71 286 l 71 -6 l 676 324 l 676 493 l 297 493 z "},"?":{"ha":844,"x_min":139,"x_max":939,"o":"m 510 633 q 526 635 515 633 q 548 640 538 636 q 567 649 558 643 q 575 663 575 654 q 551 686 575 678 q 497 699 528 694 q 437 703 467 703 q 396 704 407 704 q 215 688 304 704 q 193 799 204 744 q 169 911 182 854 q 286 931 228 924 q 404 939 344 939 q 494 934 440 939 q 606 917 547 929 q 725 887 665 906 q 832 840 785 868 q 909 776 879 813 q 939 692 939 739 q 905 581 939 629 q 822 500 871 532 l 510 633 m 335 -14 q 268 -7 303 -14 q 205 16 233 0 q 158 58 176 32 q 139 124 139 85 q 158 202 139 169 q 208 256 176 235 q 278 286 239 276 q 357 296 317 296 q 422 289 388 296 q 486 267 457 282 q 534 226 515 251 q 553 161 553 200 q 533 84 553 117 q 483 30 514 51 q 413 -3 451 8 q 335 -14 374 -14 m 801 488 q 756 463 781 472 q 708 442 732 453 l 710 442 q 665 426 690 435 q 617 405 640 417 q 573 378 593 393 q 543 342 553 363 l 236 342 q 308 490 250 439 q 456 568 365 540 l 801 488 m 478 629 l 483 644 l 510 633 q 493 629 503 629 l 478 629 z "},"@":{"ha":1211,"x_min":92,"x_max":1167,"o":"m 92 431 q 94 469 92 450 q 99 507 96 488 q 137 499 118 503 q 175 492 156 494 q 173 462 174 476 q 172 432 172 447 q 209 266 172 336 q 307 150 246 196 q 448 83 368 104 q 615 61 528 61 q 703 67 660 61 q 786 89 746 74 q 802 57 794 74 q 817 24 810 40 q 613 -14 718 -14 q 419 15 513 -14 q 252 99 325 43 q 135 239 179 156 q 92 431 92 322 m 896 417 l 439 526 q 483 541 460 538 q 529 544 506 544 q 611 534 571 544 q 689 507 651 524 q 690 524 690 515 q 690 539 690 532 q 678 576 690 564 q 649 594 667 589 q 610 600 631 600 q 571 600 589 600 q 513 597 542 600 q 454 586 483 593 l 426 707 q 516 722 471 718 q 607 725 561 725 q 708 721 656 725 q 806 699 761 717 q 879 645 850 681 q 908 547 908 610 q 903 482 908 515 q 896 417 899 449 m 339 347 q 350 408 339 379 q 389 457 361 438 l 874 375 q 873 353 874 364 q 872 331 872 342 q 881 284 872 304 q 922 264 890 264 q 997 283 967 264 q 1043 347 1028 303 q 1081 341 1063 344 q 1119 335 1100 338 q 1028 224 1092 257 q 888 192 965 192 q 788 201 833 192 q 694 236 743 210 q 599 206 647 217 q 499 194 550 194 q 382 233 425 194 q 339 347 339 272 m 640 393 q 599 400 617 400 q 560 389 575 400 q 544 353 544 378 q 560 315 544 326 q 599 304 575 304 q 657 317 629 304 l 657 385 l 638 393 l 640 393 l 640 393 m 1144 357 q 1106 365 1125 360 q 1068 376 1088 371 q 1081 433 1076 404 q 1086 492 1086 463 q 1044 648 1086 581 q 937 760 1003 715 q 790 826 871 804 q 629 849 708 849 q 494 833 560 849 q 372 786 428 818 q 275 703 317 754 q 214 581 233 653 l 139 601 q 213 742 163 682 q 329 842 263 803 q 474 901 396 882 q 632 921 553 921 q 823 893 728 921 q 994 811 918 865 q 1119 676 1071 757 q 1167 489 1167 596 q 1162 422 1167 456 q 1144 357 1157 389 z "},"A":{"ha":1056,"x_min":-42,"x_max":979,"o":"m 914 408 q 946 204 929 306 q 979 0 963 103 l 626 0 l 617 101 l 357 101 q 333 50 346 75 q 308 0 321 25 l -42 0 l 326 661 l 560 560 q 513 437 536 497 q 463 317 490 376 l 597 317 q 594 387 596 353 q 593 457 593 421 q 593 501 593 479 q 594 544 593 522 l 914 408 m 428 803 l 579 960 q 776 914 679 938 q 972 868 872 890 l 917 432 l 650 633 l 656 656 l 629 660 l 625 653 l 428 803 z "},"B":{"ha":992,"x_min":0,"x_max":1088,"o":"m 717 644 q 697 683 717 669 q 649 702 676 696 q 595 710 622 708 q 554 714 568 713 l 504 582 q 564 574 533 579 q 624 569 594 569 q 687 588 657 569 q 717 644 717 607 m 868 461 q 936 403 911 439 q 964 319 961 368 l 190 751 l 268 960 q 510 930 390 944 q 750 899 629 915 q 849 879 792 893 q 960 840 907 865 q 1051 777 1014 815 q 1088 683 1088 739 q 1069 600 1088 636 q 1021 538 1051 564 q 951 497 990 513 q 871 474 913 481 l 868 461 m 603 283 q 594 313 603 301 q 572 332 585 325 q 542 342 558 339 q 513 344 526 344 l 429 344 l 401 207 l 501 207 q 538 210 519 207 q 571 223 557 214 q 594 247 585 232 q 603 283 603 261 m 126 629 l 964 299 q 965 279 965 292 q 926 137 965 192 q 824 52 886 82 q 688 11 763 22 q 542 0 613 0 l 0 0 l 126 629 z "},"C":{"ha":974,"x_min":54,"x_max":1031,"o":"m 267 817 q 403 877 333 856 q 551 899 472 899 q 653 891 599 899 q 760 867 707 883 q 862 826 813 851 q 949 765 911 800 q 1008 685 986 731 q 1031 582 1031 639 q 1023 505 1031 543 q 1003 431 1015 467 l 665 467 q 688 524 678 494 q 699 585 699 554 q 674 635 699 618 q 619 651 650 651 q 563 635 588 651 q 515 600 539 619 l 513 597 l 506 592 l 267 817 m 460 532 q 431 440 440 488 q 422 343 422 392 q 426 300 422 321 q 441 263 431 279 q 469 236 451 246 q 511 226 486 226 q 559 238 538 226 q 598 268 581 250 q 628 309 615 286 q 651 353 642 332 l 949 242 q 773 48 879 110 q 518 -14 667 -14 q 347 5 431 -14 q 198 66 263 24 q 94 178 133 108 q 54 349 54 247 q 78 526 54 440 q 157 685 101 611 l 460 532 z "},"D":{"ha":1013,"x_min":0,"x_max":1051,"o":"m 639 429 l 961 281 q 872 151 926 204 q 750 64 818 97 q 606 15 682 31 q 450 0 529 0 l 0 0 l 133 664 l 460 511 l 406 239 l 453 239 q 589 290 539 239 q 639 429 639 340 m 507 588 l 201 776 l 265 954 l 650 907 q 792 878 721 899 q 922 821 864 858 q 1015 726 979 783 q 1051 583 1051 668 q 1045 512 1051 550 q 1028 435 1039 474 q 1003 362 1018 397 q 971 297 988 326 l 671 485 q 681 524 678 504 q 685 565 685 544 q 673 621 685 599 q 640 656 661 643 q 593 673 619 668 q 538 678 567 678 l 507 588 z "},"E":{"ha":924,"x_min":0,"x_max":1107,"o":"m 664 319 l 424 319 l 404 229 l 863 229 l 818 0 l 0 0 l 118 593 l 664 319 m 201 717 l 306 957 l 1107 815 q 1060 709 1083 763 q 1013 601 1036 656 l 565 678 l 531 593 q 689 567 610 579 q 847 539 768 554 l 754 322 l 708 332 l 201 717 z "},"F":{"ha":908,"x_min":0,"x_max":1025,"o":"m 493 608 l 474 514 l 786 514 l 739 268 l 426 268 l 372 0 l 0 0 l 139 693 l 493 608 m 163 763 q 190 837 176 800 q 219 911 204 874 l 1025 801 l 933 557 l 551 610 l 163 763 z "},"G":{"ha":1047,"x_min":54,"x_max":1099,"o":"m 636 689 q 583 677 607 689 q 540 647 558 665 q 506 603 521 628 q 481 554 490 579 q 334 644 406 599 q 188 733 263 689 q 372 878 264 831 q 601 925 479 925 q 776 908 689 925 q 935 852 864 892 q 1051 744 1006 813 q 1099 575 1096 676 q 932 564 1015 568 q 765 553 849 560 q 732 651 765 613 q 636 689 699 689 m 1064 435 q 1029 341 1049 388 q 983 251 1010 294 l 590 488 l 608 533 q 844 505 726 519 q 1079 476 961 490 l 1064 435 m 556 421 q 765 328 661 376 q 972 235 868 281 q 892 117 939 164 q 789 40 846 69 q 665 -1 732 11 q 524 -14 597 -14 q 349 6 433 -14 q 199 69 264 25 q 94 183 133 113 q 54 357 54 254 q 68 490 54 424 q 113 617 82 556 l 433 475 q 419 339 419 411 q 446 246 419 278 q 535 214 472 214 q 611 241 583 214 q 656 310 639 268 l 532 310 l 556 421 z "},"H":{"ha":1060,"x_min":0,"x_max":1182,"o":"m 528 643 l 196 810 l 251 960 l 625 915 l 528 643 m 550 633 l 707 614 l 807 894 l 1182 850 l 1021 394 l 550 633 m 1015 378 l 940 0 l 563 0 l 622 301 l 438 301 l 378 0 l 0 0 q 69 347 33 175 q 139 693 104 519 l 1015 378 z "},"I":{"ha":506,"x_min":1,"x_max":669,"o":"m 465 429 l 379 0 l 1 0 l 122 600 l 465 429 m 186 690 q 243 803 214 747 q 300 917 272 858 l 669 835 q 572 642 621 738 q 474 450 522 546 l 186 690 z "},"J":{"ha":1000,"x_min":43,"x_max":1188,"o":"m 694 665 l 819 913 q 1003 872 913 893 q 1188 832 1094 851 l 975 400 l 694 665 m 965 381 q 808 81 932 176 q 481 -14 683 -14 q 304 4 385 -14 q 166 65 224 22 q 76 179 108 108 q 43 356 43 250 l 404 410 l 404 400 q 406 348 404 375 q 417 299 408 321 q 443 263 425 276 q 493 249 461 249 q 531 258 515 249 q 555 281 546 267 q 569 313 564 294 q 579 350 575 331 q 621 558 601 454 l 624 576 l 965 381 z "},"K":{"ha":1068,"x_min":1,"x_max":1257,"o":"m 203 779 l 278 964 l 649 906 q 608 799 629 854 q 558 696 588 743 l 578 686 q 692 788 632 739 q 815 879 753 836 q 1036 845 926 863 q 1257 810 1146 828 l 822 531 q 836 460 829 494 q 851 389 843 425 l 203 779 m 857 365 l 1006 0 l 564 0 l 476 290 l 424 232 l 379 0 l 1 0 l 132 654 l 857 365 z "},"L":{"ha":849,"x_min":1,"x_max":799,"o":"m 185 753 q 248 850 217 801 q 311 947 279 899 q 490 888 401 918 q 669 828 579 857 q 583 697 626 761 q 496 568 540 633 l 185 753 m 486 551 l 431 267 l 799 267 l 747 0 l 1 0 q 63 313 32 157 q 125 625 94 468 l 486 551 z "},"M":{"ha":1197,"x_min":0,"x_max":1325,"o":"m 1160 411 l 1079 0 l 746 0 q 789 218 765 110 q 836 435 813 326 l 811 440 q 708 217 768 326 q 592 0 649 107 l 488 0 q 457 217 472 108 q 439 435 442 325 l 411 435 q 374 217 392 326 q 332 0 356 108 l 0 0 l 101 514 l 1160 411 m 668 514 q 723 626 693 574 q 786 726 753 679 q 853 817 819 774 q 919 903 888 861 l 1325 849 l 1165 426 l 668 514 m 643 551 l 135 674 l 256 993 q 460 966 358 981 q 665 939 563 951 l 665 888 l 665 806 q 662 674 665 739 q 643 551 658 610 z "},"N":{"ha":1044,"x_min":0,"x_max":1211,"o":"m 238 804 q 267 882 253 844 q 296 960 282 919 l 638 917 q 690 732 665 825 q 722 543 715 639 l 749 540 l 868 889 q 1040 869 954 879 q 1211 847 1125 858 q 1115 581 1164 713 q 1018 314 1067 449 l 238 804 m 982 296 l 924 0 l 592 0 q 549 93 571 46 q 507 189 528 140 q 469 286 486 238 q 440 385 451 335 l 414 385 q 383 192 401 288 q 346 0 365 96 l 0 0 l 135 685 l 982 296 z "},"O":{"ha":1056,"x_min":54,"x_max":1093,"o":"m 525 228 q 588 248 561 228 q 633 298 615 268 q 663 363 651 328 q 678 428 674 399 l 1008 282 q 926 149 976 204 q 810 57 875 93 q 672 3 746 21 q 517 -14 597 -14 q 344 5 428 -14 q 197 67 261 24 q 93 179 132 110 q 54 350 54 249 q 75 514 54 433 q 143 664 96 594 l 456 525 q 422 344 422 439 q 446 260 422 293 q 525 228 469 228 m 628 688 q 558 663 588 688 q 507 608 528 639 l 221 782 q 392 895 296 860 q 596 931 488 931 q 767 911 679 931 q 928 849 856 892 q 1047 737 1000 806 q 1093 569 1093 668 q 1072 430 1093 501 q 1018 299 1050 358 l 708 489 q 723 537 717 513 q 729 586 729 561 q 702 661 729 635 q 628 688 675 688 z "},"P":{"ha":956,"x_min":0,"x_max":1025,"o":"m 519 460 q 577 469 549 460 q 621 507 606 479 l 907 361 q 806 284 863 311 q 688 244 750 257 q 562 230 626 232 q 436 228 497 228 l 413 228 l 367 0 l 0 0 l 150 749 l 475 581 l 451 460 l 519 460 m 524 654 q 374 756 449 706 q 225 860 300 807 l 258 954 l 682 900 q 797 874 736 893 q 908 823 857 856 q 992 743 958 790 q 1025 631 1025 696 q 1018 563 1025 599 q 998 492 1011 526 q 965 428 985 458 q 922 375 946 397 q 790 465 856 419 q 657 557 724 511 q 674 608 674 578 q 658 649 674 635 q 622 671 643 664 q 576 681 600 678 q 533 686 551 683 l 524 654 z "},"Q":{"ha":1056,"x_min":56,"x_max":1093,"o":"m 649 701 q 628 703 642 703 q 563 682 592 703 q 513 633 533 661 q 360 710 436 672 q 206 786 283 749 q 380 909 282 869 q 590 949 478 949 q 647 946 618 949 q 703 939 675 943 q 844 902 774 928 q 969 833 914 876 q 1059 729 1025 790 q 1093 585 1093 668 q 1078 473 1093 531 q 1039 367 1063 415 l 714 529 q 724 567 718 549 q 729 607 729 585 q 649 701 729 689 m 526 228 q 595 252 567 228 q 642 312 624 276 q 671 388 661 347 q 683 460 681 428 q 857 404 771 432 q 1031 349 943 376 q 980 242 1011 292 q 906 151 949 192 l 979 46 l 676 -107 l 604 -6 q 518 -14 563 -14 q 346 5 429 -14 q 198 67 263 24 q 94 179 133 110 q 56 350 56 249 q 72 497 56 425 q 126 635 89 569 l 460 529 q 424 344 424 442 q 447 260 424 293 q 526 228 471 228 z "},"R":{"ha":989,"x_min":0,"x_max":1038,"o":"m 522 481 q 581 488 550 481 q 628 522 613 496 q 772 465 700 494 q 915 406 843 435 q 852 360 886 379 q 783 322 818 340 q 851 160 817 240 q 921 0 886 81 l 524 0 l 442 269 l 417 269 l 360 0 l 0 0 l 143 717 q 310 650 228 685 q 476 583 393 615 l 456 481 l 522 481 m 515 657 l 204 831 q 229 894 218 863 q 251 957 240 925 l 731 894 q 837 872 782 888 q 936 829 892 857 q 1009 758 981 801 q 1038 651 1038 714 q 1009 524 1038 585 q 932 419 981 463 q 795 497 864 460 q 657 575 726 535 q 669 597 664 586 q 674 618 674 607 q 658 660 674 644 q 621 683 643 675 q 574 695 599 692 q 531 701 549 699 l 515 657 z "},"S":{"ha":940,"x_min":-31,"x_max":1083,"o":"m 231 804 q 294 861 257 839 q 372 897 331 883 q 458 915 414 910 q 544 919 503 919 q 684 908 613 919 q 825 876 756 897 q 960 826 894 856 q 1083 757 1026 796 q 997 656 1040 706 q 908 556 953 607 q 841 597 879 575 q 760 635 803 618 q 676 665 718 653 q 599 676 633 676 q 567 672 586 676 q 547 650 547 668 q 575 622 547 638 q 644 588 603 607 q 735 545 686 569 q 828 490 785 521 q 901 422 871 460 q 936 336 932 383 l 231 804 m 907 313 q 908 303 908 308 q 908 294 908 299 q 869 144 908 204 q 768 49 831 85 q 628 0 706 14 q 476 -14 551 -14 q 217 10 346 -14 q -31 92 89 35 q 40 203 6 147 q 111 315 75 258 q 194 284 149 300 q 285 256 239 268 q 378 235 332 243 q 467 226 425 226 q 505 231 486 226 q 524 258 524 235 q 492 287 524 275 q 413 313 460 299 q 310 347 365 328 q 207 394 254 365 q 128 466 160 424 q 96 569 96 508 q 104 640 96 606 q 131 707 113 675 l 907 313 z "},"T":{"ha":939,"x_min":96,"x_max":1085,"o":"m 158 775 l 228 949 l 1085 814 l 982 561 l 740 597 l 706 514 l 158 775 m 340 597 l 697 493 l 600 0 l 222 0 l 340 597 m 339 597 l 96 597 l 110 665 l 339 597 z "},"U":{"ha":1044,"x_min":57,"x_max":1189,"o":"m 126 671 q 303 610 215 640 q 479 551 390 581 q 453 435 468 494 q 438 318 438 376 q 460 265 438 279 q 518 251 482 251 q 586 277 563 251 q 622 340 610 303 q 638 419 633 378 q 651 493 643 461 l 1004 375 l 1003 369 q 940 188 979 261 q 842 70 901 115 q 701 6 783 25 q 508 -14 619 -14 q 351 -5 431 -14 q 206 35 271 4 q 99 123 140 65 q 57 278 57 181 q 65 374 57 324 q 83 475 72 424 q 106 576 93 526 q 126 671 118 626 m 1010 396 l 681 567 q 748 735 713 651 q 815 903 783 818 l 1189 849 l 1010 396 m 524 646 q 359 731 440 688 q 194 815 278 774 q 228 900 210 858 q 263 985 246 942 q 449 956 356 969 q 635 929 542 943 l 524 646 z "},"V":{"ha":1028,"x_min":156,"x_max":1242,"o":"m 568 343 l 260 750 l 260 892 l 621 856 q 603 598 615 725 q 568 343 590 471 m 585 318 q 725 578 647 453 q 879 831 803 704 l 1242 790 l 749 104 l 585 318 m 706 111 l 643 0 l 261 0 l 156 685 l 706 111 z "},"W":{"ha":1367,"x_min":138,"x_max":1506,"o":"m 138 689 q 310 658 225 674 q 482 626 394 642 q 472 510 478 568 q 457 394 467 453 l 486 392 q 517 504 501 449 q 550 615 532 560 l 939 546 q 931 471 936 508 q 919 396 925 433 l 949 393 q 990 538 968 469 l 1286 485 l 1060 0 l 697 0 q 702 222 697 111 q 724 440 707 332 l 696 443 q 626 219 665 329 q 547 0 588 110 l 186 0 l 138 689 m 1294 499 q 1149 540 1221 518 q 1003 581 1076 561 q 1071 731 1035 656 q 1142 881 1107 806 q 1324 864 1233 874 q 1506 847 1414 854 l 1294 499 m 953 592 l 578 692 q 595 744 582 714 q 624 805 608 774 q 654 866 639 836 q 679 919 669 896 q 841 906 761 914 q 1004 892 921 899 q 979 742 990 817 q 953 592 968 667 m 514 758 q 508 735 510 747 q 504 713 507 724 q 336 756 419 733 q 168 803 253 779 l 179 958 q 361 943 271 950 q 543 929 451 936 l 514 758 l 514 758 z "},"X":{"ha":1031,"x_min":-51,"x_max":1279,"o":"m 806 339 l 965 0 l 568 0 l 539 85 l 540 83 q 520 151 529 117 q 506 221 511 185 l 483 222 q 456 166 474 196 q 418 106 439 136 q 377 49 397 76 q 340 0 357 22 l -51 0 l 322 433 l 261 571 l 806 339 m 363 642 l 286 928 l 675 872 q 687 789 681 832 q 693 704 693 746 q 692 681 693 693 q 690 658 692 669 l 715 653 q 795 753 747 706 q 888 843 843 800 l 1279 788 l 838 414 q 848 378 844 396 q 857 343 851 361 l 363 642 z "},"Y":{"ha":1053,"x_min":225,"x_max":1286,"o":"m 313 679 l 265 957 q 463 924 365 942 q 660 892 560 907 q 662 838 661 864 q 663 785 663 813 q 660 685 663 736 q 646 589 657 635 l 669 585 q 774 725 717 660 q 892 854 832 790 l 1286 790 l 778 335 l 313 679 m 735 321 l 711 293 l 654 0 l 276 0 l 335 292 l 225 576 l 735 321 z "},"Z":{"ha":981,"x_min":-29,"x_max":1182,"o":"m 663 376 q 638 360 651 367 q 613 342 624 353 q 552 295 583 318 q 488 253 521 272 l 497 240 q 553 247 525 246 q 608 249 581 249 l 926 249 l 876 0 l -29 0 l 17 232 q 206 372 111 303 q 392 514 300 440 l 663 376 m 464 589 l 522 613 q 564 627 543 621 q 607 640 585 633 l 604 654 q 508 667 557 657 q 409 690 458 676 q 310 717 360 703 q 215 744 261 732 l 338 969 l 1182 756 l 1069 543 l 683 388 l 464 589 z "},"[":{"ha":643,"x_min":-25,"x_max":814,"o":"m 176 550 q 229 715 201 633 q 282 879 257 796 l 814 832 l 751 631 l 540 650 q 507 548 524 599 q 475 446 490 497 l 176 550 m 411 435 l 338 68 l 551 68 l 510 -137 l -25 -137 q 39 187 7 26 q 103 511 71 347 l 411 435 z "},"\\":{"ha":792,"x_min":126,"x_max":751,"o":"m 265 540 l 126 1011 l 475 1011 q 553 741 514 875 q 632 471 593 607 l 265 540 m 599 419 l 751 -112 l 406 -112 l 231 490 l 599 419 z "},"]":{"ha":643,"x_min":-154,"x_max":683,"o":"m 483 179 q 431 15 458 96 q 378 -150 403 -67 l -154 -103 l -92 99 l 119 79 q 153 181 136 131 q 185 283 169 232 l 483 179 m 249 294 l 322 661 l 108 661 l 150 867 l 685 867 q 621 542 653 703 q 557 218 589 382 l 249 294 z "},"^":{"ha":861,"x_min":68,"x_max":874,"o":"m 576 499 l 549 697 l 371 531 q 219 556 294 543 q 68 579 144 568 l 481 931 l 788 881 l 874 451 l 576 499 z "},"_":{"ha":694,"x_min":11,"x_max":714,"o":"m 33 -65 q 38 -32 36 -49 q 42 1 40 -15 l 714 -44 l 700 -199 l 33 -65 m 688 -224 l 688 -251 l 11 -251 l 11 -135 l 688 -224 z "},"`":{"ha":694,"x_min":154,"x_max":653,"o":"m 154 1106 l 546 1019 q 599 876 574 949 q 653 733 625 804 l 413 783 l 154 1106 z "},"a":{"ha":807,"x_min":-6,"x_max":836,"o":"m 460 271 l 454 274 q 408 295 429 286 q 364 297 388 304 q 241 351 301 324 q 119 407 181 379 q 242 440 175 436 q 374 427 308 444 q 499 381 440 410 q 499 383 499 382 q 500 385 500 383 q 509 410 506 397 q 513 438 513 424 l 513 443 q 482 485 511 469 q 412 506 453 500 q 326 513 371 513 q 247 510 281 513 l 208 507 l 218 685 q 322 689 260 688 q 453 686 385 690 q 590 671 522 682 q 713 638 658 660 q 802 583 768 617 q 836 500 836 549 q 824 417 836 467 q 794 316 811 368 q 758 215 776 264 q 728 132 740 165 l 453 256 l 460 271 m 438 218 q 583 173 511 196 q 726 126 654 150 l 700 0 l 392 0 l 406 58 q 358 33 385 46 q 301 9 331 19 q 242 -8 271 -1 q 188 -14 213 -14 q 112 -4 147 -14 q 50 26 76 6 q 9 78 24 47 q -6 154 -6 110 q 11 253 -6 206 q 68 335 28 300 q 195 293 132 314 q 324 253 258 272 q 301 226 308 242 q 294 193 294 211 q 314 154 294 164 q 358 144 333 144 q 392 148 375 144 q 425 154 408 151 l 438 218 z "},"b":{"ha":863,"x_min":-10,"x_max":885,"o":"m 424 188 q 473 210 453 188 q 506 263 493 232 q 524 326 518 293 q 529 381 529 358 q 680 329 606 356 q 831 276 754 303 q 791 167 818 219 q 724 75 764 115 q 633 10 685 35 q 518 -14 581 -14 q 424 6 467 -14 q 342 57 381 25 l 329 0 l -10 0 l 96 533 q 254 479 175 507 q 413 424 333 451 l 368 201 q 424 188 392 188 m 461 515 q 318 600 389 557 q 175 683 247 643 l 286 926 l 663 956 l 525 651 q 597 684 558 669 q 674 699 635 699 q 827 641 769 699 q 885 488 885 583 q 872 389 885 439 q 839 294 858 339 l 564 456 q 567 476 567 469 q 542 519 567 507 q 492 532 518 532 q 479 531 485 532 q 467 529 474 531 l 461 515 z "},"c":{"ha":788,"x_min":26,"x_max":789,"o":"m 361 379 q 350 353 354 369 q 344 318 346 336 q 340 283 342 300 q 339 258 339 267 q 353 206 339 224 q 403 189 367 189 q 457 212 435 189 q 492 263 479 235 q 617 222 554 242 q 742 183 679 203 q 597 38 686 89 q 397 -14 507 -14 q 265 0 331 -14 q 145 46 199 14 q 59 131 92 78 q 26 263 26 185 q 39 374 26 319 q 79 478 51 429 l 361 379 m 128 568 q 253 644 182 619 q 400 669 325 669 q 533 654 464 669 q 658 606 601 639 q 752 519 715 572 q 789 392 789 467 q 788 359 789 375 q 783 326 786 343 l 494 351 q 503 380 500 365 q 507 410 507 394 q 490 448 507 435 q 450 461 474 461 q 407 446 425 461 q 374 413 389 431 l 128 568 z "},"d":{"ha":863,"x_min":24,"x_max":1014,"o":"m 458 504 q 403 475 425 504 q 260 524 331 499 q 117 575 189 550 q 231 675 164 636 q 376 714 297 714 q 483 686 436 714 q 569 618 529 658 l 642 831 l 1014 890 q 916 608 964 749 q 819 326 868 468 q 663 381 740 353 q 507 436 586 408 l 524 483 q 458 504 492 504 m 490 385 l 814 311 q 783 156 797 233 q 753 0 768 79 l 413 0 l 426 67 q 340 10 386 35 q 240 -14 293 -14 q 145 6 186 -14 q 77 61 104 26 q 37 142 50 96 q 24 238 24 188 q 37 363 24 300 q 79 481 50 425 q 228 445 154 464 q 376 411 301 426 q 349 335 357 376 q 340 254 340 294 q 358 202 340 217 q 413 188 376 188 q 453 197 433 188 l 490 385 z "},"e":{"ha":803,"x_min":25,"x_max":800,"o":"m 449 526 q 383 504 410 526 l 164 614 q 294 679 224 658 q 439 700 365 700 q 567 687 503 700 q 683 643 632 674 q 767 562 735 613 q 800 435 800 511 q 794 371 800 403 q 781 307 788 339 l 538 429 q 539 441 539 436 q 539 453 539 446 q 513 511 539 496 q 449 526 486 526 m 776 292 l 769 257 l 308 257 q 337 202 318 221 q 381 174 356 183 q 435 164 406 165 q 497 163 465 163 q 590 169 543 163 q 681 189 636 176 l 722 24 q 573 -7 647 0 q 421 -14 499 -14 q 275 -1 346 -14 q 149 46 204 13 q 59 135 93 79 q 25 279 25 192 q 47 413 25 347 q 113 529 68 478 q 230 487 172 510 q 347 444 288 464 q 334 420 339 433 q 326 393 329 407 l 449 393 q 523 382 482 393 q 608 356 564 371 q 695 322 651 340 q 776 292 739 304 z "},"f":{"ha":533,"x_min":29,"x_max":725,"o":"m 556 538 l 538 454 l 446 454 l 354 0 l 29 0 l 119 454 l 46 454 l 85 647 l 140 647 l 556 538 m 204 747 l 215 768 q 254 836 235 804 q 299 892 274 868 q 357 931 324 917 q 438 946 390 946 q 587 918 511 946 q 725 851 663 890 l 649 704 q 576 728 617 728 q 537 710 550 728 q 513 672 524 693 l 508 664 l 607 642 q 585 599 596 619 q 563 557 574 579 l 204 747 z "},"g":{"ha":863,"x_min":24,"x_max":932,"o":"m 488 372 q 649 334 569 354 q 811 296 729 314 l 779 132 q 706 -53 757 18 q 581 -165 654 -125 q 415 -222 507 -206 q 218 -243 322 -239 l 133 -92 l 146 -92 q 238 -85 188 -90 q 330 -65 288 -81 q 401 -17 372 -49 q 429 68 429 14 q 341 11 389 36 q 240 -14 293 -14 q 145 7 186 -14 q 77 62 104 28 q 37 142 50 96 q 24 238 24 188 q 35 356 24 297 q 74 468 46 415 q 222 433 149 451 q 369 399 294 415 q 347 328 353 365 q 340 254 340 290 q 358 202 340 217 q 413 188 376 188 q 433 189 424 188 q 453 197 443 190 l 488 372 m 531 482 q 468 499 501 499 q 431 487 447 499 q 403 458 414 475 l 115 557 q 229 665 161 622 q 379 708 297 708 q 487 683 440 708 q 575 617 533 658 l 594 675 l 932 642 l 824 314 l 513 421 l 531 482 z "},"h":{"ha":901,"x_min":-11,"x_max":911,"o":"m 160 685 l 222 864 l 594 929 l 488 619 q 563 651 524 636 q 642 671 601 667 q 722 669 678 675 q 806 648 767 664 q 874 603 846 632 q 906 529 901 574 q 897 430 911 482 q 865 332 882 378 l 856 307 l 160 685 m 854 299 l 796 0 l 456 0 q 467 52 460 21 q 482 119 474 83 q 499 194 490 156 q 514 269 507 233 q 525 333 521 304 q 529 381 529 363 q 513 416 529 407 q 472 425 496 425 q 422 410 436 425 q 400 361 407 396 l 328 0 l -11 0 q 49 303 18 153 q 108 606 79 454 l 854 299 z "},"i":{"ha":447,"x_min":-8,"x_max":592,"o":"m 213 839 q 226 890 213 868 q 262 925 240 911 q 310 946 283 939 q 361 953 336 953 q 427 945 388 953 q 503 921 467 938 q 565 879 539 904 q 592 819 592 854 q 578 771 592 792 q 542 736 564 750 q 494 716 519 722 q 444 710 468 710 q 378 717 418 710 q 302 739 339 724 q 239 778 265 754 q 213 839 213 803 m 133 607 l 178 703 l 513 635 q 469 540 492 586 q 424 447 446 494 l 133 607 m 417 429 l 331 0 l -8 0 q 44 265 17 135 q 97 531 72 396 l 417 429 z "},"j":{"ha":447,"x_min":-172,"x_max":618,"o":"m 242 836 q 255 888 242 865 q 289 924 268 910 q 335 944 310 938 q 386 951 361 951 q 453 944 413 951 q 529 922 493 938 q 592 881 565 906 q 618 819 618 856 q 605 769 618 790 q 570 733 592 747 q 522 713 549 719 q 471 707 496 707 q 404 714 443 707 q 329 737 365 721 q 267 777 293 753 q 242 836 242 801 m 135 586 l 188 701 q 354 667 271 685 q 522 635 438 650 q 469 521 497 576 q 417 407 442 465 l 135 586 m 408 388 q 374 201 388 286 q 341 46 360 115 q 293 -76 322 -24 q 213 -162 264 -128 q 83 -216 161 -197 q -112 -235 4 -235 l -172 -47 q -167 -47 -169 -47 q -161 -46 -164 -46 q -103 -36 -131 -42 q -53 -19 -75 -31 q -15 15 -31 -7 q 7 72 0 36 l 93 510 l 408 388 z "},"k":{"ha":864,"x_min":-11,"x_max":975,"o":"m 149 653 l 256 896 l 633 935 q 556 757 596 844 q 478 579 517 669 l 446 517 l 469 510 q 506 549 483 526 q 554 592 529 571 q 603 633 579 614 q 647 665 628 653 q 811 637 731 651 q 975 607 892 622 l 704 440 l 704 375 l 149 653 m 710 354 l 804 0 l 457 0 l 415 229 l 361 172 l 328 0 l -11 0 q 42 266 14 135 q 94 532 69 397 l 710 354 z "},"l":{"ha":447,"x_min":-7,"x_max":606,"o":"m 436 524 l 333 0 l -7 0 l 114 603 l 436 524 m 147 690 l 228 868 l 606 894 l 444 551 l 147 690 z "},"m":{"ha":1310,"x_min":-14,"x_max":1344,"o":"m 825 299 q 684 358 754 328 q 543 419 614 389 q 547 433 543 426 q 550 449 550 440 q 528 489 550 478 q 481 500 506 500 q 449 492 460 500 q 429 465 439 485 q 281 528 354 497 q 133 590 208 560 l 188 751 l 511 721 l 496 665 q 587 701 540 685 q 682 717 633 717 q 742 712 711 717 q 804 697 774 707 q 860 669 835 686 q 906 629 886 653 q 1006 662 954 649 q 1110 675 1057 675 q 1193 665 1151 675 q 1269 634 1235 656 q 1324 578 1303 613 q 1344 497 1344 544 q 1341 453 1344 475 q 1331 411 1338 432 l 1236 125 l 939 249 q 971 331 953 286 q 989 417 989 375 q 966 449 989 440 q 924 457 943 457 q 881 439 897 457 q 855 396 865 421 q 838 344 844 371 q 825 299 831 317 m 507 333 q 654 286 582 310 q 801 239 726 263 l 754 0 l 440 0 l 507 333 m 81 467 q 234 418 158 443 q 388 369 310 393 q 366 287 376 335 q 346 188 356 239 q 328 87 336 136 q 313 0 319 38 l -14 0 l 81 467 m 922 204 q 1078 155 1001 181 q 1232 106 1154 129 l 1210 0 l 882 0 l 922 204 z "},"n":{"ha":901,"x_min":-11,"x_max":943,"o":"m 433 394 l 139 561 l 208 739 q 376 715 293 728 q 544 692 460 703 l 522 638 q 610 668 564 654 q 701 682 656 682 q 784 674 742 682 q 862 648 826 667 q 920 597 897 629 q 943 517 943 565 q 930 440 943 486 q 899 344 917 393 q 863 247 882 294 q 832 169 844 200 q 687 252 758 210 q 540 335 615 294 q 546 349 542 339 q 554 369 550 358 q 562 390 558 381 q 565 403 565 400 l 564 399 q 571 432 571 417 q 564 452 571 444 q 547 465 557 460 q 524 471 536 469 q 503 472 513 472 q 474 465 486 472 q 455 447 463 458 q 442 422 447 436 q 433 394 438 408 m 76 444 q 234 383 156 414 q 392 319 313 351 l 328 0 l -11 0 l 76 444 m 511 276 l 825 151 l 796 0 l 456 0 l 511 276 z "},"o":{"ha":842,"x_min":25,"x_max":860,"o":"m 494 511 l 489 511 l 485 511 q 483 513 483 511 q 450 503 465 513 q 423 481 435 494 q 402 450 411 467 q 386 419 393 433 l 114 549 q 256 674 169 635 q 442 713 342 713 q 578 698 504 713 q 714 651 651 683 q 818 565 776 618 q 860 435 860 511 q 842 325 860 379 q 799 222 825 271 q 660 288 729 256 q 522 353 592 319 q 524 357 524 356 q 525 361 524 358 q 542 407 533 382 q 550 454 550 432 q 535 496 550 483 q 494 511 521 508 m 408 183 q 444 194 429 183 q 471 222 460 206 q 489 258 482 239 q 500 294 496 278 l 789 207 q 722 108 763 150 q 631 40 682 67 q 522 -1 581 13 q 404 -14 464 -14 q 270 -1 338 -14 q 148 44 203 13 q 59 128 93 75 q 25 260 25 181 q 33 347 25 304 q 57 431 40 390 q 203 385 131 407 q 350 340 275 363 q 343 296 346 318 q 340 251 340 274 q 356 199 340 214 q 408 183 372 183 z "},"p":{"ha":863,"x_min":-58,"x_max":878,"o":"m 431 422 l 132 575 l 185 722 l 522 683 l 503 628 q 583 664 542 649 q 668 679 624 679 q 757 662 718 679 q 823 615 796 644 q 864 543 850 585 q 878 454 878 501 q 860 334 878 397 q 817 221 843 271 q 681 292 749 257 q 546 364 614 328 q 555 401 551 382 q 558 440 558 421 q 541 484 558 468 q 496 500 524 500 q 454 496 475 500 l 431 422 m 424 188 q 463 201 446 188 q 491 233 479 214 q 510 275 503 253 q 522 315 518 297 q 665 260 594 289 q 808 204 736 232 q 762 119 790 158 q 696 49 733 79 q 614 3 658 19 q 518 -14 569 -14 q 424 6 467 -14 q 342 57 382 26 q 322 -40 332 8 q 301 -137 313 -89 l -58 -237 q 13 121 -22 -57 q 83 481 49 299 l 400 360 l 368 201 q 395 191 382 194 q 424 188 408 188 z "},"q":{"ha":863,"x_min":24,"x_max":950,"o":"m 471 292 l 783 167 q 753 15 768 90 q 724 -137 739 -61 l 365 -237 l 426 65 q 340 10 386 33 q 240 -14 293 -14 q 145 6 186 -14 q 77 61 104 26 q 37 142 50 96 q 24 238 24 188 q 34 349 24 294 q 67 454 44 403 l 349 340 q 340 254 340 299 q 358 202 340 217 q 413 188 376 188 q 433 189 424 188 q 453 197 443 190 l 471 292 m 544 482 q 514 495 529 492 q 479 499 499 499 q 449 489 464 499 q 422 465 435 479 q 400 435 410 451 q 385 407 390 419 l 121 551 q 240 665 168 618 q 396 711 311 711 q 504 685 460 711 q 593 617 549 660 q 602 645 597 632 q 613 674 607 658 q 781 653 697 663 q 950 635 865 644 q 792 185 868 410 q 644 264 717 224 q 497 344 572 304 l 544 482 z "},"r":{"ha":650,"x_min":-10,"x_max":792,"o":"m 422 376 q 401 347 408 363 q 392 313 394 331 l 331 0 l -10 0 l 83 478 l 422 376 m 131 571 q 168 642 147 607 q 206 713 189 676 q 370 674 289 693 q 535 635 451 654 l 507 578 q 576 602 539 590 q 649 614 614 614 q 722 603 685 614 q 792 578 758 592 l 606 349 q 549 385 582 371 q 485 400 517 400 q 442 392 463 400 l 131 571 z "},"s":{"ha":719,"x_min":-35,"x_max":810,"o":"m 61 433 q 78 513 61 475 l 674 199 q 638 92 669 133 q 558 28 606 51 q 453 -5 510 4 q 342 -14 396 -14 q -35 46 146 -14 l 64 222 q 125 203 92 213 q 193 185 158 193 q 262 172 228 176 q 325 167 296 167 q 353 172 339 167 q 367 194 367 178 q 344 216 367 207 q 288 235 321 225 q 214 258 254 244 q 140 294 174 272 q 84 350 107 317 q 61 433 61 383 m 442 465 q 521 428 479 449 q 598 382 563 408 q 656 324 633 356 q 679 250 679 292 q 678 235 679 243 q 676 219 678 226 q 414 416 544 318 q 151 611 283 514 q 261 683 196 664 q 392 703 326 703 q 496 694 440 703 q 607 672 551 686 q 715 637 663 657 q 810 592 768 617 l 668 431 q 622 457 651 442 q 561 485 593 472 q 499 508 529 499 q 449 518 468 518 q 426 513 439 518 q 414 496 414 508 q 422 475 414 482 q 442 465 431 468 z "},"t":{"ha":619,"x_min":46,"x_max":697,"o":"m 438 426 q 417 333 429 382 q 406 238 406 283 q 413 214 406 222 q 430 200 419 206 q 453 193 440 194 q 478 192 467 192 q 521 193 500 192 q 563 201 542 194 l 489 1 q 415 -11 453 -8 q 342 -14 378 -14 q 251 -10 300 -14 q 161 11 203 -6 q 92 60 119 28 q 65 149 65 93 q 85 302 65 225 q 119 454 104 379 l 46 454 q 58 511 51 483 q 69 568 64 539 l 438 426 m 119 657 q 134 686 126 672 q 149 715 142 700 l 219 701 q 256 776 238 739 q 292 851 275 813 l 665 878 l 546 635 q 622 619 585 628 q 697 603 660 610 q 655 513 678 557 q 611 424 632 468 l 453 456 l 447 443 l 119 657 z "},"u":{"ha":901,"x_min":25,"x_max":974,"o":"m 428 451 l 124 585 l 172 719 q 342 701 257 711 q 510 681 426 690 l 428 451 m 524 360 l 843 268 l 790 0 l 451 0 l 464 58 q 359 8 415 29 q 244 -14 303 -14 q 158 -6 199 -14 q 89 22 118 3 q 42 76 60 42 q 25 161 25 110 q 47 327 25 243 q 83 492 68 411 q 242 442 163 467 q 401 394 322 418 q 387 331 394 364 q 379 267 379 299 q 396 231 379 240 q 436 222 413 222 q 481 235 465 222 q 505 267 497 247 q 516 312 513 288 q 524 360 519 336 m 843 271 l 540 406 l 635 663 q 805 644 721 654 q 974 624 889 633 l 843 271 z "},"v":{"ha":831,"x_min":113,"x_max":985,"o":"m 432 278 q 542 465 485 372 q 663 646 600 558 l 985 592 l 596 135 l 432 278 m 593 118 l 525 0 l 182 0 l 113 408 l 593 118 m 414 294 l 172 508 l 172 726 l 497 672 q 460 483 481 581 q 414 294 439 386 z "},"w":{"ha":1100,"x_min":88,"x_max":1203,"o":"m 88 524 l 369 458 q 366 381 368 419 q 357 304 364 343 l 386 301 q 407 373 396 338 q 429 444 418 408 l 728 375 q 724 338 726 357 q 719 301 722 319 l 749 300 q 757 333 753 317 q 767 367 761 350 l 1017 307 q 951 153 985 229 q 883 0 917 78 l 563 0 l 563 53 q 563 193 563 124 q 569 333 564 263 l 543 335 q 485 165 518 251 q 415 0 453 78 l 140 0 l 88 524 m 1028 325 l 779 404 l 907 660 q 1054 649 981 654 q 1203 638 1128 643 l 1028 325 m 739 415 q 595 460 667 439 q 453 506 524 482 l 540 688 q 660 678 601 685 q 781 668 719 672 q 762 541 774 604 q 739 415 750 478 m 390 524 q 253 567 319 544 q 115 610 186 590 q 118 664 117 638 q 119 718 119 690 q 267 706 194 713 q 415 694 340 700 q 403 608 408 651 q 390 524 397 565 z "},"x":{"ha":853,"x_min":-57,"x_max":1007,"o":"m 239 336 l 203 413 l 682 211 q 733 106 708 158 q 783 0 757 53 l 451 0 q 427 100 440 49 q 411 203 414 151 l 386 206 q 333 101 365 151 q 272 0 301 50 l -57 0 l 239 336 m 656 347 q 665 294 660 321 q 675 242 671 268 q 471 390 572 317 q 265 536 369 463 l 222 767 q 383 729 303 749 q 543 692 463 710 q 538 602 540 647 q 525 514 536 557 l 549 510 q 610 583 578 547 q 675 653 642 618 l 686 664 l 1007 592 l 656 347 z "},"y":{"ha":831,"x_min":44,"x_max":971,"o":"m 478 365 q 606 334 546 347 q 732 308 667 321 l 407 -247 l 44 -247 l 183 -29 q 139 198 161 85 q 96 425 117 311 l 97 425 q 110 424 99 425 q 153 418 121 424 q 246 402 185 413 q 411 374 307 392 q 410 360 411 372 q 407 332 408 347 q 403 290 404 314 l 478 365 m 167 531 l 167 747 l 486 692 q 463 569 475 629 q 438 450 451 510 l 428 425 l 167 531 m 479 406 q 562 538 517 472 q 651 665 607 603 q 811 638 732 651 q 971 608 890 624 l 708 314 l 479 406 z "},"z":{"ha":779,"x_min":-18,"x_max":922,"o":"m 307 426 l 458 483 q 313 523 385 503 q 167 564 240 543 l 267 736 q 594 644 432 692 q 922 553 757 597 l 829 396 q 676 338 751 368 q 524 281 601 308 l 307 426 m 504 271 l 403 194 l 718 194 l 679 0 l -18 0 l 15 174 q 131 260 74 217 q 247 347 189 304 l 504 271 z "},"{":{"ha":708,"x_min":21,"x_max":882,"o":"m 192 604 q 211 617 200 604 q 233 645 222 629 q 253 676 244 661 q 265 699 263 692 q 385 839 308 793 q 564 885 463 885 q 724 867 644 885 q 882 828 804 850 q 839 742 860 785 q 797 656 818 699 q 753 662 775 658 q 710 665 732 665 q 640 648 668 665 q 592 605 613 631 q 553 549 571 579 q 515 494 536 519 q 465 451 493 468 q 393 433 436 433 l 381 433 l 192 604 m 483 238 q 477 186 483 211 q 471 135 471 161 q 483 94 471 110 q 513 69 494 78 q 555 57 532 61 q 599 50 578 53 l 614 47 l 576 -137 q 489 -131 538 -135 q 390 -119 440 -128 q 293 -94 340 -110 q 208 -53 246 -79 q 149 10 171 -28 q 126 103 126 49 q 132 154 126 129 q 138 206 138 179 q 131 230 138 221 q 113 244 124 239 q 88 251 101 250 q 60 253 74 253 q 38 252 49 253 q 21 251 28 251 l 65 482 l 99 482 q 123 482 111 482 q 147 485 135 482 l 406 350 q 438 332 424 340 q 463 312 453 324 q 478 282 474 300 q 483 238 483 264 z "},"|":{"ha":478,"x_min":-44,"x_max":731,"o":"m 72 286 l 385 1006 l 731 944 q 557 549 644 746 q 383 154 469 353 l 72 286 m 376 135 l 304 -232 l -44 -232 l 44 213 l 376 135 z "},"}":{"ha":708,"x_min":-43,"x_max":717,"o":"m 706 444 l 667 251 l 619 251 q 569 242 588 251 q 542 217 551 233 q 528 178 533 201 q 518 129 524 156 q 457 -8 499 44 q 358 -89 415 -60 q 231 -128 301 -118 q 82 -137 160 -137 q -43 -133 19 -137 l -7 53 q 69 59 39 54 q 122 77 100 64 q 158 115 143 90 q 188 183 172 140 l 192 194 q 215 258 204 231 q 241 304 225 285 q 281 338 257 324 q 346 361 306 351 l 706 444 m 336 463 q 284 484 304 464 q 264 542 264 504 q 270 583 264 563 q 283 622 276 603 q 297 659 290 640 q 303 697 303 678 q 289 731 303 717 q 255 756 275 746 q 214 774 235 767 q 179 786 193 781 l 258 963 q 332 943 290 954 q 417 917 374 932 q 503 881 461 901 q 579 834 546 861 q 633 773 613 807 q 653 697 653 739 q 646 650 653 674 q 631 604 639 626 q 617 564 624 582 q 610 532 610 546 q 622 508 610 517 q 653 494 635 499 q 688 486 671 489 q 717 482 706 483 l 710 463 l 336 463 z "},"~":{"ha":808,"x_min":22,"x_max":883,"o":"m 660 331 q 601 303 632 314 q 535 293 569 293 q 461 311 493 293 q 402 350 429 329 q 349 389 375 371 q 292 407 322 407 q 235 386 261 407 q 190 346 210 365 q 106 398 147 371 q 22 451 64 425 q 94 528 56 490 q 174 599 133 567 l 660 331 m 233 646 q 262 663 244 654 q 298 677 279 671 q 335 688 317 683 q 368 692 354 692 q 451 671 417 692 q 513 624 485 650 q 569 578 542 599 q 631 557 596 557 q 679 574 656 557 q 722 606 703 590 l 726 610 q 805 552 767 582 q 883 493 843 522 q 794 414 838 451 q 699 342 750 376 l 233 646 z "},"Ä":{"ha":1056,"x_min":-42,"x_max":1139,"o":"m 914 408 q 946 204 929 306 q 979 0 963 103 l 626 0 l 617 101 l 357 101 q 333 50 346 75 q 308 0 321 25 l -42 0 l 326 661 l 560 560 q 513 437 536 497 q 463 317 490 376 l 597 317 q 594 387 596 353 q 593 457 593 421 q 593 501 593 479 q 594 544 593 522 l 914 408 m 428 803 l 579 960 q 776 914 679 938 q 972 868 872 890 l 917 432 l 650 633 l 656 656 l 629 660 l 625 653 l 428 803 m 796 1039 q 813 1103 796 1074 q 856 1154 829 1133 q 915 1187 882 1175 q 981 1199 947 1199 q 1038 1190 1010 1199 q 1088 1166 1065 1182 q 1125 1126 1111 1150 q 1139 1069 1139 1101 q 1122 999 1139 1031 q 1076 947 1104 968 q 1013 913 1049 925 q 942 901 978 901 q 888 913 914 901 q 841 942 861 924 q 808 986 821 961 q 796 1039 796 1011 m 358 1100 q 376 1165 358 1136 q 423 1215 394 1194 q 485 1247 451 1236 q 553 1258 519 1258 q 606 1248 579 1258 q 656 1219 633 1238 q 691 1177 678 1201 q 704 1124 704 1153 q 688 1058 704 1088 q 644 1006 671 1028 q 583 972 617 985 q 517 960 550 960 q 459 969 488 960 q 408 998 431 979 q 372 1042 386 1017 q 358 1100 358 1068 z "},"É":{"ha":924,"x_min":0,"x_max":1140,"o":"m 664 319 l 424 319 l 404 229 l 863 229 l 818 0 l 0 0 l 118 593 l 664 319 m 201 717 l 306 957 l 1107 815 q 1060 709 1083 763 q 1013 601 1036 656 l 565 678 l 531 593 q 689 567 610 579 q 847 539 768 554 l 754 322 l 708 332 l 201 717 m 743 925 q 622 955 682 940 q 500 982 563 969 l 747 1189 l 1140 1096 l 743 925 z "},"Ñ":{"ha":1044,"x_min":0,"x_max":1211,"o":"m 238 804 q 267 882 253 844 q 296 960 282 919 l 638 917 q 690 732 665 825 q 722 543 715 639 l 749 540 l 868 889 q 1040 869 954 879 q 1211 847 1125 858 q 1115 581 1164 713 q 1018 314 1067 449 l 238 804 m 982 296 l 924 0 l 592 0 q 549 93 571 46 q 507 189 528 140 q 469 286 486 238 q 440 385 451 335 l 414 385 q 383 192 401 288 q 346 0 365 96 l 0 0 l 135 685 l 982 296 m 1097 1136 q 1053 1061 1078 1099 q 999 994 1029 1024 q 930 947 968 965 q 844 929 892 929 q 743 949 786 929 q 667 991 700 968 q 610 1033 635 1014 q 565 1053 586 1053 q 531 1034 544 1053 q 510 1000 518 1015 l 288 1051 q 331 1126 307 1089 q 387 1192 356 1163 q 456 1239 418 1221 q 540 1257 494 1257 q 647 1238 603 1257 q 722 1195 690 1218 q 777 1153 754 1172 q 819 1133 800 1133 q 852 1151 839 1133 q 874 1185 865 1169 l 1097 1136 z "},"Ö":{"ha":1056,"x_min":54,"x_max":1161,"o":"m 525 228 q 588 248 561 228 q 633 298 615 268 q 663 363 651 328 q 678 428 674 399 l 1008 282 q 926 149 976 204 q 810 57 875 93 q 672 3 746 21 q 517 -14 597 -14 q 344 5 428 -14 q 197 67 261 24 q 93 179 132 110 q 54 350 54 249 q 75 514 54 433 q 143 664 96 594 l 456 525 q 422 344 422 439 q 446 260 422 293 q 525 228 469 228 m 628 688 q 558 663 588 688 q 507 608 528 639 l 221 782 q 392 895 296 860 q 596 931 488 931 q 767 911 679 931 q 928 849 856 892 q 1047 737 1000 806 q 1093 569 1093 668 q 1072 430 1093 501 q 1018 299 1050 358 l 708 489 q 723 537 717 513 q 729 586 729 561 q 702 661 729 635 q 628 688 675 688 m 818 1039 q 835 1103 818 1074 q 878 1154 851 1133 q 937 1187 904 1175 q 1003 1199 969 1199 q 1060 1190 1032 1199 q 1110 1166 1088 1182 q 1147 1126 1133 1150 q 1161 1069 1161 1101 q 1144 999 1161 1031 q 1099 947 1126 968 q 1035 913 1071 925 q 964 901 1000 901 q 910 913 936 901 q 863 942 883 924 q 831 986 843 961 q 818 1039 818 1011 m 381 1100 q 399 1165 381 1136 q 445 1215 417 1194 q 508 1247 474 1236 q 575 1258 542 1258 q 628 1248 601 1258 q 678 1219 656 1238 q 713 1177 700 1201 q 726 1124 726 1153 q 710 1058 726 1088 q 666 1006 693 1028 q 606 972 639 985 q 539 960 572 960 q 481 969 510 960 q 431 998 453 979 q 394 1042 408 1017 q 381 1100 381 1068 z "},"Ü":{"ha":1044,"x_min":57,"x_max":1192,"o":"m 126 671 q 303 610 215 640 q 479 551 390 581 q 453 435 468 494 q 438 318 438 376 q 460 265 438 279 q 518 251 482 251 q 586 277 563 251 q 622 340 610 303 q 638 419 633 378 q 651 493 643 461 l 1004 375 l 1003 369 q 940 188 979 261 q 842 70 901 115 q 701 6 783 25 q 508 -14 619 -14 q 351 -5 431 -14 q 206 35 271 4 q 99 123 140 65 q 57 278 57 181 q 65 374 57 324 q 83 475 72 424 q 106 576 93 526 q 126 671 118 626 m 1010 396 l 681 567 q 748 735 713 651 q 815 903 783 818 l 1189 849 l 1010 396 m 524 646 q 359 731 440 688 q 194 815 278 774 q 228 900 210 858 q 263 985 246 942 q 449 956 356 969 q 635 929 542 943 l 524 646 m 849 1039 q 865 1103 849 1074 q 908 1154 882 1133 q 967 1187 935 1175 q 1033 1199 1000 1199 q 1090 1190 1063 1199 q 1141 1166 1118 1182 q 1178 1126 1164 1150 q 1192 1069 1192 1101 q 1174 999 1192 1031 q 1129 947 1157 968 q 1066 913 1101 925 q 994 901 1031 901 q 940 913 967 901 q 894 942 914 924 q 861 986 874 961 q 849 1039 849 1011 m 411 1100 q 429 1165 411 1136 q 476 1215 447 1194 q 538 1247 504 1236 q 606 1258 572 1258 q 659 1248 632 1258 q 708 1219 686 1238 q 744 1177 731 1201 q 757 1124 757 1153 q 740 1058 757 1088 q 697 1006 724 1028 q 636 972 669 985 q 569 960 603 960 q 512 969 540 960 q 461 998 483 979 q 425 1042 439 1017 q 411 1100 411 1068 z "},"á":{"ha":807,"x_min":-6,"x_max":1068,"o":"m 460 271 l 454 274 q 408 295 429 286 q 364 297 388 304 q 241 351 301 324 q 119 407 181 379 q 242 440 175 436 q 374 427 308 444 q 499 381 440 410 q 499 383 499 382 q 500 385 500 383 q 509 410 506 397 q 513 438 513 424 l 513 443 q 482 485 511 469 q 412 506 453 500 q 326 513 371 513 q 247 510 281 513 l 208 507 l 218 685 q 322 689 260 688 q 453 686 385 690 q 590 671 522 682 q 713 638 658 660 q 802 583 768 617 q 836 500 836 549 q 824 417 836 467 q 794 316 811 368 q 758 215 776 264 q 728 132 740 165 l 453 256 l 460 271 m 438 218 q 583 173 511 196 q 726 126 654 150 l 700 0 l 392 0 l 406 58 q 358 33 385 46 q 301 9 331 19 q 242 -8 271 -1 q 188 -14 213 -14 q 112 -4 147 -14 q 50 26 76 6 q 9 78 24 47 q -6 154 -6 110 q 11 253 -6 206 q 68 335 28 300 q 195 293 132 314 q 324 253 258 272 q 301 226 308 242 q 294 193 294 211 q 314 154 294 164 q 358 144 333 144 q 392 148 375 144 q 425 154 408 151 l 438 218 m 671 721 q 550 751 610 736 q 428 778 490 765 l 675 985 l 1068 892 l 671 721 z "},"à":{"ha":807,"x_min":-6,"x_max":836,"o":"m 460 271 l 454 274 q 408 295 429 286 q 364 297 388 304 q 241 351 301 324 q 119 407 181 379 q 242 440 175 436 q 374 427 308 444 q 499 381 440 410 q 499 383 499 382 q 500 385 500 383 q 509 410 506 397 q 513 438 513 424 l 513 443 q 482 485 511 469 q 412 506 453 500 q 326 513 371 513 q 247 510 281 513 l 208 507 l 218 685 q 322 689 260 688 q 453 686 385 690 q 590 671 522 682 q 713 638 658 660 q 802 583 768 617 q 836 500 836 549 q 824 417 836 467 q 794 316 811 368 q 758 215 776 264 q 728 132 740 165 l 453 256 l 460 271 m 438 218 q 583 173 511 196 q 726 126 654 150 l 700 0 l 392 0 l 406 58 q 358 33 385 46 q 301 9 331 19 q 242 -8 271 -1 q 188 -14 213 -14 q 112 -4 147 -14 q 50 26 76 6 q 9 78 24 47 q -6 154 -6 110 q 11 253 -6 206 q 68 335 28 300 q 195 293 132 314 q 324 253 258 272 q 301 226 308 242 q 294 193 294 211 q 314 154 294 164 q 358 144 333 144 q 392 148 375 144 q 425 154 408 151 l 438 218 m 142 1106 l 533 1019 q 587 876 561 949 q 640 733 613 804 l 400 783 l 142 1106 z "},"â":{"ha":807,"x_min":-6,"x_max":889,"o":"m 460 271 l 454 274 q 408 295 429 286 q 364 297 388 304 q 241 351 301 324 q 119 407 181 379 q 242 440 175 436 q 374 427 308 444 q 499 381 440 410 q 499 383 499 382 q 500 385 500 383 q 509 410 506 397 q 513 438 513 424 l 513 443 q 482 485 511 469 q 412 506 453 500 q 326 513 371 513 q 247 510 281 513 l 208 507 l 218 685 q 322 689 260 688 q 453 686 385 690 q 590 671 522 682 q 713 638 658 660 q 802 583 768 617 q 836 500 836 549 q 824 417 836 467 q 794 316 811 368 q 758 215 776 264 q 728 132 740 165 l 453 256 l 460 271 m 438 218 q 583 173 511 196 q 726 126 654 150 l 700 0 l 392 0 l 406 58 q 358 33 385 46 q 301 9 331 19 q 242 -8 271 -1 q 188 -14 213 -14 q 112 -4 147 -14 q 50 26 76 6 q 9 78 24 47 q -6 154 -6 110 q 11 253 -6 206 q 68 335 28 300 q 195 293 132 314 q 324 253 258 272 q 301 226 308 242 q 294 193 294 211 q 314 154 294 164 q 358 144 333 144 q 392 148 375 144 q 425 154 408 151 l 438 218 m 636 754 l 572 851 l 447 775 q 319 790 383 782 q 192 804 256 797 l 504 1032 l 754 1004 q 822 864 789 933 q 889 724 856 794 l 636 754 z "},"ä":{"ha":807,"x_min":-6,"x_max":914,"o":"m 460 271 l 454 274 q 408 295 429 286 q 364 297 388 304 q 241 351 301 324 q 119 407 181 379 q 242 440 175 436 q 374 427 308 444 q 499 381 440 410 q 499 383 499 382 q 500 385 500 383 q 509 410 506 397 q 513 438 513 424 l 513 443 q 482 485 511 469 q 412 506 453 500 q 326 513 371 513 q 247 510 281 513 l 208 507 l 218 685 q 322 689 260 688 q 453 686 385 690 q 590 671 522 682 q 713 638 658 660 q 802 583 768 617 q 836 500 836 549 q 824 417 836 467 q 794 316 811 368 q 758 215 776 264 q 728 132 740 165 l 453 256 l 460 271 m 438 218 q 583 173 511 196 q 726 126 654 150 l 700 0 l 392 0 l 406 58 q 358 33 385 46 q 301 9 331 19 q 242 -8 271 -1 q 188 -14 213 -14 q 112 -4 147 -14 q 50 26 76 6 q 9 78 24 47 q -6 154 -6 110 q 11 253 -6 206 q 68 335 28 300 q 195 293 132 314 q 324 253 258 272 q 301 226 308 242 q 294 193 294 211 q 314 154 294 164 q 358 144 333 144 q 392 148 375 144 q 425 154 408 151 l 438 218 m 571 829 q 588 894 571 864 q 631 944 604 924 q 690 977 657 965 q 756 989 722 989 q 813 981 785 989 q 863 956 840 972 q 900 916 886 940 q 914 860 914 892 q 897 790 914 821 q 851 737 879 758 q 788 703 824 715 q 717 692 753 692 q 663 703 689 692 q 616 733 636 714 q 583 776 596 751 q 571 829 571 801 m 133 890 q 151 956 133 926 q 198 1006 169 985 q 260 1038 226 1026 q 328 1049 294 1049 q 381 1038 354 1049 q 431 1010 408 1028 q 466 967 453 992 q 479 914 479 943 q 463 848 479 878 q 419 797 446 818 q 358 763 392 775 q 292 750 325 750 q 234 760 263 750 q 183 788 206 769 q 147 833 161 807 q 133 890 133 858 z "},"ã":{"ha":807,"x_min":-6,"x_max":956,"o":"m 460 271 l 454 274 q 408 295 429 286 q 364 297 388 304 q 241 351 301 324 q 119 407 181 379 q 242 440 175 436 q 374 427 308 444 q 499 381 440 410 q 499 383 499 382 q 500 385 500 383 q 509 410 506 397 q 513 438 513 424 l 513 443 q 482 485 511 469 q 412 506 453 500 q 326 513 371 513 q 247 510 281 513 l 208 507 l 218 685 q 322 689 260 688 q 453 686 385 690 q 590 671 522 682 q 713 638 658 660 q 802 583 768 617 q 836 500 836 549 q 824 417 836 467 q 794 316 811 368 q 758 215 776 264 q 728 132 740 165 l 453 256 l 460 271 m 438 218 q 583 173 511 196 q 726 126 654 150 l 700 0 l 392 0 l 406 58 q 358 33 385 46 q 301 9 331 19 q 242 -8 271 -1 q 188 -14 213 -14 q 112 -4 147 -14 q 50 26 76 6 q 9 78 24 47 q -6 154 -6 110 q 11 253 -6 206 q 68 335 28 300 q 195 293 132 314 q 324 253 258 272 q 301 226 308 242 q 294 193 294 211 q 314 154 294 164 q 358 144 333 144 q 392 148 375 144 q 425 154 408 151 l 438 218 m 956 932 q 912 857 936 894 q 857 790 888 819 q 788 743 826 761 q 703 725 750 725 q 601 744 644 725 q 526 787 558 764 q 469 829 493 810 q 424 849 444 849 q 390 830 403 849 q 368 796 376 811 l 146 847 q 190 922 165 885 q 245 988 214 958 q 315 1035 276 1017 q 399 1053 353 1053 q 505 1033 461 1053 q 581 991 549 1014 q 635 949 613 968 q 678 929 658 929 q 710 947 697 929 q 732 981 724 965 l 956 932 z "},"å":{"ha":807,"x_min":-6,"x_max":993,"o":"m 460 271 l 454 274 q 408 295 429 286 q 364 297 388 304 q 241 351 301 324 q 119 407 181 379 q 242 440 175 436 q 374 427 308 444 q 499 381 440 410 q 499 383 499 382 q 500 385 500 383 q 509 410 506 397 q 513 438 513 424 l 513 443 q 482 485 511 469 q 412 506 453 500 q 326 513 371 513 q 247 510 281 513 l 208 507 l 218 685 q 322 689 260 688 q 453 686 385 690 q 590 671 522 682 q 713 638 658 660 q 802 583 768 617 q 836 500 836 549 q 824 417 836 467 q 794 316 811 368 q 758 215 776 264 q 728 132 740 165 l 453 256 l 460 271 m 438 218 q 583 173 511 196 q 726 126 654 150 l 700 0 l 392 0 l 406 58 q 358 33 385 46 q 301 9 331 19 q 242 -8 271 -1 q 188 -14 213 -14 q 112 -4 147 -14 q 50 26 76 6 q 9 78 24 47 q -6 154 -6 110 q 11 253 -6 206 q 68 335 28 300 q 195 293 132 314 q 324 253 258 272 q 301 226 308 242 q 294 193 294 211 q 314 154 294 164 q 358 144 333 144 q 392 148 375 144 q 425 154 408 151 l 438 218 m 890 926 q 807 1011 890 1011 q 774 1007 790 1011 q 746 990 757 1003 l 731 971 l 632 997 q 697 1075 651 1046 q 807 1104 742 1104 q 876 1092 842 1104 q 935 1059 910 1081 q 977 1007 961 1038 q 993 939 993 976 q 992 917 993 928 q 988 896 990 907 l 890 926 m 976 858 q 905 778 951 806 q 800 750 858 750 q 731 762 764 750 q 672 795 697 774 q 630 847 646 817 q 614 915 614 878 q 619 964 614 943 q 669 949 644 957 q 718 935 693 942 q 717 915 717 928 q 742 861 717 879 q 800 843 767 843 q 847 853 825 843 q 879 888 868 863 l 976 858 z "},"é":{"ha":803,"x_min":25,"x_max":1067,"o":"m 449 526 q 383 504 410 526 l 164 614 q 294 679 224 658 q 439 700 365 700 q 567 687 503 700 q 683 643 632 674 q 767 562 735 613 q 800 435 800 511 q 794 371 800 403 q 781 307 788 339 l 538 429 q 539 441 539 436 q 539 453 539 446 q 513 511 539 496 q 449 526 486 526 m 776 292 l 769 257 l 308 257 q 337 202 318 221 q 381 174 356 183 q 435 164 406 165 q 497 163 465 163 q 590 169 543 163 q 681 189 636 176 l 722 24 q 573 -7 647 0 q 421 -14 499 -14 q 275 -1 346 -14 q 149 46 204 13 q 59 135 93 79 q 25 279 25 192 q 47 413 25 347 q 113 529 68 478 q 230 487 172 510 q 347 444 288 464 q 334 420 339 433 q 326 393 329 407 l 449 393 q 523 382 482 393 q 608 356 564 371 q 695 322 651 340 q 776 292 739 304 m 669 721 q 549 751 608 736 q 426 778 489 765 l 674 985 l 1067 892 l 669 721 z "},"è":{"ha":803,"x_min":25,"x_max":800,"o":"m 449 526 q 383 504 410 526 l 164 614 q 294 679 224 658 q 439 700 365 700 q 567 687 503 700 q 683 643 632 674 q 767 562 735 613 q 800 435 800 511 q 794 371 800 403 q 781 307 788 339 l 538 429 q 539 441 539 436 q 539 453 539 446 q 513 511 539 496 q 449 526 486 526 m 776 292 l 769 257 l 308 257 q 337 202 318 221 q 381 174 356 183 q 435 164 406 165 q 497 163 465 163 q 590 169 543 163 q 681 189 636 176 l 722 24 q 573 -7 647 0 q 421 -14 499 -14 q 275 -1 346 -14 q 149 46 204 13 q 59 135 93 79 q 25 279 25 192 q 47 413 25 347 q 113 529 68 478 q 230 487 172 510 q 347 444 288 464 q 334 420 339 433 q 326 393 329 407 l 449 393 q 523 382 482 393 q 608 356 564 371 q 695 322 651 340 q 776 292 739 304 m 129 1106 l 521 1019 q 574 876 549 949 q 628 733 600 804 l 388 783 l 129 1106 z "},"ê":{"ha":803,"x_min":25,"x_max":892,"o":"m 449 526 q 383 504 410 526 l 164 614 q 294 679 224 658 q 439 700 365 700 q 567 687 503 700 q 683 643 632 674 q 767 562 735 613 q 800 435 800 511 q 794 371 800 403 q 781 307 788 339 l 538 429 q 539 441 539 436 q 539 453 539 446 q 513 511 539 496 q 449 526 486 526 m 776 292 l 769 257 l 308 257 q 337 202 318 221 q 381 174 356 183 q 435 164 406 165 q 497 163 465 163 q 590 169 543 163 q 681 189 636 176 l 722 24 q 573 -7 647 0 q 421 -14 499 -14 q 275 -1 346 -14 q 149 46 204 13 q 59 135 93 79 q 25 279 25 192 q 47 413 25 347 q 113 529 68 478 q 230 487 172 510 q 347 444 288 464 q 334 420 339 433 q 326 393 329 407 l 449 393 q 523 382 482 393 q 608 356 564 371 q 695 322 651 340 q 776 292 739 304 m 639 754 l 575 851 l 450 775 q 322 790 386 782 q 194 804 258 797 l 507 1032 l 757 1004 q 825 864 792 933 q 892 724 858 794 l 639 754 z "},"ë":{"ha":803,"x_min":25,"x_max":903,"o":"m 449 526 q 383 504 410 526 l 164 614 q 294 679 224 658 q 439 700 365 700 q 567 687 503 700 q 683 643 632 674 q 767 562 735 613 q 800 435 800 511 q 794 371 800 403 q 781 307 788 339 l 538 429 q 539 441 539 436 q 539 453 539 446 q 513 511 539 496 q 449 526 486 526 m 776 292 l 769 257 l 308 257 q 337 202 318 221 q 381 174 356 183 q 435 164 406 165 q 497 163 465 163 q 590 169 543 163 q 681 189 636 176 l 722 24 q 573 -7 647 0 q 421 -14 499 -14 q 275 -1 346 -14 q 149 46 204 13 q 59 135 93 79 q 25 279 25 192 q 47 413 25 347 q 113 529 68 478 q 230 487 172 510 q 347 444 288 464 q 334 420 339 433 q 326 393 329 407 l 449 393 q 523 382 482 393 q 608 356 564 371 q 695 322 651 340 q 776 292 739 304 m 560 829 q 576 894 560 864 q 619 944 593 924 q 678 977 646 965 q 744 989 711 989 q 801 981 774 989 q 852 956 829 972 q 889 916 875 940 q 903 860 903 892 q 885 790 903 821 q 840 737 868 758 q 777 703 813 715 q 706 692 742 692 q 651 703 678 692 q 605 733 625 714 q 572 776 585 751 q 560 829 560 801 m 122 890 q 140 956 122 926 q 187 1006 158 985 q 249 1038 215 1026 q 317 1049 283 1049 q 370 1038 343 1049 q 419 1010 397 1028 q 455 967 442 992 q 468 914 468 943 q 451 848 468 878 q 408 797 435 818 q 347 763 381 775 q 281 750 314 750 q 223 760 251 750 q 172 788 194 769 q 136 833 150 807 q 122 890 122 858 z "},"í":{"ha":447,"x_min":-8,"x_max":901,"o":"m 133 607 l 179 703 l 513 635 q 469 540 492 586 q 424 447 446 494 l 133 607 m 417 429 l 332 0 l -8 0 q 45 265 18 133 q 99 531 72 397 l 417 429 m 504 721 q 383 751 443 736 q 261 778 324 765 l 508 985 l 901 892 l 504 721 z "},"ì":{"ha":447,"x_min":-56,"x_max":513,"o":"m 133 607 l 179 703 l 513 635 q 469 540 492 586 q 424 447 446 494 l 133 607 m 417 429 l 332 0 l -8 0 q 45 265 18 133 q 99 531 72 397 l 417 429 m -56 1106 l 336 1019 q 390 876 364 949 q 443 733 415 804 l 203 783 l -56 1106 z "},"î":{"ha":447,"x_min":-8,"x_max":725,"o":"m 133 607 l 179 703 l 513 635 q 469 540 492 586 q 424 447 446 494 l 133 607 m 417 429 l 332 0 l -8 0 q 45 265 18 133 q 99 531 72 397 l 417 429 m 472 754 l 408 851 l 283 775 q 156 790 219 782 q 28 804 92 797 l 340 1032 l 590 1004 q 658 864 625 933 q 725 724 692 794 l 472 754 z "},"ï":{"ha":447,"x_min":-44,"x_max":736,"o":"m 133 607 l 179 703 l 513 635 q 469 540 492 586 q 424 447 446 494 l 133 607 m 417 429 l 332 0 l -8 0 q 45 265 18 133 q 99 531 72 397 l 417 429 m 393 829 q 410 894 393 864 q 453 944 426 924 q 512 977 479 965 q 578 989 544 989 q 635 981 607 989 q 685 956 663 972 q 722 916 708 940 q 736 860 736 892 q 719 790 736 821 q 674 737 701 758 q 610 703 646 715 q 539 692 575 692 q 485 703 511 692 q 438 733 458 714 q 406 776 418 751 q 393 829 393 801 m -44 890 q -26 956 -44 926 q 20 1006 -8 985 q 83 1038 49 1026 q 150 1049 117 1049 q 203 1038 176 1049 q 253 1010 231 1028 q 288 967 275 992 q 301 914 301 943 q 285 848 301 878 q 241 797 268 818 q 181 763 214 775 q 114 750 147 750 q 56 760 85 750 q 6 788 28 769 q -31 833 -17 807 q -44 890 -44 858 z "},"ñ":{"ha":901,"x_min":-11,"x_max":989,"o":"m 433 394 l 139 561 l 208 739 q 376 715 293 728 q 544 692 460 703 l 522 638 q 610 668 564 654 q 701 682 656 682 q 784 674 742 682 q 862 648 826 667 q 920 597 897 629 q 943 517 943 565 q 930 440 943 486 q 899 344 917 393 q 863 247 882 294 q 832 169 844 200 q 687 252 758 210 q 540 335 615 294 q 546 349 542 339 q 554 369 550 358 q 562 390 558 381 q 565 403 565 400 l 564 399 q 571 432 571 417 q 564 452 571 444 q 547 465 557 460 q 524 471 536 469 q 503 472 513 472 q 474 465 486 472 q 455 447 463 458 q 442 422 447 436 q 433 394 438 408 m 76 444 q 234 383 156 414 q 392 319 313 351 l 328 0 l -11 0 l 76 444 m 511 276 l 825 151 l 796 0 l 456 0 l 511 276 m 989 932 q 945 857 969 894 q 890 790 921 819 q 822 743 860 761 q 736 725 783 725 q 635 744 678 725 q 559 787 592 764 q 502 829 526 810 q 457 849 478 849 q 423 830 436 849 q 401 796 410 811 l 179 847 q 223 922 199 885 q 278 988 247 958 q 348 1035 310 1017 q 432 1053 386 1053 q 538 1033 494 1053 q 614 991 582 1014 q 669 949 646 968 q 711 929 692 929 q 744 947 731 929 q 765 981 757 965 l 989 932 z "},"ó":{"ha":842,"x_min":25,"x_max":1093,"o":"m 494 511 l 489 511 l 485 511 q 483 513 483 511 q 450 503 465 513 q 423 481 435 494 q 402 450 411 467 q 386 419 393 433 l 114 549 q 256 674 169 635 q 442 713 342 713 q 578 698 504 713 q 714 651 651 683 q 818 565 776 618 q 860 435 860 511 q 842 325 860 379 q 799 222 825 271 q 660 288 729 256 q 522 353 592 319 q 524 357 524 356 q 525 361 524 358 q 542 407 533 382 q 550 454 550 432 q 535 496 550 483 q 494 511 521 508 m 408 183 q 444 194 429 183 q 471 222 460 206 q 489 258 482 239 q 500 294 496 278 l 789 207 q 722 108 763 150 q 631 40 682 67 q 522 -1 581 13 q 404 -14 464 -14 q 270 -1 338 -14 q 148 44 203 13 q 59 128 93 75 q 25 260 25 181 q 33 347 25 304 q 57 431 40 390 q 203 385 131 407 q 350 340 275 363 q 343 296 346 318 q 340 251 340 274 q 356 199 340 214 q 408 183 372 183 m 696 721 q 575 751 635 736 q 453 778 515 765 l 700 985 l 1093 892 l 696 721 z "},"ò":{"ha":842,"x_min":25,"x_max":860,"o":"m 494 511 l 489 511 l 485 511 q 483 513 483 511 q 450 503 465 513 q 423 481 435 494 q 402 450 411 467 q 386 419 393 433 l 114 549 q 256 674 169 635 q 442 713 342 713 q 578 698 504 713 q 714 651 651 683 q 818 565 776 618 q 860 435 860 511 q 842 325 860 379 q 799 222 825 271 q 660 288 729 256 q 522 353 592 319 q 524 357 524 356 q 525 361 524 358 q 542 407 533 382 q 550 454 550 432 q 535 496 550 483 q 494 511 521 508 m 408 183 q 444 194 429 183 q 471 222 460 206 q 489 258 482 239 q 500 294 496 278 l 789 207 q 722 108 763 150 q 631 40 682 67 q 522 -1 581 13 q 404 -14 464 -14 q 270 -1 338 -14 q 148 44 203 13 q 59 128 93 75 q 25 260 25 181 q 33 347 25 304 q 57 431 40 390 q 203 385 131 407 q 350 340 275 363 q 343 296 346 318 q 340 251 340 274 q 356 199 340 214 q 408 183 372 183 m 140 1106 l 532 1019 q 585 876 560 949 q 639 733 611 804 l 399 783 l 140 1106 z "},"ô":{"ha":842,"x_min":25,"x_max":910,"o":"m 494 511 l 489 511 l 485 511 q 483 513 483 511 q 450 503 465 513 q 423 481 435 494 q 402 450 411 467 q 386 419 393 433 l 114 549 q 256 674 169 635 q 442 713 342 713 q 578 698 504 713 q 714 651 651 683 q 818 565 776 618 q 860 435 860 511 q 842 325 860 379 q 799 222 825 271 q 660 288 729 256 q 522 353 592 319 q 524 357 524 356 q 525 361 524 358 q 542 407 533 382 q 550 454 550 432 q 535 496 550 483 q 494 511 521 508 m 408 183 q 444 194 429 183 q 471 222 460 206 q 489 258 482 239 q 500 294 496 278 l 789 207 q 722 108 763 150 q 631 40 682 67 q 522 -1 581 13 q 404 -14 464 -14 q 270 -1 338 -14 q 148 44 203 13 q 59 128 93 75 q 25 260 25 181 q 33 347 25 304 q 57 431 40 390 q 203 385 131 407 q 350 340 275 363 q 343 296 346 318 q 340 251 340 274 q 356 199 340 214 q 408 183 372 183 m 657 754 l 593 851 l 468 775 q 340 790 404 782 q 213 804 276 797 l 525 1032 l 775 1004 q 843 864 810 933 q 910 724 876 794 l 657 754 z "},"ö":{"ha":842,"x_min":25,"x_max":921,"o":"m 494 511 l 489 511 l 485 511 q 483 513 483 511 q 450 503 465 513 q 423 481 435 494 q 402 450 411 467 q 386 419 393 433 l 114 549 q 256 674 169 635 q 442 713 342 713 q 578 698 504 713 q 714 651 651 683 q 818 565 776 618 q 860 435 860 511 q 842 325 860 379 q 799 222 825 271 q 660 288 729 256 q 522 353 592 319 q 524 357 524 356 q 525 361 524 358 q 542 407 533 382 q 550 454 550 432 q 535 496 550 483 q 494 511 521 508 m 408 183 q 444 194 429 183 q 471 222 460 206 q 489 258 482 239 q 500 294 496 278 l 789 207 q 722 108 763 150 q 631 40 682 67 q 522 -1 581 13 q 404 -14 464 -14 q 270 -1 338 -14 q 148 44 203 13 q 59 128 93 75 q 25 260 25 181 q 33 347 25 304 q 57 431 40 390 q 203 385 131 407 q 350 340 275 363 q 343 296 346 318 q 340 251 340 274 q 356 199 340 214 q 408 183 372 183 m 578 829 q 594 894 578 864 q 638 944 611 924 q 697 977 664 965 q 763 989 729 989 q 819 981 792 989 q 870 956 847 972 q 907 916 893 940 q 921 860 921 892 q 903 790 921 821 q 858 737 886 758 q 795 703 831 715 q 724 692 760 692 q 669 703 696 692 q 623 733 643 714 q 590 776 603 751 q 578 829 578 801 m 140 890 q 158 956 140 926 q 205 1006 176 985 q 267 1038 233 1026 q 335 1049 301 1049 q 388 1038 361 1049 q 438 1010 415 1028 q 473 967 460 992 q 486 914 486 943 q 469 848 486 878 q 426 797 453 818 q 365 763 399 775 q 299 750 332 750 q 241 760 269 750 q 190 788 213 769 q 154 833 168 807 q 140 890 140 858 z "},"õ":{"ha":842,"x_min":25,"x_max":963,"o":"m 494 511 l 489 511 l 485 511 q 483 513 483 511 q 450 503 465 513 q 423 481 435 494 q 402 450 411 467 q 386 419 393 433 l 114 549 q 256 674 169 635 q 442 713 342 713 q 578 698 504 713 q 714 651 651 683 q 818 565 776 618 q 860 435 860 511 q 842 325 860 379 q 799 222 825 271 q 660 288 729 256 q 522 353 592 319 q 524 357 524 356 q 525 361 524 358 q 542 407 533 382 q 550 454 550 432 q 535 496 550 483 q 494 511 521 508 m 408 183 q 444 194 429 183 q 471 222 460 206 q 489 258 482 239 q 500 294 496 278 l 789 207 q 722 108 763 150 q 631 40 682 67 q 522 -1 581 13 q 404 -14 464 -14 q 270 -1 338 -14 q 148 44 203 13 q 59 128 93 75 q 25 260 25 181 q 33 347 25 304 q 57 431 40 390 q 203 385 131 407 q 350 340 275 363 q 343 296 346 318 q 340 251 340 274 q 356 199 340 214 q 408 183 372 183 m 963 932 q 919 857 943 894 q 864 790 894 819 q 795 743 833 761 q 710 725 757 725 q 608 744 651 725 q 533 787 565 764 q 476 829 500 810 q 431 849 451 849 q 397 830 410 849 q 375 796 383 811 l 153 847 q 197 922 172 885 q 252 988 221 958 q 322 1035 283 1017 q 406 1053 360 1053 q 512 1033 468 1053 q 588 991 556 1014 q 642 949 619 968 q 685 929 665 929 q 717 947 704 929 q 739 981 731 965 l 963 932 z "},"ú":{"ha":901,"x_min":25,"x_max":1107,"o":"m 428 451 l 124 585 l 172 719 q 342 701 257 711 q 510 681 426 690 l 428 451 m 524 360 l 843 268 l 790 0 l 451 0 l 464 58 q 359 8 415 29 q 244 -14 303 -14 q 158 -6 199 -14 q 89 22 118 3 q 42 76 60 42 q 25 161 25 110 q 47 327 25 243 q 83 492 68 411 q 242 442 163 467 q 401 394 322 418 q 387 331 394 364 q 379 267 379 299 q 396 231 379 240 q 436 222 413 222 q 481 235 465 222 q 505 267 497 247 q 516 312 513 288 q 524 360 519 336 m 843 271 l 540 406 l 635 663 q 805 644 721 654 q 974 624 889 633 l 843 271 m 710 721 q 589 751 649 736 q 467 778 529 765 l 714 985 l 1107 892 l 710 721 z "},"ù":{"ha":901,"x_min":25,"x_max":974,"o":"m 428 451 l 124 585 l 172 719 q 342 701 257 711 q 510 681 426 690 l 428 451 m 524 360 l 843 268 l 790 0 l 451 0 l 464 58 q 359 8 415 29 q 244 -14 303 -14 q 158 -6 199 -14 q 89 22 118 3 q 42 76 60 42 q 25 161 25 110 q 47 327 25 243 q 83 492 68 411 q 242 442 163 467 q 401 394 322 418 q 387 331 394 364 q 379 267 379 299 q 396 231 379 240 q 436 222 413 222 q 481 235 465 222 q 505 267 497 247 q 516 312 513 288 q 524 360 519 336 m 843 271 l 540 406 l 635 663 q 805 644 721 654 q 974 624 889 633 l 843 271 m 172 1106 l 564 1019 q 617 876 592 949 q 671 733 643 804 l 431 783 l 172 1106 z "},"û":{"ha":901,"x_min":25,"x_max":974,"o":"m 428 451 l 124 585 l 172 719 q 342 701 257 711 q 510 681 426 690 l 428 451 m 524 360 l 843 268 l 790 0 l 451 0 l 464 58 q 359 8 415 29 q 244 -14 303 -14 q 158 -6 199 -14 q 89 22 118 3 q 42 76 60 42 q 25 161 25 110 q 47 327 25 243 q 83 492 68 411 q 242 442 163 467 q 401 394 322 418 q 387 331 394 364 q 379 267 379 299 q 396 231 379 240 q 436 222 413 222 q 481 235 465 222 q 505 267 497 247 q 516 312 513 288 q 524 360 519 336 m 843 271 l 540 406 l 635 663 q 805 644 721 654 q 974 624 889 633 l 843 271 m 696 754 l 632 851 l 507 775 q 379 790 443 782 q 251 804 315 797 l 564 1032 l 814 1004 q 882 864 849 933 q 949 724 915 794 l 696 754 z "},"ü":{"ha":901,"x_min":25,"x_max":1018,"o":"m 428 451 l 124 585 l 172 719 q 342 701 257 711 q 510 681 426 690 l 428 451 m 524 360 l 843 268 l 790 0 l 451 0 l 464 58 q 359 8 415 29 q 244 -14 303 -14 q 158 -6 199 -14 q 89 22 118 3 q 42 76 60 42 q 25 161 25 110 q 47 327 25 243 q 83 492 68 411 q 242 442 163 467 q 401 394 322 418 q 387 331 394 364 q 379 267 379 299 q 396 231 379 240 q 436 222 413 222 q 481 235 465 222 q 505 267 497 247 q 516 312 513 288 q 524 360 519 336 m 843 271 l 540 406 l 635 663 q 805 644 721 654 q 974 624 889 633 l 843 271 m 675 829 q 692 894 675 864 q 735 944 708 924 q 794 977 761 965 q 860 989 826 989 q 917 981 889 989 q 967 956 944 972 q 1004 916 990 940 q 1018 860 1018 892 q 1001 790 1018 821 q 956 737 983 758 q 892 703 928 715 q 821 692 857 692 q 767 703 793 692 q 720 733 740 714 q 688 776 700 751 q 675 829 675 801 m 238 890 q 256 956 238 926 q 302 1006 274 985 q 365 1038 331 1026 q 432 1049 399 1049 q 485 1038 458 1049 q 535 1010 513 1028 q 570 967 557 992 q 583 914 583 943 q 567 848 583 878 q 523 797 550 818 q 463 763 496 775 q 396 750 429 750 q 338 760 367 750 q 288 788 310 769 q 251 833 265 807 q 238 890 238 858 z "},"†":{"ha":825,"x_min":113,"x_max":944,"o":"m 544 172 l 486 -125 l 165 -125 l 240 246 l 544 172 m 269 308 l 319 436 l 113 465 q 163 596 138 532 q 211 726 188 660 l 418 699 l 489 890 l 811 847 l 736 656 l 944 626 l 844 367 l 639 394 q 599 295 619 344 q 561 196 579 246 l 269 308 z "},"°":{"ha":731,"x_min":86,"x_max":743,"o":"m 743 583 q 716 459 743 514 q 644 366 689 404 q 539 308 599 328 q 414 288 479 288 q 290 308 349 288 q 185 366 231 328 q 113 459 140 404 q 86 583 86 514 q 113 706 86 651 q 186 799 140 761 q 291 858 232 838 q 414 878 350 878 q 538 858 478 878 q 643 799 597 838 q 716 706 689 761 q 743 583 743 651 m 540 583 q 505 672 540 642 q 414 701 469 701 q 323 672 358 701 q 288 583 288 642 q 322 494 288 525 q 414 464 357 464 q 506 494 471 464 q 540 583 540 525 z "},"¢":{"ha":767,"x_min":49,"x_max":832,"o":"m 361 440 q 357 410 358 425 q 356 379 356 394 q 369 324 356 343 q 419 306 382 306 q 474 332 454 306 q 507 386 494 358 q 626 344 568 367 q 746 303 685 322 q 653 185 710 232 q 525 108 597 138 l 503 0 l 175 0 l 201 128 q 87 224 125 163 q 49 368 49 285 q 61 482 49 425 l 361 440 m 108 538 q 215 690 144 629 q 381 771 286 750 l 413 889 l 740 867 l 704 739 q 801 645 774 703 q 832 513 828 588 q 703 501 767 506 q 574 492 639 497 q 565 491 569 492 q 556 490 560 490 q 557 506 557 499 q 557 522 557 514 q 546 570 557 553 q 503 588 535 588 q 464 577 481 588 q 435 550 447 567 q 415 514 422 533 q 401 476 407 494 l 108 538 z "},"£":{"ha":958,"x_min":-22,"x_max":1118,"o":"m 240 576 q 218 638 229 608 q 207 701 207 667 q 215 732 207 713 q 231 761 224 751 q 294 828 256 801 q 379 870 333 854 q 473 892 425 886 q 565 899 521 899 q 704 888 629 899 q 853 857 779 878 q 997 806 928 836 q 1118 739 1065 776 l 940 540 q 866 583 907 561 q 781 621 825 604 q 694 649 738 638 q 611 660 650 660 q 591 659 603 660 q 567 656 579 658 q 548 646 556 653 q 540 626 540 639 q 553 582 540 604 q 574 539 567 560 l 782 524 l 758 440 l 240 576 m 708 415 l 688 313 l 499 313 q 458 265 481 286 q 411 226 436 244 l 893 226 l 849 0 l -22 0 q -6 88 -12 44 q 11 176 1 132 q 101 232 60 199 q 168 313 143 265 l 61 313 l 101 517 q 124 517 111 517 q 147 518 136 518 q 158 518 153 518 q 168 517 164 518 l 708 415 z "},"§":{"ha":997,"x_min":50,"x_max":1035,"o":"m 651 244 q 670 262 663 251 q 678 286 678 272 q 660 314 678 300 q 615 341 643 328 q 553 367 588 354 q 487 392 519 381 q 427 412 454 403 q 386 428 400 421 l 969 350 l 969 342 q 953 261 969 296 q 911 201 938 226 q 849 156 885 175 q 775 122 814 136 q 789 54 789 93 q 759 -66 789 -17 q 681 -146 729 -115 q 573 -190 633 -176 q 451 -204 513 -204 q 243 -179 344 -204 q 50 -96 142 -154 l 186 83 q 313 24 244 50 q 449 -1 381 -1 q 480 3 467 -1 q 493 29 493 8 q 460 59 493 44 q 379 90 428 74 q 274 128 331 107 q 168 177 217 149 q 87 243 119 206 q 54 331 54 281 q 65 403 54 368 q 103 465 76 438 l 374 429 q 356 410 365 421 q 346 386 346 399 q 363 359 346 372 q 408 333 381 346 q 469 307 436 319 q 535 283 503 294 q 595 263 568 272 q 636 244 622 253 l 651 244 m 996 374 q 575 457 785 414 q 154 542 365 500 q 218 580 182 567 q 290 603 254 593 q 282 657 282 629 q 314 773 282 725 q 396 851 346 821 q 506 897 446 882 q 625 911 567 911 q 731 901 676 911 q 840 874 786 892 q 944 831 894 856 q 1035 775 994 806 q 958 691 997 732 q 882 607 919 650 q 824 642 857 624 q 755 674 790 660 q 683 699 719 689 q 617 708 647 708 q 590 701 601 708 q 579 678 579 694 q 609 649 579 664 q 683 616 639 635 q 781 574 728 597 q 881 521 835 550 q 959 455 926 492 q 996 374 992 418 z "},"•":{"ha":882,"x_min":75,"x_max":885,"o":"m 107 594 q 259 790 156 721 q 497 858 363 858 q 638 835 568 858 q 762 769 707 813 q 851 663 817 725 q 885 524 885 601 l 883 506 l 107 594 m 864 489 l 864 467 q 829 315 864 383 q 737 199 794 247 q 605 125 679 151 q 451 99 531 99 q 310 123 378 99 q 190 192 242 147 q 106 299 138 236 q 75 440 75 363 q 75 461 75 451 q 76 482 75 471 l 864 489 z "},"¶":{"ha":1000,"x_min":88,"x_max":1132,"o":"m 674 393 l 124 601 q 157 738 125 679 q 241 835 189 796 q 359 895 293 875 q 496 915 425 915 q 572 911 535 915 l 1132 849 l 939 293 q 851 326 894 308 q 764 360 808 343 l 890 715 l 790 726 l 674 393 m 88 489 q 372 418 231 454 q 657 347 514 382 l 542 -232 l 354 -232 l 454 274 q 336 281 396 274 q 225 313 276 289 q 136 378 174 336 q 88 489 99 419 m 754 321 l 932 278 l 832 -232 l 644 -232 l 754 321 z "},"ß":{"ha":904,"x_min":-56,"x_max":946,"o":"m 442 528 l 128 629 l 139 667 q 272 876 181 810 q 514 942 363 942 q 592 938 547 942 q 684 926 636 935 q 779 901 732 917 q 863 860 826 885 q 923 803 900 836 q 946 724 946 769 q 930 647 946 681 q 888 589 914 614 q 826 547 861 564 q 754 519 792 529 q 823 465 793 500 q 868 390 853 431 q 689 448 778 418 q 510 507 600 478 l 542 601 l 557 601 q 618 629 597 601 q 639 694 639 657 q 617 735 639 724 q 569 746 594 746 q 517 720 538 746 q 481 660 496 694 q 458 588 467 625 q 442 528 449 550 m 97 532 q 260 499 179 517 q 422 464 340 481 l 303 -137 l -56 -237 l 97 532 m 556 307 q 533 356 556 343 q 478 371 510 369 l 493 447 l 871 367 q 875 343 874 356 q 876 319 876 331 q 833 156 876 218 q 722 58 790 93 q 570 12 654 24 q 404 0 486 0 l 443 199 q 527 224 499 199 q 556 307 556 250 z "},"®":{"ha":1161,"x_min":92,"x_max":1163,"o":"m 1047 290 q 1059 332 1053 313 q 1070 371 1065 351 q 1078 410 1075 390 q 1082 454 1082 431 q 1045 620 1082 550 q 947 735 1008 690 q 805 803 885 781 q 638 825 725 825 q 549 819 597 825 q 455 799 501 813 q 367 763 408 786 q 299 707 325 740 l 235 744 l 268 775 l 267 775 q 443 870 346 840 q 640 900 540 900 q 834 871 740 900 q 1001 785 928 842 q 1118 647 1074 729 q 1163 456 1163 564 q 1151 356 1163 406 q 1114 261 1140 306 l 1047 290 m 1082 222 q 995 117 1047 161 q 881 43 943 72 q 749 0 818 14 q 613 -14 679 -14 q 419 15 513 -14 q 252 99 325 43 q 135 239 179 156 q 92 431 92 322 q 117 580 92 513 q 196 710 143 647 q 228 692 213 701 q 260 674 244 683 q 192 562 211 625 q 172 432 172 499 q 209 266 172 336 q 307 151 246 196 q 449 83 368 106 q 615 61 529 61 q 730 71 671 61 q 843 103 789 81 q 942 163 897 126 q 1014 253 986 200 l 1082 222 m 625 449 q 653 452 638 449 q 676 468 668 456 q 746 441 711 456 q 815 413 781 426 q 785 390 801 399 q 751 372 768 381 q 785 293 768 332 q 818 215 801 254 l 625 215 l 585 346 l 574 346 l 546 215 l 371 215 l 440 563 q 522 531 482 547 q 603 499 561 514 l 592 449 l 625 449 m 621 533 l 469 618 q 482 649 476 633 q 493 679 488 664 l 726 649 q 777 638 750 646 q 826 617 804 631 q 861 583 847 604 q 875 532 875 561 q 861 469 875 499 q 824 419 847 440 q 757 457 790 439 q 690 494 724 475 q 696 505 693 500 q 699 515 699 510 q 691 535 699 528 q 672 547 683 543 q 649 553 661 551 q 629 556 638 554 l 621 533 z "},"©":{"ha":1161,"x_min":92,"x_max":1163,"o":"m 1047 290 q 1059 332 1053 313 q 1070 371 1065 351 q 1078 410 1075 390 q 1082 454 1082 431 q 1045 620 1082 550 q 947 735 1008 690 q 805 803 885 781 q 638 825 725 825 q 549 819 597 825 q 455 799 501 813 q 367 763 408 786 q 299 707 325 740 l 235 744 l 268 775 l 267 775 q 443 870 346 840 q 640 900 540 900 q 834 871 740 900 q 1001 785 928 842 q 1118 647 1074 729 q 1163 456 1163 564 q 1151 356 1163 406 q 1114 261 1140 306 l 1047 290 m 1082 222 q 995 117 1047 161 q 881 43 943 72 q 749 0 818 14 q 613 -14 679 -14 q 419 15 513 -14 q 252 99 325 43 q 135 239 179 156 q 92 431 92 322 q 117 580 92 513 q 196 710 143 647 q 228 692 213 701 q 260 674 244 683 q 192 562 211 625 q 172 432 172 499 q 209 266 172 336 q 307 151 246 196 q 449 83 368 106 q 615 61 529 61 q 730 71 671 61 q 843 103 789 81 q 942 163 897 126 q 1014 253 986 200 l 1082 222 m 582 475 q 574 456 578 468 q 569 432 571 444 q 567 408 568 419 q 567 390 567 396 q 576 353 567 365 q 611 342 586 342 q 649 358 633 342 q 674 393 665 374 q 762 365 718 378 q 850 338 806 351 q 748 235 811 271 q 607 199 685 199 q 515 208 561 199 q 430 240 468 218 q 369 301 392 263 q 346 393 346 339 q 355 472 346 433 q 383 544 364 510 l 582 475 m 418 608 q 506 662 456 644 q 610 679 557 679 q 703 669 654 679 q 792 635 751 658 q 858 574 832 611 q 883 483 883 536 q 882 461 883 472 q 879 438 881 450 l 676 456 q 682 476 679 465 q 685 497 685 486 q 673 524 685 514 q 644 533 661 533 q 614 522 626 533 q 590 499 601 511 l 418 608 z "},"™":{"ha":1444,"x_min":0,"x_max":1433,"o":"m 1411 -39 q 1403 -40 1408 -40 q 1380 -30 1390 -40 q 1367 -8 1369 -19 q 1365 3 1365 -4 q 1370 22 1365 13 q 1385 33 1375 31 q 1394 35 1388 35 q 1418 26 1407 35 q 1432 4 1429 17 q 1433 -7 1433 0 q 1428 -27 1433 -18 q 1411 -39 1422 -36 m 1397 58 q 1389 57 1394 57 q 1365 66 1375 57 q 1350 88 1354 75 q 1349 101 1349 92 q 1353 119 1349 111 q 1368 129 1357 126 q 1379 131 1372 131 q 1403 121 1393 131 q 1417 99 1413 111 q 1417 95 1417 96 q 1418 92 1418 94 q 1412 71 1418 81 q 1397 58 1406 61 m 863 513 l 1003 656 q 1092 636 1047 646 q 1182 615 1138 626 q 1270 594 1226 604 q 1361 572 1314 583 l 1310 175 l 1067 358 l 1072 379 l 1047 382 l 1043 376 l 863 513 m 1307 153 q 1323 59 1315 106 q 1338 -33 1331 13 q 1352 -126 1344 -79 q 1368 -219 1360 -172 l 1044 -219 l 1038 -128 l 800 -128 q 788 -151 793 -139 q 779 -174 783 -162 l 754 -219 l 436 -219 l 771 383 l 985 292 q 963 234 974 263 q 942 178 953 206 q 919 124 931 150 q 894 69 908 97 l 1018 69 q 1017 101 1018 85 q 1017 133 1017 118 q 1015 165 1015 149 q 1015 199 1015 181 l 1015 238 q 1015 258 1015 249 q 1017 276 1015 267 l 1307 153 m 304 871 l 344 975 l 371 958 l 304 871 m 303 869 l 199 732 l 0 857 l 63 1021 l 303 869 m 410 919 l 474 860 l 439 799 l 1103 288 l 318 590 l 274 510 l 181 597 l 236 696 l 204 725 l 410 919 z "},"´":{"ha":694,"x_min":297,"x_max":938,"o":"m 540 721 q 419 751 479 736 q 297 778 360 765 l 544 985 l 938 892 l 540 721 z "},"¨":{"ha":694,"x_min":78,"x_max":858,"o":"m 515 829 q 532 894 515 864 q 575 944 549 924 q 634 977 601 965 q 700 989 667 989 q 757 981 729 989 q 808 956 785 972 q 844 916 831 940 q 858 860 858 892 q 841 790 858 821 q 796 737 824 758 q 733 703 768 715 q 661 692 697 692 q 607 703 633 692 q 560 733 581 714 q 528 776 540 751 q 515 829 515 801 m 78 890 q 96 956 78 926 q 142 1006 114 985 q 205 1038 171 1026 q 272 1049 239 1049 q 326 1038 299 1049 q 375 1010 353 1028 q 410 967 397 992 q 424 914 424 943 q 407 848 424 878 q 363 797 390 818 q 303 763 336 775 q 236 750 269 750 q 178 760 207 750 q 128 788 150 769 q 92 833 106 807 q 78 890 78 858 z "},"Æ":{"ha":1626,"x_min":-60,"x_max":1710,"o":"m 771 453 l 1422 369 l 1413 319 l 1089 319 l 1071 229 l 1529 229 l 1483 0 l 681 0 l 700 101 l 390 101 l 317 0 l -60 0 q 141 253 40 128 q 342 506 242 378 q 500 485 421 496 q 658 465 579 475 l 547 317 l 742 317 l 771 453 m 685 554 q 531 590 607 572 q 376 626 454 608 q 532 783 454 706 q 689 940 610 861 l 1710 839 l 1636 615 l 1183 661 l 1157 575 l 1476 542 q 1452 464 1464 503 q 1426 386 1440 425 l 786 531 l 846 706 l 824 711 q 766 641 796 675 q 706 574 736 607 l 706 575 l 685 554 z "},"Ø":{"ha":1056,"x_min":-71,"x_max":1229,"o":"m 679 439 l 681 446 q 1039 371 860 406 q 969 204 1019 276 q 849 83 919 132 q 694 10 779 35 q 517 -14 608 -14 q 422 -8 468 -14 q 328 8 375 -3 l 264 -64 l -71 -64 l 117 139 q 69 239 83 185 q 54 350 54 293 q 64 458 54 407 q 90 564 74 510 l 442 493 l 440 489 l 440 490 q 426 419 432 454 q 421 346 421 383 q 443 261 421 294 q 521 228 465 228 q 590 249 563 228 q 636 301 618 269 q 665 371 654 333 q 679 439 675 408 l 679 439 m 604 676 q 518 642 553 676 q 464 563 483 607 l 125 665 q 202 775 151 728 q 316 854 253 822 q 449 902 379 886 q 582 918 518 918 q 706 908 646 918 q 826 879 765 897 l 897 944 l 1229 913 l 1025 731 q 1060 648 1049 692 q 1071 560 1071 604 q 1064 473 1071 521 q 1043 389 1057 425 q 869 441 956 414 q 694 493 782 468 q 706 576 706 535 q 604 676 706 676 z "},"¥":{"ha":1053,"x_min":68,"x_max":1232,"o":"m 938 254 l 911 118 l 665 118 l 640 0 l 293 0 l 315 118 l 68 118 l 115 351 l 307 351 q 363 348 338 351 q 413 340 389 344 q 461 329 436 335 q 517 319 486 324 l 938 254 m 342 426 q 272 686 307 557 q 201 946 238 815 l 600 904 q 612 793 606 849 q 618 682 618 738 q 617 642 618 663 q 610 603 615 622 l 636 599 q 729 744 676 675 q 836 879 782 813 l 1232 840 l 763 372 l 969 351 l 942 272 l 342 426 z "},"∫":{"ha":863,"x_min":25,"x_max":921,"o":"m 479 329 l 804 272 l 750 0 l 413 0 l 426 67 q 340 10 386 35 q 240 -14 293 -14 q 146 6 186 -14 q 78 61 106 26 q 38 141 51 96 q 25 236 25 186 q 30 321 25 279 q 49 403 35 363 q 200 378 125 392 q 351 351 275 364 q 342 303 344 328 q 340 254 340 279 q 358 201 340 217 q 413 186 376 186 q 451 196 433 186 l 479 329 m 524 475 q 458 493 496 493 q 429 484 443 493 q 404 462 415 475 q 384 434 393 449 q 369 408 375 419 l 75 489 q 126 570 96 532 q 195 638 157 608 q 278 683 233 667 q 372 700 322 700 q 478 678 433 700 q 565 614 522 656 l 583 668 l 921 638 q 865 463 893 550 q 808 288 836 375 l 492 376 l 524 475 z "},"ª":{"ha":689,"x_min":78,"x_max":708,"o":"m 393 347 l 400 388 q 314 352 360 369 q 224 335 268 335 q 117 372 156 335 q 78 478 78 408 q 94 563 78 526 q 140 623 111 599 q 209 659 169 647 q 294 671 249 671 q 374 665 335 671 q 453 649 414 660 q 457 678 457 663 q 445 708 457 697 q 416 722 433 718 q 380 726 399 726 q 347 726 361 726 q 275 724 311 726 q 203 713 239 721 l 189 853 q 308 872 249 867 q 429 878 368 878 q 520 874 471 878 q 611 853 569 869 q 681 804 653 836 q 708 717 708 772 q 701 633 708 681 q 683 533 693 585 q 660 433 672 482 q 642 347 649 385 l 393 347 m 433 553 q 406 558 419 556 q 378 561 393 561 q 318 503 318 561 q 335 472 318 479 q 371 465 351 465 q 394 468 383 465 q 418 471 406 471 l 433 553 z "},"æ":{"ha":1238,"x_min":-7,"x_max":1243,"o":"m -7 154 q 12 254 -7 208 q 65 333 31 300 q 147 384 99 365 q 257 403 196 403 l 264 403 l 893 257 l 750 257 q 778 202 760 221 q 822 174 797 183 q 877 164 847 165 q 939 163 907 163 q 1031 169 985 163 q 1121 189 1076 176 l 1164 24 q 1015 -7 1089 0 q 863 -14 940 -14 q 701 4 781 -14 q 550 67 621 22 q 386 8 468 29 q 214 -14 304 -14 q 131 -6 171 -14 q 60 20 90 1 q 11 72 29 39 q -7 154 -7 104 m 482 421 q 490 443 486 432 q 493 465 493 454 q 472 510 493 494 q 419 532 450 525 q 356 540 389 539 q 301 542 324 542 l 296 542 q 183 533 239 542 l 183 711 q 255 718 219 715 q 326 721 290 721 q 428 717 371 721 q 542 703 485 714 q 651 674 599 693 q 738 625 703 656 q 824 659 779 647 q 917 671 869 671 q 1038 656 979 671 q 1142 610 1096 642 q 1215 528 1188 578 q 1243 408 1243 479 q 1234 322 1243 368 q 1211 238 1225 275 q 1153 242 1185 240 q 1088 247 1121 244 q 1024 252 1056 249 q 967 263 992 256 q 851 296 913 276 q 725 338 789 315 q 599 381 661 360 q 482 421 536 403 m 365 269 q 313 247 332 269 q 293 193 293 225 q 313 154 293 164 q 357 144 332 144 q 390 148 374 144 q 424 154 407 151 l 440 246 q 406 265 429 260 q 365 269 382 269 m 981 407 l 982 426 q 958 484 982 468 q 896 500 935 500 q 828 477 854 500 q 789 417 803 454 l 965 400 l 981 407 z "},"ø":{"ha":842,"x_min":-65,"x_max":976,"o":"m 407 183 q 448 197 431 183 q 476 231 465 211 q 494 274 488 251 q 504 317 501 297 l 806 251 q 744 133 785 183 q 651 51 704 83 q 534 2 597 18 q 403 -14 471 -14 q 267 -1 333 -14 q 238 -33 251 -17 q 210 -64 225 -49 l -65 -64 l 81 96 q 39 174 53 132 q 25 260 25 215 q 31 340 25 300 q 51 417 36 379 q 201 384 126 401 q 353 351 276 367 q 344 302 347 328 q 340 251 340 276 q 356 199 340 215 q 407 183 371 183 m 468 506 q 438 497 451 506 q 412 476 424 489 q 391 447 400 463 q 376 419 382 432 l 89 517 q 236 659 144 613 q 438 706 328 706 q 539 696 490 706 q 638 672 588 686 q 669 699 654 685 q 701 726 685 713 l 976 697 l 810 557 q 844 432 844 500 q 836 349 844 396 q 813 268 828 303 q 666 318 738 292 q 519 369 594 344 q 530 410 525 386 q 535 450 535 433 q 515 493 535 481 q 468 506 496 506 z "},"¿":{"ha":844,"x_min":-6,"x_max":849,"o":"m 521 329 q 421 290 476 306 q 402 286 414 289 q 378 278 390 283 q 356 267 365 274 q 347 250 347 260 q 353 236 347 242 q 369 228 360 231 q 390 224 379 225 q 411 224 401 224 q 561 238 483 224 q 707 281 639 253 q 753 176 729 228 q 800 71 776 124 q 601 7 700 26 q 393 -12 501 -12 q 321 -10 363 -12 q 235 0 279 -7 q 147 21 190 7 q 70 56 104 35 q 15 110 36 78 q -6 185 -6 142 q 20 299 -6 256 q 87 370 46 342 q 179 418 128 399 q 281 463 231 438 l 521 329 m 849 710 q 831 647 849 675 q 787 598 814 618 q 727 567 760 578 q 663 556 694 556 q 590 564 631 556 q 513 590 549 572 q 453 637 478 608 q 429 706 429 665 q 447 774 429 744 q 493 825 465 804 q 556 856 521 846 q 626 867 592 867 q 699 858 660 867 q 771 829 738 849 q 826 781 804 810 q 849 710 849 751 m 338 513 q 373 527 358 518 q 399 556 388 536 l 700 496 q 639 400 679 443 q 543 338 599 357 l 338 513 z "},"¡":{"ha":500,"x_min":-31,"x_max":624,"o":"m 428 882 q 494 875 460 882 q 558 852 529 868 q 605 810 586 836 q 624 744 624 783 q 605 666 624 699 q 555 613 586 633 q 485 583 524 593 q 406 574 446 574 q 340 580 374 574 q 276 601 306 586 q 228 642 247 617 q 210 707 210 668 q 229 784 210 751 q 279 839 249 817 q 349 872 310 861 q 428 882 388 882 m 211 525 l 436 503 q 437 467 436 494 q 438 406 438 439 q 438 340 438 372 q 439 292 439 308 l 439 279 l 343 -14 l -31 22 l 64 313 l 61 311 l 211 525 z "},"√":{"ha":994,"x_min":29,"x_max":1174,"o":"m 528 485 l 818 881 q 996 860 907 869 q 1174 839 1085 850 l 813 407 l 528 485 m 796 381 l 558 0 l 210 0 l 29 449 l 385 449 q 406 373 393 413 q 418 294 418 333 l 418 286 l 443 283 q 468 344 456 314 q 496 404 481 375 l 496 403 q 501 412 499 407 q 506 422 503 417 l 796 381 z "},"ƒ":{"ha":636,"x_min":17,"x_max":797,"o":"m 139 342 l 182 451 q 138 457 160 454 q 94 463 117 460 l 169 660 l 256 650 q 293 738 272 696 q 344 810 314 779 q 416 860 375 842 q 511 879 457 879 q 657 861 581 879 q 797 815 733 843 q 766 732 782 774 q 733 650 750 690 q 697 665 718 660 q 658 669 676 669 q 613 651 629 669 q 590 604 597 632 q 648 597 619 601 q 706 589 676 592 l 631 392 l 524 407 l 460 229 l 139 342 m 453 214 l 385 -136 l 17 -237 q 69 22 43 -107 q 121 281 96 150 l 453 214 z "},"«":{"ha":1003,"x_min":36,"x_max":1076,"o":"m 515 368 l 725 660 q 901 644 813 651 q 1076 628 989 638 l 858 324 l 858 261 l 515 368 m 388 318 l 443 0 l 90 0 l 36 322 q 51 350 43 338 q 67 376 60 363 l 388 318 m 93 461 l 265 700 l 618 669 l 406 375 l 93 461 m 497 319 l 864 242 l 904 0 l 553 0 l 497 319 z "},"…":{"ha":1472,"x_min":10,"x_max":1433,"o":"m 428 208 q 410 117 428 158 q 363 47 393 76 q 292 2 333 18 q 201 -14 250 -14 q 131 -4 165 -14 q 69 25 96 6 q 26 74 42 44 q 10 144 10 104 q 12 179 10 163 q 21 213 14 196 l 428 208 m 921 208 q 903 117 921 158 q 856 47 886 76 q 785 2 826 18 q 694 -14 743 -14 q 624 -4 658 -14 q 562 25 589 6 q 519 74 535 44 q 503 144 503 104 q 514 213 503 176 l 921 208 m 1414 207 q 1397 118 1414 158 q 1349 49 1379 78 q 1278 3 1319 19 q 1189 -14 1236 -14 q 1117 -5 1151 -14 q 1056 24 1083 4 q 1013 73 1029 43 q 997 144 997 103 q 1006 207 997 175 l 1414 207 m 1031 254 q 1073 306 1053 283 q 1117 343 1093 328 q 1169 366 1140 358 q 1238 374 1199 374 q 1306 365 1271 374 q 1369 337 1340 356 q 1415 290 1397 318 q 1433 225 1433 263 l 1031 254 m 36 271 q 122 352 68 324 q 238 381 176 381 q 307 371 272 381 q 369 342 342 361 q 415 294 397 324 q 433 226 433 265 l 36 271 m 536 267 q 629 349 568 322 q 751 375 690 375 q 816 365 783 375 q 875 335 849 354 q 918 288 901 317 q 935 225 935 260 l 536 267 z "}," ":{"ha":243,"x_min":0,"x_max":0,"o":""},"À":{"ha":1056,"x_min":-42,"x_max":979,"o":"m 914 408 q 946 204 929 306 q 979 0 963 103 l 626 0 l 617 101 l 357 101 q 333 50 346 75 q 308 0 321 25 l -42 0 l 326 661 l 560 560 q 513 437 536 497 q 463 317 490 376 l 597 317 q 594 387 596 353 q 593 457 593 421 q 593 501 593 479 q 594 544 593 522 l 914 408 m 428 803 l 579 960 q 776 914 679 938 q 972 868 872 890 l 917 432 l 650 633 l 656 656 l 629 660 l 625 653 l 428 803 m 274 1310 l 665 1224 q 719 1081 693 1153 q 772 938 744 1008 l 532 988 l 274 1310 z "},"Ã":{"ha":1056,"x_min":-42,"x_max":1232,"o":"m 914 408 q 946 204 929 306 q 979 0 963 103 l 626 0 l 617 101 l 357 101 q 333 50 346 75 q 308 0 321 25 l -42 0 l 326 661 l 560 560 q 513 437 536 497 q 463 317 490 376 l 597 317 q 594 387 596 353 q 593 457 593 421 q 593 501 593 479 q 594 544 593 522 l 914 408 m 428 803 l 579 960 q 776 914 679 938 q 972 868 872 890 l 917 432 l 650 633 l 656 656 l 629 660 l 625 653 l 428 803 m 1232 1144 q 1188 1069 1213 1107 q 1133 1003 1164 1032 q 1065 956 1103 974 q 979 938 1026 938 q 878 957 921 938 q 802 999 835 976 q 745 1042 769 1022 q 700 1061 721 1061 q 666 1042 679 1061 q 644 1008 653 1024 l 422 1060 q 466 1134 442 1097 q 522 1200 490 1171 q 591 1247 553 1229 q 675 1265 629 1265 q 781 1246 738 1265 q 857 1203 825 1226 q 912 1161 889 1181 q 954 1142 935 1142 q 987 1160 974 1142 q 1008 1193 1000 1178 l 1232 1144 z "},"Õ":{"ha":1056,"x_min":54,"x_max":1097,"o":"m 525 228 q 588 248 561 228 q 633 298 615 268 q 663 363 651 328 q 678 428 674 399 l 1008 282 q 926 149 976 204 q 810 57 875 93 q 672 3 746 21 q 517 -14 597 -14 q 344 5 428 -14 q 197 67 261 24 q 93 179 132 110 q 54 350 54 249 q 75 514 54 433 q 143 664 96 594 l 456 525 q 422 344 422 439 q 446 260 422 293 q 525 228 469 228 m 628 688 q 558 663 588 688 q 507 608 528 639 l 221 782 q 392 895 296 860 q 596 931 488 931 q 767 911 679 931 q 928 849 856 892 q 1047 737 1000 806 q 1093 569 1093 668 q 1072 430 1093 501 q 1018 299 1050 358 l 708 489 q 723 537 717 513 q 729 586 729 561 q 702 661 729 635 q 628 688 675 688 m 1097 1142 q 1053 1067 1078 1104 q 999 1000 1029 1029 q 930 953 968 971 q 844 935 892 935 q 743 954 786 935 q 667 997 700 974 q 610 1039 635 1019 q 565 1058 586 1058 q 531 1040 544 1058 q 510 1006 518 1021 l 288 1057 q 331 1131 307 1094 q 387 1197 356 1168 q 456 1244 418 1226 q 540 1263 494 1263 q 647 1243 603 1263 q 722 1201 690 1224 q 777 1158 754 1178 q 819 1139 800 1139 q 852 1157 839 1139 q 874 1190 865 1175 l 1097 1142 z "},"Œ":{"ha":1543,"x_min":51,"x_max":1663,"o":"m 519 228 q 594 253 564 228 q 643 317 624 279 q 672 399 663 356 q 683 478 681 443 l 1381 358 l 1372 319 l 1072 319 l 1053 229 l 1489 229 l 1443 0 l 750 0 l 768 82 q 635 12 701 38 q 488 -14 568 -14 q 318 6 397 -14 q 179 68 239 25 q 85 181 119 111 q 51 350 51 250 q 62 467 51 408 q 96 579 72 525 l 447 517 q 425 433 431 476 q 419 346 419 390 q 442 261 419 294 q 519 228 464 228 m 601 700 q 524 673 557 700 q 472 608 492 646 q 301 654 386 631 q 131 699 217 678 q 322 883 204 824 q 583 943 440 943 q 778 913 683 943 q 949 814 874 882 q 963 857 956 836 q 978 900 971 878 l 1663 844 l 1596 619 l 1164 656 l 1136 567 l 1436 543 q 1410 458 1424 500 q 1385 375 1397 417 q 1042 463 1213 419 q 700 550 872 506 q 706 599 706 571 q 678 676 706 651 q 601 700 651 700 z "},"œ":{"ha":1279,"x_min":24,"x_max":1283,"o":"m 1022 400 l 1024 418 q 1001 477 1024 460 q 938 494 978 494 q 869 471 896 494 q 829 411 843 447 l 1006 394 l 1022 400 m 468 513 q 415 496 435 513 q 382 450 396 479 q 238 494 310 472 q 94 538 167 517 q 244 672 153 631 q 440 713 335 713 q 517 707 478 713 q 593 689 556 701 q 664 656 631 676 q 724 607 697 636 q 942 667 826 667 q 1066 653 1004 667 q 1176 608 1128 639 q 1253 526 1224 576 q 1283 403 1283 475 q 1275 317 1283 365 q 1253 233 1267 269 q 1133 242 1194 239 q 1015 257 1071 246 q 935 278 975 264 q 857 306 896 293 l 522 408 q 527 431 525 419 q 529 453 529 442 q 468 513 529 513 m 406 183 q 451 201 432 183 q 481 246 469 219 q 499 300 493 272 q 508 349 506 328 q 723 303 617 326 q 938 257 829 279 l 792 257 q 820 202 801 221 q 864 174 839 183 q 919 164 889 165 q 981 163 949 163 q 1073 169 1026 163 q 1164 189 1119 176 l 1206 24 q 1064 -6 1135 3 q 918 -14 993 -14 q 765 1 842 -14 q 622 57 689 15 q 388 -14 515 -14 q 254 -1 319 -14 q 138 44 189 13 q 55 128 86 75 q 24 260 24 181 q 32 353 24 307 q 60 442 40 399 l 357 379 q 342 316 346 349 q 338 251 338 283 q 353 199 338 215 q 406 183 369 183 z "},"–":{"ha":783,"x_min":46,"x_max":785,"o":"m 46 290 l 103 579 l 785 579 l 728 290 l 46 290 z "},"—":{"ha":919,"x_min":47,"x_max":924,"o":"m 47 290 l 104 579 l 924 579 l 867 290 l 47 290 z "},"“":{"ha":938,"x_min":21,"x_max":1068,"o":"m 907 460 l 521 492 l 840 913 q 954 903 899 907 q 1068 894 1010 899 l 907 460 m 407 425 l 21 460 l 342 881 q 456 871 400 875 q 569 863 511 867 l 407 425 z "},"”":{"ha":938,"x_min":50,"x_max":1096,"o":"m 761 457 q 647 469 703 464 q 532 482 590 475 l 711 914 q 903 891 807 903 q 1096 868 1000 879 l 761 457 m 275 465 l 50 493 l 228 925 q 420 901 324 913 q 613 878 517 890 l 275 465 z "},"‘":{"ha":500,"x_min":29,"x_max":603,"o":"m 429 425 q 229 447 329 438 q 29 468 129 457 l 361 885 l 603 858 l 429 425 z "},"’":{"ha":500,"x_min":57,"x_max":640,"o":"m 297 440 q 177 456 236 447 q 57 472 118 465 l 242 901 q 441 876 342 889 q 640 850 540 863 l 297 440 z "},"ÿ":{"ha":831,"x_min":44,"x_max":1000,"o":"m 478 365 q 606 334 546 347 q 732 308 667 321 l 407 -247 l 44 -247 l 183 -29 q 139 198 161 85 q 96 425 117 311 l 97 425 q 110 424 99 425 q 153 418 121 424 q 246 402 185 413 q 411 374 307 392 q 410 360 411 372 q 407 332 408 347 q 403 290 404 314 l 478 365 m 167 531 l 167 747 l 486 692 q 463 569 475 629 q 438 450 451 510 l 428 425 l 167 531 m 479 406 q 562 538 517 472 q 651 665 607 603 q 811 638 732 651 q 971 608 890 624 l 708 314 l 479 406 m 657 825 q 674 890 657 860 q 717 940 690 919 q 776 973 743 961 q 842 985 808 985 q 899 976 871 985 q 949 952 926 968 q 986 912 972 936 q 1000 856 1000 888 q 983 785 1000 817 q 938 733 965 754 q 874 699 910 711 q 803 688 839 688 q 749 699 775 688 q 702 728 722 710 q 669 772 682 747 q 657 825 657 797 m 219 886 q 238 951 219 922 q 284 1001 256 981 q 347 1033 313 1022 q 414 1044 381 1044 q 467 1034 440 1044 q 517 1006 494 1024 q 552 963 539 988 q 565 910 565 939 q 549 844 565 874 q 505 792 532 814 q 444 758 478 771 q 378 746 411 746 q 320 756 349 746 q 269 784 292 765 q 233 828 247 803 q 219 886 219 854 z "},"Ÿ":{"ha":1053,"x_min":225,"x_max":1286,"o":"m 313 679 l 265 957 q 463 924 365 942 q 660 892 560 907 q 662 838 661 864 q 663 785 663 813 q 660 685 663 736 q 646 589 657 635 l 669 585 q 774 725 717 660 q 892 854 832 790 l 1286 790 l 778 335 l 313 679 m 735 321 l 711 293 l 654 0 l 276 0 l 335 292 l 225 576 l 735 321 m 697 1039 q 714 1103 697 1074 q 757 1154 731 1133 q 816 1187 783 1175 q 882 1199 849 1199 q 939 1190 911 1199 q 990 1166 967 1182 q 1026 1126 1013 1150 q 1040 1069 1040 1101 q 1023 999 1040 1031 q 978 947 1006 968 q 915 913 950 925 q 843 901 879 901 q 789 913 815 901 q 742 942 763 924 q 710 986 722 961 q 697 1039 697 1011 m 260 1100 q 278 1165 260 1136 q 324 1215 296 1194 q 387 1247 353 1236 q 454 1258 421 1258 q 508 1248 481 1258 q 557 1219 535 1238 q 592 1177 579 1201 q 606 1124 606 1153 q 589 1058 606 1088 q 545 1006 572 1028 q 485 972 518 985 q 418 960 451 960 q 360 969 389 960 q 310 998 332 979 q 274 1042 288 1017 q 260 1100 260 1068 z "},"⁄":{"ha":731,"x_min":-181,"x_max":1011,"o":"m 319 588 l 653 868 q 832 845 743 857 q 1011 822 921 833 q 831 669 921 744 q 650 518 742 594 l 319 588 m 636 504 l 182 0 l -181 0 q 59 265 -58 133 q 299 531 176 397 l 636 504 z "},"‹":{"ha":547,"x_min":50,"x_max":643,"o":"m 64 303 l 64 371 l 293 665 l 643 619 l 410 324 q 411 255 410 289 q 413 186 413 221 l 64 303 m 413 168 l 443 0 l 90 0 q 70 120 81 61 q 50 240 60 179 l 413 168 z "},"›":{"ha":547,"x_min":-19,"x_max":561,"o":"m 210 349 l 154 664 l 507 664 l 561 343 l 503 239 l 210 349 m 449 206 l 332 0 l -19 0 l 156 311 l 449 206 z "},"‡":{"ha":825,"x_min":-6,"x_max":919,"o":"m 292 431 l 314 494 l 101 517 l 188 764 l 400 740 l 461 919 l 771 883 l 708 704 l 919 679 l 835 433 l 622 458 l 585 351 l 797 326 l 769 249 l 292 431 m 764 217 q 747 139 754 178 q 732 61 740 100 l 518 61 l 482 -125 l 171 -125 l 208 61 l -6 61 l 44 314 l 258 314 l 265 344 l 764 217 z "},"·":{"ha":500,"x_min":67,"x_max":486,"o":"m 83 528 q 113 585 90 560 q 164 626 135 610 q 226 652 193 643 q 289 661 260 661 q 363 648 326 661 q 426 611 399 635 q 469 554 453 588 q 486 481 486 521 l 83 528 m 475 460 q 457 377 475 414 q 410 315 439 340 q 342 276 381 290 q 261 263 303 263 q 121 315 175 263 q 67 454 67 367 l 67 460 l 475 460 z "},"‚":{"ha":500,"x_min":18,"x_max":490,"o":"m 260 -118 l 18 -97 l 90 349 l 490 314 l 260 -118 z "},"„":{"ha":938,"x_min":39,"x_max":908,"o":"m 725 -115 l 497 -115 l 497 333 l 908 333 l 725 -115 m 267 -115 l 39 -115 l 39 333 l 450 333 l 267 -115 z "},"Â":{"ha":1056,"x_min":-42,"x_max":1128,"o":"m 914 408 q 946 204 929 306 q 979 0 963 103 l 626 0 l 617 101 l 357 101 q 333 50 346 75 q 308 0 321 25 l -42 0 l 326 661 l 560 560 q 513 437 536 497 q 463 317 490 376 l 597 317 q 594 387 596 353 q 593 457 593 421 q 593 501 593 479 q 594 544 593 522 l 914 408 m 428 803 l 579 960 q 776 914 679 938 q 972 868 872 890 l 917 432 l 650 633 l 656 656 l 629 660 l 625 653 l 428 803 m 875 969 l 811 1067 l 686 990 q 558 1005 622 997 q 431 1019 494 1013 l 743 1247 l 993 1219 q 1061 1079 1028 1149 q 1128 939 1094 1010 l 875 969 z "},"Ê":{"ha":924,"x_min":0,"x_max":1107,"o":"m 664 319 l 424 319 l 404 229 l 863 229 l 818 0 l 0 0 l 118 593 l 664 319 m 201 717 l 306 957 l 1107 815 q 1060 709 1083 763 q 1013 601 1036 656 l 565 678 l 531 593 q 689 567 610 579 q 847 539 768 554 l 754 322 l 708 332 l 201 717 m 750 958 l 686 1056 l 561 979 q 433 994 497 986 q 306 1008 369 1001 l 618 1236 l 868 1208 q 936 1068 903 1138 q 1003 928 969 999 l 750 958 z "},"Á":{"ha":1056,"x_min":-42,"x_max":1282,"o":"m 914 408 q 946 204 929 306 q 979 0 963 103 l 626 0 l 617 101 l 357 101 q 333 50 346 75 q 308 0 321 25 l -42 0 l 326 661 l 560 560 q 513 437 536 497 q 463 317 490 376 l 597 317 q 594 387 596 353 q 593 457 593 421 q 593 501 593 479 q 594 544 593 522 l 914 408 m 428 803 l 579 960 q 776 914 679 938 q 972 868 872 890 l 917 432 l 650 633 l 656 656 l 629 660 l 625 653 l 428 803 m 885 932 q 764 962 824 947 q 642 989 704 976 l 889 1196 l 1282 1103 l 885 932 z "},"Ë":{"ha":924,"x_min":0,"x_max":1125,"o":"m 664 319 l 424 319 l 404 229 l 863 229 l 818 0 l 0 0 l 118 593 l 664 319 m 201 717 l 306 957 l 1107 815 q 1060 709 1083 763 q 1013 601 1036 656 l 565 678 l 531 593 q 689 567 610 579 q 847 539 768 554 l 754 322 l 708 332 l 201 717 m 782 1039 q 799 1103 782 1074 q 842 1154 815 1133 q 901 1187 868 1175 q 967 1199 933 1199 q 1024 1190 996 1199 q 1074 1166 1051 1182 q 1111 1126 1097 1150 q 1125 1069 1125 1101 q 1108 999 1125 1031 q 1063 947 1090 968 q 999 913 1035 925 q 928 901 964 901 q 874 913 900 901 q 827 942 847 924 q 794 986 807 961 q 782 1039 782 1011 m 344 1100 q 363 1165 344 1136 q 409 1215 381 1194 q 472 1247 438 1236 q 539 1258 506 1258 q 592 1248 565 1258 q 642 1219 619 1238 q 677 1177 664 1201 q 690 1124 690 1153 q 674 1058 690 1088 q 630 1006 657 1028 q 569 972 603 985 q 503 960 536 960 q 445 969 474 960 q 394 998 417 979 q 358 1042 372 1017 q 344 1100 344 1068 z "},"È":{"ha":924,"x_min":0,"x_max":1107,"o":"m 664 319 l 424 319 l 404 229 l 863 229 l 818 0 l 0 0 l 118 593 l 664 319 m 201 717 l 306 957 l 1107 815 q 1060 709 1083 763 q 1013 601 1036 656 l 565 678 l 531 593 q 689 567 610 579 q 847 539 768 554 l 754 322 l 708 332 l 201 717 m 235 1310 l 626 1224 q 680 1081 654 1153 q 733 938 706 1008 l 493 988 l 235 1310 z "},"Í":{"ha":506,"x_min":1,"x_max":961,"o":"m 465 429 l 379 0 l 1 0 l 122 600 l 465 429 m 186 690 q 243 803 214 747 q 300 917 272 858 l 669 835 q 572 642 621 738 q 474 450 522 546 l 186 690 m 564 925 q 443 955 503 940 q 321 982 383 969 l 568 1189 l 961 1096 l 564 925 z "},"Î":{"ha":506,"x_min":1,"x_max":782,"o":"m 465 429 l 379 0 l 1 0 l 122 600 l 465 429 m 186 690 q 243 803 214 747 q 300 917 272 858 l 669 835 q 572 642 621 738 q 474 450 522 546 l 186 690 m 529 958 l 465 1056 l 340 979 q 213 994 276 986 q 85 1008 149 1001 l 397 1236 l 647 1208 q 715 1068 682 1138 q 782 928 749 999 l 529 958 z "},"Ï":{"ha":506,"x_min":1,"x_max":793,"o":"m 465 429 l 379 0 l 1 0 l 122 600 l 465 429 m 186 690 q 243 803 214 747 q 300 917 272 858 l 669 835 q 572 642 621 738 q 474 450 522 546 l 186 690 m 450 1039 q 467 1103 450 1074 q 510 1154 483 1133 q 569 1187 536 1175 q 635 1199 601 1199 q 692 1190 664 1199 q 742 1166 719 1182 q 779 1126 765 1150 q 793 1069 793 1101 q 776 999 793 1031 q 731 947 758 968 q 667 913 703 925 q 596 901 632 901 q 542 913 568 901 q 495 942 515 924 q 463 986 475 961 q 450 1039 450 1011 m 13 1100 q 31 1165 13 1136 q 77 1215 49 1194 q 140 1247 106 1236 q 207 1258 174 1258 q 260 1248 233 1258 q 310 1219 288 1238 q 345 1177 332 1201 q 358 1124 358 1153 q 342 1058 358 1088 q 298 1006 325 1028 q 238 972 271 985 q 171 960 204 960 q 113 969 142 960 q 63 998 85 979 q 26 1042 40 1017 q 13 1100 13 1068 z "},"Ì":{"ha":506,"x_min":1,"x_max":669,"o":"m 465 429 l 379 0 l 1 0 l 122 600 l 465 429 m 186 690 q 243 803 214 747 q 300 917 272 858 l 669 835 q 572 642 621 738 q 474 450 522 546 l 186 690 m 106 1310 l 497 1224 q 551 1081 525 1153 q 604 938 576 1008 l 364 988 l 106 1310 z "},"Ó":{"ha":1056,"x_min":54,"x_max":1225,"o":"m 525 228 q 588 248 561 228 q 633 298 615 268 q 663 363 651 328 q 678 428 674 399 l 1008 282 q 926 149 976 204 q 810 57 875 93 q 672 3 746 21 q 517 -14 597 -14 q 344 5 428 -14 q 197 67 261 24 q 93 179 132 110 q 54 350 54 249 q 75 514 54 433 q 143 664 96 594 l 456 525 q 422 344 422 439 q 446 260 422 293 q 525 228 469 228 m 628 688 q 558 663 588 688 q 507 608 528 639 l 221 782 q 392 895 296 860 q 596 931 488 931 q 767 911 679 931 q 928 849 856 892 q 1047 737 1000 806 q 1093 569 1093 668 q 1072 430 1093 501 q 1018 299 1050 358 l 708 489 q 723 537 717 513 q 729 586 729 561 q 702 661 729 635 q 628 688 675 688 m 828 931 q 707 960 767 946 q 585 988 647 975 l 832 1194 l 1225 1101 l 828 931 z "},"Ô":{"ha":1056,"x_min":54,"x_max":1093,"o":"m 525 228 q 588 248 561 228 q 633 298 615 268 q 663 363 651 328 q 678 428 674 399 l 1008 282 q 926 149 976 204 q 810 57 875 93 q 672 3 746 21 q 517 -14 597 -14 q 344 5 428 -14 q 197 67 261 24 q 93 179 132 110 q 54 350 54 249 q 75 514 54 433 q 143 664 96 594 l 456 525 q 422 344 422 439 q 446 260 422 293 q 525 228 469 228 m 628 688 q 558 663 588 688 q 507 608 528 639 l 221 782 q 392 895 296 860 q 596 931 488 931 q 767 911 679 931 q 928 849 856 892 q 1047 737 1000 806 q 1093 569 1093 668 q 1072 430 1093 501 q 1018 299 1050 358 l 708 489 q 723 537 717 513 q 729 586 729 561 q 702 661 729 635 q 628 688 675 688 m 806 964 l 742 1061 l 617 985 q 489 999 553 992 q 361 1014 425 1007 l 674 1242 l 924 1214 q 992 1074 958 1143 q 1058 933 1025 1004 l 806 964 z "},"Ò":{"ha":1056,"x_min":54,"x_max":1093,"o":"m 525 228 q 588 248 561 228 q 633 298 615 268 q 663 363 651 328 q 678 428 674 399 l 1008 282 q 926 149 976 204 q 810 57 875 93 q 672 3 746 21 q 517 -14 597 -14 q 344 5 428 -14 q 197 67 261 24 q 93 179 132 110 q 54 350 54 249 q 75 514 54 433 q 143 664 96 594 l 456 525 q 422 344 422 439 q 446 260 422 293 q 525 228 469 228 m 628 688 q 558 663 588 688 q 507 608 528 639 l 221 782 q 392 895 296 860 q 596 931 488 931 q 767 911 679 931 q 928 849 856 892 q 1047 737 1000 806 q 1093 569 1093 668 q 1072 430 1093 501 q 1018 299 1050 358 l 708 489 q 723 537 717 513 q 729 586 729 561 q 702 661 729 635 q 628 688 675 688 m 271 1315 l 663 1229 q 716 1086 690 1158 q 769 943 742 1014 l 529 993 l 271 1315 z "},"Ú":{"ha":1044,"x_min":57,"x_max":1226,"o":"m 126 671 q 303 610 215 640 q 479 551 390 581 q 453 435 468 494 q 438 318 438 376 q 460 265 438 279 q 518 251 482 251 q 586 277 563 251 q 622 340 610 303 q 638 419 633 378 q 651 493 643 461 l 1004 375 l 1003 369 q 940 188 979 261 q 842 70 901 115 q 701 6 783 25 q 508 -14 619 -14 q 351 -5 431 -14 q 206 35 271 4 q 99 123 140 65 q 57 278 57 181 q 65 374 57 324 q 83 475 72 424 q 106 576 93 526 q 126 671 118 626 m 1010 396 l 681 567 q 748 735 713 651 q 815 903 783 818 l 1189 849 l 1010 396 m 524 646 q 359 731 440 688 q 194 815 278 774 q 228 900 210 858 q 263 985 246 942 q 449 956 356 969 q 635 929 542 943 l 524 646 m 829 925 q 708 955 768 940 q 586 982 649 969 l 833 1189 l 1226 1096 l 829 925 z "},"Û":{"ha":1044,"x_min":57,"x_max":1189,"o":"m 126 671 q 303 610 215 640 q 479 551 390 581 q 453 435 468 494 q 438 318 438 376 q 460 265 438 279 q 518 251 482 251 q 586 277 563 251 q 622 340 610 303 q 638 419 633 378 q 651 493 643 461 l 1004 375 l 1003 369 q 940 188 979 261 q 842 70 901 115 q 701 6 783 25 q 508 -14 619 -14 q 351 -5 431 -14 q 206 35 271 4 q 99 123 140 65 q 57 278 57 181 q 65 374 57 324 q 83 475 72 424 q 106 576 93 526 q 126 671 118 626 m 1010 396 l 681 567 q 748 735 713 651 q 815 903 783 818 l 1189 849 l 1010 396 m 524 646 q 359 731 440 688 q 194 815 278 774 q 228 900 210 858 q 263 985 246 942 q 449 956 356 969 q 635 929 542 943 l 524 646 m 800 958 l 736 1056 l 611 979 q 483 994 547 986 q 356 1008 419 1001 l 668 1236 l 918 1208 q 986 1068 953 1138 q 1053 928 1019 999 l 800 958 z "},"Ù":{"ha":1044,"x_min":57,"x_max":1189,"o":"m 126 671 q 303 610 215 640 q 479 551 390 581 q 453 435 468 494 q 438 318 438 376 q 460 265 438 279 q 518 251 482 251 q 586 277 563 251 q 622 340 610 303 q 638 419 633 378 q 651 493 643 461 l 1004 375 l 1003 369 q 940 188 979 261 q 842 70 901 115 q 701 6 783 25 q 508 -14 619 -14 q 351 -5 431 -14 q 206 35 271 4 q 99 123 140 65 q 57 278 57 181 q 65 374 57 324 q 83 475 72 424 q 106 576 93 526 q 126 671 118 626 m 1010 396 l 681 567 q 748 735 713 651 q 815 903 783 818 l 1189 849 l 1010 396 m 524 646 q 359 731 440 688 q 194 815 278 774 q 228 900 210 858 q 263 985 246 942 q 449 956 356 969 q 635 929 542 943 l 524 646 m 267 1310 l 658 1224 q 712 1081 686 1153 q 765 938 738 1008 l 525 988 l 267 1310 z "},"ı":{"ha":447,"x_min":-8,"x_max":513,"o":"m 133 607 l 179 703 l 513 635 q 469 540 492 586 q 424 447 446 494 l 133 607 m 417 429 l 332 0 l -8 0 q 45 265 18 133 q 99 531 72 397 l 417 429 z "},"ˆ":{"ha":694,"x_min":150,"x_max":847,"o":"m 594 754 l 531 851 l 406 775 q 278 790 342 782 q 150 804 214 797 l 463 1032 l 713 1004 q 781 864 747 933 q 847 724 814 794 l 594 754 z "},"˜":{"ha":694,"x_min":76,"x_max":886,"o":"m 886 932 q 842 857 867 894 q 788 790 818 819 q 719 743 757 761 q 633 725 681 725 q 532 744 575 725 q 456 787 489 764 q 399 829 424 810 q 354 849 375 849 q 320 830 333 849 q 299 796 307 811 l 76 847 q 120 922 96 885 q 176 988 144 958 q 245 1035 207 1017 q 329 1053 283 1053 q 435 1033 392 1053 q 511 991 479 1014 q 566 949 543 968 q 608 929 589 929 q 641 947 628 929 q 663 981 654 965 l 886 932 z "},"¯":{"ha":694,"x_min":394,"x_max":1043,"o":"m 394 825 q 441 919 418 872 q 488 1013 464 965 l 1043 883 l 950 697 l 394 825 z "},"˘":{"ha":694,"x_min":619,"x_max":1233,"o":"m 1233 935 q 1178 843 1208 885 q 1110 771 1149 801 q 1024 723 1071 740 q 918 706 976 706 q 799 718 853 706 q 704 759 744 731 q 642 835 664 788 q 619 954 619 883 q 619 974 619 964 q 621 993 619 983 l 824 974 q 851 908 825 926 q 922 889 878 889 q 986 906 958 889 q 1032 956 1014 924 l 1233 935 z "},"˙":{"ha":694,"x_min":281,"x_max":629,"o":"m 290 896 q 316 944 296 922 q 362 982 336 967 q 419 1007 388 997 q 501 1011 451 1017 q 590 969 550 1003 q 629 881 629 936 q 627 854 629 868 q 618 829 625 840 l 290 896 m 613 811 q 589 765 608 786 q 542 726 569 743 q 486 700 515 710 q 435 690 457 690 q 326 731 371 690 q 281 836 281 771 l 613 811 z "},"˚":{"ha":694,"x_min":558,"x_max":938,"o":"m 835 926 q 751 1011 835 1011 q 718 1007 735 1011 q 690 990 701 1003 l 675 971 l 576 997 q 641 1075 596 1046 q 751 1104 686 1104 q 820 1092 786 1104 q 880 1059 854 1081 q 922 1007 906 1038 q 938 939 938 976 q 936 917 938 928 q 932 896 935 907 l 835 926 m 921 858 q 849 778 896 806 q 744 750 803 750 q 675 762 708 750 q 616 795 642 774 q 574 847 590 817 q 558 915 558 878 q 564 964 558 943 q 613 949 589 957 q 663 935 638 942 q 661 915 661 928 q 686 861 661 879 q 744 843 711 843 q 791 853 769 843 q 824 888 813 863 l 921 858 z "},"¸":{"ha":694,"x_min":15,"x_max":443,"o":"m 226 -178 q 245 -176 235 -178 q 265 -172 256 -175 q 280 -161 274 -168 q 286 -143 286 -154 q 269 -119 286 -124 q 239 -115 253 -115 q 214 -119 226 -115 q 190 -128 201 -122 q 172 -115 181 -121 q 154 -103 164 -108 l 219 -14 l 297 -14 l 258 -69 q 296 -60 276 -65 q 335 -56 315 -56 q 372 -60 353 -56 q 407 -73 392 -64 q 433 -97 422 -82 q 443 -133 443 -111 q 425 -194 443 -171 q 379 -231 407 -218 q 319 -250 351 -244 q 257 -256 286 -256 l 226 -178 m 214 -268 q 111 -242 163 -260 q 15 -196 60 -224 l 69 -137 q 193 -189 128 -176 l 214 -268 z "},"˝":{"ha":694,"x_min":53,"x_max":1001,"o":"m 667 726 q 567 740 617 733 q 467 754 517 747 q 576 869 522 813 q 685 983 631 925 l 1001 944 l 667 726 m 253 754 q 153 767 203 760 q 53 781 103 774 q 162 896 108 839 q 271 1010 215 953 l 586 972 l 253 754 z "},"˛":{"ha":694,"x_min":97,"x_max":457,"o":"m 139 -224 q 108 -202 118 -218 q 97 -165 97 -186 q 111 -118 97 -140 q 145 -76 125 -96 q 188 -41 165 -57 q 231 -14 211 -25 l 354 -14 q 337 -35 347 -22 q 316 -61 326 -47 q 299 -90 306 -75 q 292 -115 292 -104 q 297 -133 292 -126 l 139 -224 m 315 -144 q 325 -147 321 -147 q 380 -137 354 -142 q 433 -121 406 -132 l 457 -185 q 342 -232 403 -215 q 219 -249 282 -249 q 174 -244 196 -249 l 315 -144 z "},"ˇ":{"ha":694,"x_min":194,"x_max":889,"o":"m 447 1008 l 504 908 l 635 981 q 762 960 699 971 q 889 939 825 950 q 726 831 807 885 q 564 725 646 778 l 315 765 l 194 1050 l 447 1008 z "},"Ð":{"ha":1054,"x_min":32,"x_max":1078,"o":"m 682 424 q 855 385 769 404 q 1028 346 940 365 q 947 189 1000 254 q 822 81 893 124 q 667 19 751 39 q 492 0 582 0 l 43 0 l 107 325 l 32 325 l 76 550 l 138 550 l 572 451 l 546 325 l 438 325 l 419 239 l 494 239 q 574 250 543 239 q 626 284 606 261 q 659 340 647 307 q 681 418 671 374 l 682 424 m 590 513 l 186 651 l 283 943 l 668 903 q 813 876 740 894 q 945 820 886 857 q 1041 725 1004 783 q 1078 579 1078 667 q 1066 469 1078 529 q 1035 361 1054 408 l 697 475 q 707 517 703 496 q 711 558 711 538 q 698 618 711 596 q 664 651 685 640 q 615 667 643 663 q 558 675 588 672 l 533 678 l 515 619 l 508 604 q 563 599 536 601 q 618 593 590 596 l 590 513 z "},"€":{"ha":938,"x_min":53,"x_max":1053,"o":"m 53 349 q 62 462 53 406 q 92 571 71 518 l 515 463 l 389 463 l 381 404 l 642 404 l 619 296 l 383 296 q 406 253 392 269 q 441 226 421 236 q 484 213 461 217 q 532 208 507 208 q 656 232 597 208 q 771 285 714 256 l 882 93 q 704 17 793 44 q 513 -11 615 -11 q 342 8 425 -11 q 195 69 260 26 q 92 180 131 111 q 53 349 53 249 m 600 482 q 372 566 486 524 q 142 650 258 608 q 328 835 213 775 q 586 896 444 896 q 847 848 728 896 q 1053 686 965 800 l 844 547 q 745 635 800 597 q 619 674 690 674 q 540 654 575 674 q 476 603 506 635 l 714 581 q 694 528 704 554 q 676 475 685 503 l 600 482 z "},"×":{"ha":936,"x_min":72,"x_max":922,"o":"m 274 531 l 142 700 q 263 776 203 738 q 383 853 322 814 l 528 669 l 742 801 l 922 568 l 708 436 q 738 398 724 417 q 767 360 751 379 l 274 531 m 72 265 l 250 424 l 786 335 l 865 263 l 656 76 l 479 231 l 297 68 l 72 265 z "},"Ă":{"ha":1056,"x_min":-42,"x_max":1219,"o":"m 914 408 q 946 204 929 306 q 979 0 963 103 l 626 0 l 617 101 l 357 101 q 333 50 346 75 q 308 0 321 25 l -42 0 l 326 661 l 560 560 q 513 437 536 497 q 463 317 490 376 l 597 317 q 594 387 596 353 q 593 457 593 421 q 593 501 593 479 q 594 544 593 522 l 914 408 m 428 803 l 579 960 q 776 914 679 938 q 972 868 872 890 l 917 432 l 650 633 l 656 656 l 629 660 l 625 653 l 428 803 m 1219 1151 q 1165 1060 1194 1101 q 1096 988 1135 1018 q 1010 940 1057 957 q 904 922 963 922 q 785 935 839 922 q 690 976 731 947 q 628 1052 650 1004 q 606 1171 606 1100 q 606 1190 606 1181 q 607 1210 606 1200 l 810 1190 q 838 1124 811 1143 q 908 1106 864 1106 q 972 1123 944 1106 q 1018 1172 1000 1140 l 1219 1151 z "},"Ā":{"ha":1056,"x_min":-42,"x_max":1129,"o":"m 914 408 q 946 204 929 306 q 979 0 963 103 l 626 0 l 617 101 l 357 101 q 333 50 346 75 q 308 0 321 25 l -42 0 l 326 661 l 560 560 q 513 437 536 497 q 463 317 490 376 l 597 317 q 594 387 596 353 q 593 457 593 421 q 593 501 593 479 q 594 544 593 522 l 914 408 m 428 803 l 579 960 q 776 914 679 938 q 972 868 872 890 l 917 432 l 650 633 l 656 656 l 629 660 l 625 653 l 428 803 m 481 1042 q 527 1135 504 1089 q 574 1229 550 1182 l 1129 1100 l 1036 914 l 481 1042 z "},"Ą":{"ha":1056,"x_min":-42,"x_max":1082,"o":"m 914 408 q 946 204 929 306 q 979 0 963 103 l 626 0 l 617 101 l 357 101 q 333 50 346 75 q 308 0 321 25 l -42 0 l 326 661 l 560 560 q 513 437 536 497 q 463 317 490 376 l 597 317 q 594 387 596 353 q 593 457 593 421 q 593 501 593 479 q 594 544 593 522 l 914 408 m 428 803 l 579 960 q 776 914 679 938 q 972 868 872 890 l 917 432 l 650 633 l 656 656 l 629 660 l 625 653 l 428 803 m 764 -210 q 733 -188 743 -204 q 722 -151 722 -172 q 736 -104 722 -126 q 770 -62 750 -82 q 813 -27 790 -43 q 856 0 836 -11 l 979 0 q 962 -21 972 -8 q 941 -47 951 -33 q 924 -76 931 -61 q 917 -101 917 -90 q 922 -119 917 -112 l 764 -210 m 940 -131 q 950 -133 946 -133 q 1005 -123 979 -128 q 1058 -107 1031 -118 l 1082 -171 q 967 -218 1028 -201 q 844 -235 907 -235 q 799 -231 821 -235 l 940 -131 z "},"Å":{"ha":1056,"x_min":-42,"x_max":1011,"o":"m 914 408 q 946 204 929 306 q 979 0 963 103 l 626 0 l 617 101 l 357 101 q 333 50 346 75 q 308 0 321 25 l -42 0 l 326 661 l 560 560 q 513 437 536 497 q 463 317 490 376 l 597 317 q 594 387 596 353 q 593 457 593 421 q 593 501 593 479 q 594 544 593 522 l 914 408 m 428 803 l 579 960 q 776 914 679 938 q 972 868 872 890 l 917 432 l 650 633 l 656 656 l 629 660 l 625 653 l 428 803 m 908 1143 q 825 1228 908 1228 q 792 1224 808 1228 q 764 1207 775 1219 l 749 1188 l 650 1214 q 715 1292 669 1263 q 825 1321 760 1321 q 894 1309 860 1321 q 953 1276 928 1297 q 995 1224 979 1254 q 1011 1156 1011 1193 q 1010 1134 1011 1144 q 1006 1113 1008 1124 l 908 1143 m 994 1075 q 923 994 969 1022 q 818 967 876 967 q 749 978 782 967 q 690 1012 715 990 q 648 1064 664 1033 q 632 1132 632 1094 q 638 1181 632 1160 q 687 1166 663 1174 q 736 1151 711 1158 q 735 1132 735 1144 q 760 1078 735 1096 q 818 1060 785 1060 q 865 1069 843 1060 q 897 1104 886 1079 l 994 1075 z "},"Ć":{"ha":974,"x_min":54,"x_max":1110,"o":"m 267 817 q 403 877 333 856 q 551 899 472 899 q 653 891 599 899 q 760 867 707 883 q 862 826 813 851 q 949 765 911 800 q 1008 685 986 731 q 1031 582 1031 639 q 1023 505 1031 543 q 1003 431 1015 467 l 665 467 q 688 524 678 494 q 699 585 699 554 q 674 635 699 618 q 619 651 650 651 q 563 635 588 651 q 515 600 539 619 l 513 597 l 506 592 l 267 817 m 460 532 q 431 440 440 488 q 422 343 422 392 q 426 300 422 321 q 441 263 431 279 q 469 236 451 246 q 511 226 486 226 q 559 238 538 226 q 598 268 581 250 q 628 309 615 286 q 651 353 642 332 l 949 242 q 773 48 879 110 q 518 -14 667 -14 q 347 5 431 -14 q 198 66 263 24 q 94 178 133 108 q 54 349 54 247 q 78 526 54 440 q 157 685 101 611 l 460 532 m 713 938 q 592 967 651 953 q 469 994 532 982 l 717 1201 l 1110 1108 l 713 938 z "},"Č":{"ha":974,"x_min":54,"x_max":1146,"o":"m 267 817 q 403 877 333 856 q 551 899 472 899 q 653 891 599 899 q 760 867 707 883 q 862 826 813 851 q 949 765 911 800 q 1008 685 986 731 q 1031 582 1031 639 q 1023 505 1031 543 q 1003 431 1015 467 l 665 467 q 688 524 678 494 q 699 585 699 554 q 674 635 699 618 q 619 651 650 651 q 563 635 588 651 q 515 600 539 619 l 513 597 l 506 592 l 267 817 m 460 532 q 431 440 440 488 q 422 343 422 392 q 426 300 422 321 q 441 263 431 279 q 469 236 451 246 q 511 226 486 226 q 559 238 538 226 q 598 268 581 250 q 628 309 615 286 q 651 353 642 332 l 949 242 q 773 48 879 110 q 518 -14 667 -14 q 347 5 431 -14 q 198 66 263 24 q 94 178 133 108 q 54 349 54 247 q 78 526 54 440 q 157 685 101 611 l 460 532 m 704 1235 l 761 1135 l 892 1207 q 1019 1187 956 1197 q 1146 1165 1082 1176 q 983 1058 1064 1111 q 821 951 903 1004 l 572 992 l 451 1276 l 704 1235 z "},"Ç":{"ha":974,"x_min":54,"x_max":1031,"o":"m 267 817 q 403 877 333 856 q 551 899 472 899 q 653 891 599 899 q 760 867 707 883 q 862 826 813 851 q 949 765 911 800 q 1008 685 986 731 q 1031 582 1031 639 q 1023 505 1031 543 q 1003 431 1015 467 l 665 467 q 688 524 678 494 q 699 585 699 554 q 674 635 699 618 q 619 651 650 651 q 563 635 588 651 q 515 600 539 619 l 513 597 l 506 592 l 267 817 m 460 532 q 431 440 440 488 q 422 343 422 392 q 426 300 422 321 q 441 263 431 279 q 469 236 451 246 q 511 226 486 226 q 559 238 538 226 q 598 268 581 250 q 628 309 615 286 q 651 353 642 332 l 949 242 q 773 48 879 110 q 518 -14 667 -14 q 347 5 431 -14 q 198 66 263 24 q 94 178 133 108 q 54 349 54 247 q 78 526 54 440 q 157 685 101 611 l 460 532 m 481 -178 q 499 -176 489 -178 q 519 -172 510 -175 q 534 -161 528 -168 q 540 -143 540 -154 q 524 -119 540 -124 q 493 -115 507 -115 q 468 -119 481 -115 q 444 -128 456 -122 q 426 -115 435 -121 q 408 -103 418 -108 l 474 -14 l 551 -14 l 513 -69 q 550 -60 531 -65 q 589 -56 569 -56 q 626 -60 607 -56 q 661 -73 646 -64 q 687 -97 676 -82 q 697 -133 697 -111 q 679 -194 697 -171 q 633 -231 661 -218 q 573 -250 606 -244 q 511 -256 540 -256 l 481 -178 m 468 -268 q 365 -242 417 -260 q 269 -196 314 -224 l 324 -137 q 447 -189 382 -176 l 468 -268 z "},"Ĉ":{"ha":974,"x_min":54,"x_max":1053,"o":"m 267 817 q 403 877 333 856 q 551 899 472 899 q 653 891 599 899 q 760 867 707 883 q 862 826 813 851 q 949 765 911 800 q 1008 685 986 731 q 1031 582 1031 639 q 1023 505 1031 543 q 1003 431 1015 467 l 665 467 q 688 524 678 494 q 699 585 699 554 q 674 635 699 618 q 619 651 650 651 q 563 635 588 651 q 515 600 539 619 l 513 597 l 506 592 l 267 817 m 460 532 q 431 440 440 488 q 422 343 422 392 q 426 300 422 321 q 441 263 431 279 q 469 236 451 246 q 511 226 486 226 q 559 238 538 226 q 598 268 581 250 q 628 309 615 286 q 651 353 642 332 l 949 242 q 773 48 879 110 q 518 -14 667 -14 q 347 5 431 -14 q 198 66 263 24 q 94 178 133 108 q 54 349 54 247 q 78 526 54 440 q 157 685 101 611 l 460 532 m 800 971 l 736 1068 l 611 992 q 483 1006 547 999 q 356 1021 419 1014 l 668 1249 l 918 1221 q 986 1081 953 1150 q 1053 940 1019 1011 l 800 971 z "},"Ċ":{"ha":974,"x_min":54,"x_max":1031,"o":"m 267 817 q 403 877 333 856 q 551 899 472 899 q 653 891 599 899 q 760 867 707 883 q 862 826 813 851 q 949 765 911 800 q 1008 685 986 731 q 1031 582 1031 639 q 1023 505 1031 543 q 1003 431 1015 467 l 665 467 q 688 524 678 494 q 699 585 699 554 q 674 635 699 618 q 619 651 650 651 q 563 635 588 651 q 515 600 539 619 l 513 597 l 506 592 l 267 817 m 460 532 q 431 440 440 488 q 422 343 422 392 q 426 300 422 321 q 441 263 431 279 q 469 236 451 246 q 511 226 486 226 q 559 238 538 226 q 598 268 581 250 q 628 309 615 286 q 651 353 642 332 l 949 242 q 773 48 879 110 q 518 -14 667 -14 q 347 5 431 -14 q 198 66 263 24 q 94 178 133 108 q 54 349 54 247 q 78 526 54 440 q 157 685 101 611 l 460 532 m 582 1131 q 608 1179 588 1157 q 653 1217 628 1201 q 711 1242 679 1232 q 793 1246 743 1251 q 881 1204 842 1238 q 921 1115 921 1171 q 919 1089 921 1103 q 910 1064 917 1075 l 582 1131 m 904 1046 q 881 999 900 1021 q 834 961 861 978 q 778 935 807 944 q 726 925 749 925 q 617 965 663 925 q 572 1071 572 1006 l 904 1046 z "},"Ď":{"ha":1013,"x_min":0,"x_max":1051,"o":"m 639 429 l 961 281 q 872 151 926 204 q 750 64 818 97 q 606 15 682 31 q 450 0 529 0 l 0 0 l 133 664 l 460 511 l 406 239 l 453 239 q 589 290 539 239 q 639 429 639 340 m 507 588 l 201 776 l 265 954 l 650 907 q 792 878 721 899 q 922 821 864 858 q 1015 726 979 783 q 1051 583 1051 668 q 1045 512 1051 550 q 1028 435 1039 474 q 1003 362 1018 397 q 971 297 988 326 l 671 485 q 681 524 678 504 q 685 565 685 544 q 673 621 685 599 q 640 656 661 643 q 593 673 619 668 q 538 678 567 678 l 507 588 m 590 1239 l 647 1139 l 778 1211 q 905 1191 842 1201 q 1032 1169 968 1181 q 869 1062 950 1115 q 707 956 789 1008 l 458 996 l 338 1281 l 590 1239 z "},"Đ":{"ha":1013,"x_min":-82,"x_max":1051,"o":"m 639 429 l 961 281 q 872 151 926 204 q 750 64 818 97 q 606 15 682 31 q 450 0 529 0 l 0 0 l 133 664 l 460 511 l 406 239 l 453 239 q 589 290 539 239 q 639 429 639 340 m 507 588 l 201 776 l 265 954 l 650 907 q 792 878 721 899 q 922 821 864 858 q 1015 726 979 783 q 1051 583 1051 668 q 1045 512 1051 550 q 1028 435 1039 474 q 1003 362 1018 397 q 971 297 988 326 l 671 485 q 681 524 678 504 q 685 565 685 544 q 673 621 685 599 q 640 656 661 643 q 593 673 619 668 q 538 678 567 678 l 507 588 m -82 414 q -35 508 -58 461 q 11 601 -12 554 l 567 472 l 474 286 l -82 414 z "},"Ĕ":{"ha":924,"x_min":0,"x_max":1129,"o":"m 664 319 l 424 319 l 404 229 l 863 229 l 818 0 l 0 0 l 118 593 l 664 319 m 201 717 l 306 957 l 1107 815 q 1060 709 1083 763 q 1013 601 1036 656 l 565 678 l 531 593 q 689 567 610 579 q 847 539 768 554 l 754 322 l 708 332 l 201 717 m 1129 1151 q 1074 1060 1104 1101 q 1006 988 1044 1018 q 919 940 967 957 q 814 922 872 922 q 694 935 749 922 q 600 976 640 947 q 538 1052 560 1004 q 515 1171 515 1100 q 515 1190 515 1181 q 517 1210 515 1200 l 719 1190 q 747 1124 721 1143 q 818 1106 774 1106 q 882 1123 854 1106 q 928 1172 910 1140 l 1129 1151 z "},"Ě":{"ha":924,"x_min":0,"x_max":1164,"o":"m 664 319 l 424 319 l 404 229 l 863 229 l 818 0 l 0 0 l 118 593 l 664 319 m 201 717 l 306 957 l 1107 815 q 1060 709 1083 763 q 1013 601 1036 656 l 565 678 l 531 593 q 689 567 610 579 q 847 539 768 554 l 754 322 l 708 332 l 201 717 m 722 1225 l 779 1125 l 910 1197 q 1037 1177 974 1188 q 1164 1156 1100 1167 q 1001 1048 1082 1101 q 839 942 921 994 l 590 982 l 469 1267 l 722 1225 z "},"Ė":{"ha":924,"x_min":0,"x_max":1107,"o":"m 664 319 l 424 319 l 404 229 l 863 229 l 818 0 l 0 0 l 118 593 l 664 319 m 201 717 l 306 957 l 1107 815 q 1060 709 1083 763 q 1013 601 1036 656 l 565 678 l 531 593 q 689 567 610 579 q 847 539 768 554 l 754 322 l 708 332 l 201 717 m 593 1149 q 619 1197 599 1175 q 665 1235 639 1219 q 722 1260 690 1250 q 804 1264 754 1269 q 892 1222 853 1256 q 932 1133 932 1189 q 930 1107 932 1121 q 921 1082 928 1093 l 593 1149 m 915 1064 q 892 1017 911 1039 q 845 979 872 996 q 789 953 818 963 q 738 943 760 943 q 628 983 674 943 q 583 1089 583 1024 l 915 1064 z "},"Ē":{"ha":924,"x_min":0,"x_max":1107,"o":"m 664 319 l 424 319 l 404 229 l 863 229 l 818 0 l 0 0 l 118 593 l 664 319 m 201 717 l 306 957 l 1107 815 q 1060 709 1083 763 q 1013 601 1036 656 l 565 678 l 531 593 q 689 567 610 579 q 847 539 768 554 l 754 322 l 708 332 l 201 717 m 426 1042 q 473 1135 450 1089 q 519 1229 496 1182 l 1075 1100 l 982 914 l 426 1042 z "},"Ę":{"ha":924,"x_min":0,"x_max":1107,"o":"m 664 319 l 424 319 l 404 229 l 863 229 l 818 0 l 0 0 l 118 593 l 664 319 m 201 717 l 306 957 l 1107 815 q 1060 709 1083 763 q 1013 601 1036 656 l 565 678 l 531 593 q 689 567 610 579 q 847 539 768 554 l 754 322 l 708 332 l 201 717 m 603 -210 q 572 -188 582 -204 q 561 -151 561 -172 q 575 -104 561 -126 q 609 -62 589 -82 q 652 -27 629 -43 q 694 0 675 -11 l 818 0 q 801 -21 811 -8 q 780 -47 790 -33 q 763 -76 769 -61 q 756 -101 756 -90 q 761 -119 756 -112 l 603 -210 m 779 -131 q 789 -133 785 -133 q 844 -123 818 -128 q 897 -107 869 -118 l 921 -171 q 806 -218 867 -201 q 683 -235 746 -235 q 638 -231 660 -235 l 779 -131 z "},"Ğ":{"ha":1047,"x_min":54,"x_max":1099,"o":"m 636 689 q 583 677 607 689 q 540 647 558 665 q 506 603 521 628 q 481 554 490 579 q 334 644 406 599 q 188 733 263 689 q 372 878 264 831 q 601 925 479 925 q 776 908 689 925 q 935 852 864 892 q 1051 744 1006 813 q 1099 575 1096 676 q 932 564 1015 568 q 765 553 849 560 q 732 651 765 613 q 636 689 699 689 m 1064 435 q 1029 341 1049 388 q 983 251 1010 294 l 590 488 l 608 533 q 844 505 726 519 q 1079 476 961 490 l 1064 435 m 556 421 q 765 328 661 376 q 972 235 868 281 q 892 117 939 164 q 789 40 846 69 q 665 -1 732 11 q 524 -14 597 -14 q 349 6 433 -14 q 199 69 264 25 q 94 183 133 113 q 54 357 54 254 q 68 490 54 424 q 113 617 82 556 l 433 475 q 419 339 419 411 q 446 246 419 278 q 535 214 472 214 q 611 241 583 214 q 656 310 639 268 l 532 310 l 556 421 m 1046 1197 q 991 1106 1021 1147 q 922 1033 961 1064 q 836 985 883 1003 q 731 968 789 968 q 611 981 665 968 q 517 1022 557 993 q 454 1098 476 1050 q 432 1217 432 1146 q 432 1236 432 1226 q 433 1256 432 1246 l 636 1236 q 664 1170 638 1189 q 735 1151 690 1151 q 799 1169 771 1151 q 844 1218 826 1186 l 1046 1197 z "},"Ĝ":{"ha":1047,"x_min":54,"x_max":1099,"o":"m 636 689 q 583 677 607 689 q 540 647 558 665 q 506 603 521 628 q 481 554 490 579 q 334 644 406 599 q 188 733 263 689 q 372 878 264 831 q 601 925 479 925 q 776 908 689 925 q 935 852 864 892 q 1051 744 1006 813 q 1099 575 1096 676 q 932 564 1015 568 q 765 553 849 560 q 732 651 765 613 q 636 689 699 689 m 1064 435 q 1029 341 1049 388 q 983 251 1010 294 l 590 488 l 608 533 q 844 505 726 519 q 1079 476 961 490 l 1064 435 m 556 421 q 765 328 661 376 q 972 235 868 281 q 892 117 939 164 q 789 40 846 69 q 665 -1 732 11 q 524 -14 597 -14 q 349 6 433 -14 q 199 69 264 25 q 94 183 133 113 q 54 357 54 254 q 68 490 54 424 q 113 617 82 556 l 433 475 q 419 339 419 411 q 446 246 419 278 q 535 214 472 214 q 611 241 583 214 q 656 310 639 268 l 532 310 l 556 421 m 801 971 l 738 1068 l 613 992 q 485 1006 549 999 q 357 1021 421 1014 l 669 1249 l 919 1221 q 988 1081 954 1150 q 1054 940 1021 1011 l 801 971 z "},"Ġ":{"ha":1047,"x_min":54,"x_max":1099,"o":"m 636 689 q 583 677 607 689 q 540 647 558 665 q 506 603 521 628 q 481 554 490 579 q 334 644 406 599 q 188 733 263 689 q 372 878 264 831 q 601 925 479 925 q 776 908 689 925 q 935 852 864 892 q 1051 744 1006 813 q 1099 575 1096 676 q 932 564 1015 568 q 765 553 849 560 q 732 651 765 613 q 636 689 699 689 m 1064 435 q 1029 341 1049 388 q 983 251 1010 294 l 590 488 l 608 533 q 844 505 726 519 q 1079 476 961 490 l 1064 435 m 556 421 q 765 328 661 376 q 972 235 868 281 q 892 117 939 164 q 789 40 846 69 q 665 -1 732 11 q 524 -14 597 -14 q 349 6 433 -14 q 199 69 264 25 q 94 183 133 113 q 54 357 54 254 q 68 490 54 424 q 113 617 82 556 l 433 475 q 419 339 419 411 q 446 246 419 278 q 535 214 472 214 q 611 241 583 214 q 656 310 639 268 l 532 310 l 556 421 m 632 1160 q 658 1208 638 1186 q 703 1246 678 1231 q 761 1271 729 1261 q 843 1275 793 1281 q 931 1233 892 1267 q 971 1144 971 1200 q 969 1118 971 1132 q 960 1093 967 1104 l 632 1160 m 954 1075 q 931 1028 950 1050 q 884 990 911 1007 q 828 964 857 974 q 776 954 799 954 q 667 994 713 954 q 622 1100 622 1035 l 954 1075 z "},"Ĥ":{"ha":1060,"x_min":0,"x_max":1182,"o":"m 528 643 l 196 810 l 251 960 l 625 915 l 528 643 m 550 633 l 707 614 l 807 894 l 1182 850 l 1021 394 l 550 633 m 1015 378 l 940 0 l 563 0 l 622 301 l 438 301 l 378 0 l 0 0 q 69 347 33 175 q 139 693 104 519 l 1015 378 m 835 971 l 771 1068 l 646 992 q 518 1006 582 999 q 390 1021 454 1014 l 703 1249 l 953 1221 q 1021 1081 988 1150 q 1088 940 1054 1011 l 835 971 z "},"Ĭ":{"ha":506,"x_min":1,"x_max":893,"o":"m 465 429 l 379 0 l 1 0 l 122 600 l 465 429 m 186 690 q 243 803 214 747 q 300 917 272 858 l 669 835 q 572 642 621 738 q 474 450 522 546 l 186 690 m 893 1151 q 838 1060 868 1101 q 769 988 808 1018 q 683 940 731 957 q 578 922 636 922 q 458 935 513 922 q 364 976 404 947 q 301 1052 324 1004 q 279 1171 279 1100 q 279 1190 279 1181 q 281 1210 279 1200 l 483 1190 q 511 1124 485 1143 q 582 1106 538 1106 q 646 1123 618 1106 q 692 1172 674 1140 l 893 1151 z "},"İ":{"ha":506,"x_min":1,"x_max":746,"o":"m 465 429 l 379 0 l 1 0 l 122 600 l 465 429 m 186 690 q 243 803 214 747 q 300 917 272 858 l 669 835 q 572 642 621 738 q 474 450 522 546 l 186 690 m 407 1113 q 433 1161 413 1139 q 478 1199 453 1183 q 536 1224 504 1214 q 618 1228 568 1233 q 706 1186 667 1219 q 746 1097 746 1153 q 744 1071 746 1085 q 735 1046 742 1057 l 407 1113 m 729 1028 q 706 981 725 1003 q 659 943 686 960 q 603 917 632 926 q 551 907 574 907 q 442 947 488 907 q 397 1053 397 988 l 729 1028 z "},"Ī":{"ha":506,"x_min":1,"x_max":885,"o":"m 465 429 l 379 0 l 1 0 l 122 600 l 465 429 m 186 690 q 243 803 214 747 q 300 917 272 858 l 669 835 q 572 642 621 738 q 474 450 522 546 l 186 690 m 236 1042 q 283 1135 260 1089 q 329 1229 306 1182 l 885 1100 l 792 914 l 236 1042 z "},"Į":{"ha":506,"x_min":1,"x_max":669,"o":"m 465 429 l 379 0 l 1 0 l 122 600 l 465 429 m 186 690 q 243 803 214 747 q 300 917 272 858 l 669 835 q 572 642 621 738 q 474 450 522 546 l 186 690 m 164 -210 q 133 -188 143 -204 q 122 -151 122 -172 q 136 -104 122 -126 q 170 -62 150 -82 q 213 -27 190 -43 q 256 0 236 -11 l 379 0 q 362 -21 372 -8 q 341 -47 351 -33 q 324 -76 331 -61 q 317 -101 317 -90 q 322 -119 317 -112 l 164 -210 m 340 -131 q 350 -133 346 -133 q 405 -123 379 -128 q 458 -107 431 -118 l 482 -171 q 367 -218 428 -201 q 244 -235 307 -235 q 199 -231 221 -235 l 340 -131 z "},"Ĩ":{"ha":506,"x_min":1,"x_max":957,"o":"m 465 429 l 379 0 l 1 0 l 122 600 l 465 429 m 186 690 q 243 803 214 747 q 300 917 272 858 l 669 835 q 572 642 621 738 q 474 450 522 546 l 186 690 m 957 1149 q 913 1074 938 1111 q 858 1007 889 1036 q 790 960 828 978 q 704 942 751 942 q 603 961 646 942 q 527 1003 560 981 q 470 1046 494 1026 q 425 1065 446 1065 q 391 1047 404 1065 q 369 1013 378 1028 l 147 1064 q 191 1138 167 1101 q 247 1204 215 1175 q 316 1251 278 1233 q 400 1269 354 1269 q 506 1250 463 1269 q 582 1208 550 1231 q 637 1165 614 1185 q 679 1146 660 1146 q 712 1164 699 1146 q 733 1197 725 1182 l 957 1149 z "},"Ĵ":{"ha":1000,"x_min":43,"x_max":1374,"o":"m 694 665 l 819 913 q 1003 872 913 893 q 1188 832 1094 851 l 975 400 l 694 665 m 965 381 q 808 81 932 176 q 481 -14 683 -14 q 304 4 385 -14 q 166 65 224 22 q 76 179 108 108 q 43 356 43 250 l 404 410 l 404 400 q 406 348 404 375 q 417 299 408 321 q 443 263 425 276 q 493 249 461 249 q 531 258 515 249 q 555 281 546 267 q 569 313 564 294 q 579 350 575 331 q 621 558 601 454 l 624 576 l 965 381 m 1121 971 l 1057 1068 l 932 992 q 804 1006 868 999 q 676 1021 740 1014 l 989 1249 l 1239 1221 q 1307 1081 1274 1150 q 1374 940 1340 1011 l 1121 971 z "},"Ĺ":{"ha":849,"x_min":1,"x_max":1069,"o":"m 185 753 q 248 850 217 801 q 311 947 279 899 q 490 888 401 918 q 669 828 579 857 q 583 697 626 761 q 496 568 540 633 l 185 753 m 486 551 l 431 267 l 799 267 l 747 0 l 1 0 q 63 313 32 157 q 125 625 94 468 l 486 551 m 672 938 q 551 967 611 953 q 429 994 492 982 l 676 1201 l 1069 1108 l 672 938 z "},"Ŏ":{"ha":1056,"x_min":54,"x_max":1093,"o":"m 525 228 q 588 248 561 228 q 633 298 615 268 q 663 363 651 328 q 678 428 674 399 l 1008 282 q 926 149 976 204 q 810 57 875 93 q 672 3 746 21 q 517 -14 597 -14 q 344 5 428 -14 q 197 67 261 24 q 93 179 132 110 q 54 350 54 249 q 75 514 54 433 q 143 664 96 594 l 456 525 q 422 344 422 439 q 446 260 422 293 q 525 228 469 228 m 628 688 q 558 663 588 688 q 507 608 528 639 l 221 782 q 392 895 296 860 q 596 931 488 931 q 767 911 679 931 q 928 849 856 892 q 1047 737 1000 806 q 1093 569 1093 668 q 1072 430 1093 501 q 1018 299 1050 358 l 708 489 q 723 537 717 513 q 729 586 729 561 q 702 661 729 635 q 628 688 675 688 m 1056 1193 q 1001 1101 1031 1143 q 932 1029 971 1060 q 846 981 893 999 q 740 964 799 964 q 621 976 675 964 q 526 1017 567 989 q 464 1094 486 1046 q 442 1213 442 1142 q 442 1232 442 1222 q 443 1251 442 1242 l 646 1232 q 674 1166 647 1185 q 744 1147 700 1147 q 808 1165 781 1147 q 854 1214 836 1182 l 1056 1193 z "},"Ľ":{"ha":849,"x_min":1,"x_max":1025,"o":"m 185 753 q 248 850 217 801 q 311 947 279 899 q 490 888 401 918 q 669 828 579 857 q 583 697 626 761 q 496 568 540 633 l 185 753 m 486 551 l 431 267 l 799 267 l 747 0 l 1 0 q 63 313 32 157 q 125 625 94 468 l 486 551 m 583 1193 l 640 1093 l 771 1165 q 898 1145 835 1156 q 1025 1124 961 1135 q 863 1016 943 1069 q 700 910 782 963 l 451 950 l 331 1235 l 583 1193 z "},"Ŀ":{"ha":849,"x_min":1,"x_max":817,"o":"m 185 753 q 248 850 217 801 q 311 947 279 899 q 490 888 401 918 q 669 828 579 857 q 583 697 626 761 q 496 568 540 633 l 185 753 m 486 551 l 431 267 l 799 267 l 747 0 l 1 0 q 63 313 32 157 q 125 625 94 468 l 486 551 m 554 506 q 573 544 559 527 q 607 571 588 560 q 648 587 626 582 q 688 593 669 593 q 736 585 713 593 q 778 561 760 576 q 806 524 795 545 q 817 476 817 502 l 554 506 m 810 462 q 798 408 810 432 q 767 368 786 384 q 723 343 748 352 q 670 334 697 334 q 579 368 614 334 q 543 458 543 401 l 543 462 l 810 462 z "},"Ń":{"ha":1044,"x_min":0,"x_max":1251,"o":"m 238 804 q 267 882 253 844 q 296 960 282 919 l 638 917 q 690 732 665 825 q 722 543 715 639 l 749 540 l 868 889 q 1040 869 954 879 q 1211 847 1125 858 q 1115 581 1164 713 q 1018 314 1067 449 l 238 804 m 982 296 l 924 0 l 592 0 q 549 93 571 46 q 507 189 528 140 q 469 286 486 238 q 440 385 451 335 l 414 385 q 383 192 401 288 q 346 0 365 96 l 0 0 l 135 685 l 982 296 m 854 938 q 733 967 793 953 q 611 994 674 982 l 858 1201 l 1251 1108 l 854 938 z "},"Ň":{"ha":1044,"x_min":0,"x_max":1211,"o":"m 238 804 q 267 882 253 844 q 296 960 282 919 l 638 917 q 690 732 665 825 q 722 543 715 639 l 749 540 l 868 889 q 1040 869 954 879 q 1211 847 1125 858 q 1115 581 1164 713 q 1018 314 1067 449 l 238 804 m 982 296 l 924 0 l 592 0 q 549 93 571 46 q 507 189 528 140 q 469 286 486 238 q 440 385 451 335 l 414 385 q 383 192 401 288 q 346 0 365 96 l 0 0 l 135 685 l 982 296 m 765 1225 l 822 1125 l 953 1197 q 1080 1177 1017 1188 q 1207 1156 1143 1167 q 1044 1048 1125 1101 q 882 942 964 994 l 633 982 l 513 1267 l 765 1225 z "},"Ő":{"ha":1056,"x_min":54,"x_max":1278,"o":"m 525 228 q 588 248 561 228 q 633 298 615 268 q 663 363 651 328 q 678 428 674 399 l 1008 282 q 926 149 976 204 q 810 57 875 93 q 672 3 746 21 q 517 -14 597 -14 q 344 5 428 -14 q 197 67 261 24 q 93 179 132 110 q 54 350 54 249 q 75 514 54 433 q 143 664 96 594 l 456 525 q 422 344 422 439 q 446 260 422 293 q 525 228 469 228 m 628 688 q 558 663 588 688 q 507 608 528 639 l 221 782 q 392 895 296 860 q 596 931 488 931 q 767 911 679 931 q 928 849 856 892 q 1047 737 1000 806 q 1093 569 1093 668 q 1072 430 1093 501 q 1018 299 1050 358 l 708 489 q 723 537 717 513 q 729 586 729 561 q 702 661 729 635 q 628 688 675 688 m 943 943 q 843 957 893 950 q 743 971 793 964 q 853 1085 799 1029 q 961 1200 907 1142 l 1278 1161 l 943 943 m 529 971 q 429 983 479 976 q 329 997 379 990 q 438 1113 385 1056 q 547 1226 492 1169 l 863 1189 l 529 971 z "},"Ō":{"ha":1056,"x_min":54,"x_max":1117,"o":"m 525 228 q 588 248 561 228 q 633 298 615 268 q 663 363 651 328 q 678 428 674 399 l 1008 282 q 926 149 976 204 q 810 57 875 93 q 672 3 746 21 q 517 -14 597 -14 q 344 5 428 -14 q 197 67 261 24 q 93 179 132 110 q 54 350 54 249 q 75 514 54 433 q 143 664 96 594 l 456 525 q 422 344 422 439 q 446 260 422 293 q 525 228 469 228 m 628 688 q 558 663 588 688 q 507 608 528 639 l 221 782 q 392 895 296 860 q 596 931 488 931 q 767 911 679 931 q 928 849 856 892 q 1047 737 1000 806 q 1093 569 1093 668 q 1072 430 1093 501 q 1018 299 1050 358 l 708 489 q 723 537 717 513 q 729 586 729 561 q 702 661 729 635 q 628 688 675 688 m 468 1042 q 515 1135 492 1089 q 561 1229 538 1182 l 1117 1100 l 1024 914 l 468 1042 z "},"Ǿ":{"ha":1115,"x_min":-71,"x_max":1229,"o":"m 767 938 q 646 967 706 953 q 524 994 586 982 l 771 1201 l 1164 1108 l 767 938 m 679 439 l 681 446 q 1039 371 860 406 q 969 204 1019 276 q 849 83 919 132 q 694 10 779 35 q 517 -14 608 -14 q 422 -8 468 -14 q 328 8 375 -3 l 264 -64 l -71 -64 l 117 139 q 69 239 83 185 q 54 350 54 293 q 64 458 54 407 q 90 564 74 510 l 442 493 l 440 489 l 440 490 q 426 419 432 454 q 421 346 421 383 q 443 261 421 294 q 521 228 465 228 q 590 249 563 228 q 636 301 618 269 q 665 371 654 333 q 679 439 675 408 l 679 439 m 604 676 q 518 642 553 676 q 464 563 483 607 l 125 665 q 202 775 151 728 q 316 854 253 822 q 449 902 379 886 q 582 918 518 918 q 706 908 646 918 q 826 879 765 897 l 897 944 l 1229 913 l 1025 731 q 1060 648 1049 692 q 1071 560 1071 604 q 1064 473 1071 521 q 1043 389 1057 425 q 869 441 956 414 q 694 493 782 468 q 706 576 706 535 q 604 676 706 676 z "},"Ŕ":{"ha":989,"x_min":0,"x_max":1079,"o":"m 522 481 q 581 488 550 481 q 628 522 613 496 q 772 465 700 494 q 915 406 843 435 q 852 360 886 379 q 783 322 818 340 q 851 160 817 240 q 921 0 886 81 l 524 0 l 442 269 l 417 269 l 360 0 l 0 0 l 143 717 q 310 650 228 685 q 476 583 393 615 l 456 481 l 522 481 m 515 657 l 204 831 q 229 894 218 863 q 251 957 240 925 l 731 894 q 837 872 782 888 q 936 829 892 857 q 1009 758 981 801 q 1038 651 1038 714 q 1009 524 1038 585 q 932 419 981 463 q 795 497 864 460 q 657 575 726 535 q 669 597 664 586 q 674 618 674 607 q 658 660 674 644 q 621 683 643 675 q 574 695 599 692 q 531 701 549 699 l 515 657 m 682 938 q 561 967 621 953 q 439 994 501 982 l 686 1201 l 1079 1108 l 682 938 z "},"Ř":{"ha":989,"x_min":0,"x_max":1057,"o":"m 522 481 q 581 488 550 481 q 628 522 613 496 q 772 465 700 494 q 915 406 843 435 q 852 360 886 379 q 783 322 818 340 q 851 160 817 240 q 921 0 886 81 l 524 0 l 442 269 l 417 269 l 360 0 l 0 0 l 143 717 q 310 650 228 685 q 476 583 393 615 l 456 481 l 522 481 m 515 657 l 204 831 q 229 894 218 863 q 251 957 240 925 l 731 894 q 837 872 782 888 q 936 829 892 857 q 1009 758 981 801 q 1038 651 1038 714 q 1009 524 1038 585 q 932 419 981 463 q 795 497 864 460 q 657 575 726 535 q 669 597 664 586 q 674 618 674 607 q 658 660 674 644 q 621 683 643 675 q 574 695 599 692 q 531 701 549 699 l 515 657 m 615 1225 l 672 1125 l 803 1197 q 930 1177 867 1188 q 1057 1156 993 1167 q 894 1048 975 1101 q 732 942 814 994 l 483 982 l 363 1267 l 615 1225 z "},"Ś":{"ha":940,"x_min":-31,"x_max":1308,"o":"m 231 804 q 294 861 257 839 q 372 897 331 883 q 458 915 414 910 q 544 919 503 919 q 684 908 613 919 q 825 876 756 897 q 960 826 894 856 q 1083 757 1026 796 q 997 656 1040 706 q 908 556 953 607 q 841 597 879 575 q 760 635 803 618 q 676 665 718 653 q 599 676 633 676 q 567 672 586 676 q 547 650 547 668 q 575 622 547 638 q 644 588 603 607 q 735 545 686 569 q 828 490 785 521 q 901 422 871 460 q 936 336 932 383 l 231 804 m 907 313 q 908 303 908 308 q 908 294 908 299 q 869 144 908 204 q 768 49 831 85 q 628 0 706 14 q 476 -14 551 -14 q 217 10 346 -14 q -31 92 89 35 q 40 203 6 147 q 111 315 75 258 q 194 284 149 300 q 285 256 239 268 q 378 235 332 243 q 467 226 425 226 q 505 231 486 226 q 524 258 524 235 q 492 287 524 275 q 413 313 460 299 q 310 347 365 328 q 207 394 254 365 q 128 466 160 424 q 96 569 96 508 q 104 640 96 606 q 131 707 113 675 l 907 313 m 911 938 q 790 967 850 953 q 668 994 731 982 l 915 1201 l 1308 1108 l 911 938 z "},"Ş":{"ha":940,"x_min":-31,"x_max":1083,"o":"m 231 804 q 294 861 257 839 q 372 897 331 883 q 458 915 414 910 q 544 919 503 919 q 684 908 613 919 q 825 876 756 897 q 960 826 894 856 q 1083 757 1026 796 q 997 656 1040 706 q 908 556 953 607 q 841 597 879 575 q 760 635 803 618 q 676 665 718 653 q 599 676 633 676 q 567 672 586 676 q 547 650 547 668 q 575 622 547 638 q 644 588 603 607 q 735 545 686 569 q 828 490 785 521 q 901 422 871 460 q 936 336 932 383 l 231 804 m 907 313 q 908 303 908 308 q 908 294 908 299 q 869 144 908 204 q 768 49 831 85 q 628 0 706 14 q 476 -14 551 -14 q 217 10 346 -14 q -31 92 89 35 q 40 203 6 147 q 111 315 75 258 q 194 284 149 300 q 285 256 239 268 q 378 235 332 243 q 467 226 425 226 q 505 231 486 226 q 524 258 524 235 q 492 287 524 275 q 413 313 460 299 q 310 347 365 328 q 207 394 254 365 q 128 466 160 424 q 96 569 96 508 q 104 640 96 606 q 131 707 113 675 l 907 313 m 374 -178 q 392 -176 382 -178 q 412 -172 403 -175 q 427 -161 421 -168 q 433 -143 433 -154 q 417 -119 433 -124 q 386 -115 400 -115 q 361 -119 374 -115 q 338 -128 349 -122 q 319 -115 328 -121 q 301 -103 311 -108 l 367 -14 l 444 -14 l 406 -69 q 443 -60 424 -65 q 482 -56 463 -56 q 519 -60 500 -56 q 554 -73 539 -64 q 580 -97 569 -82 q 590 -133 590 -111 q 572 -194 590 -171 q 526 -231 554 -218 q 466 -250 499 -244 q 404 -256 433 -256 l 374 -178 m 361 -268 q 258 -242 310 -260 q 163 -196 207 -224 l 217 -137 q 340 -189 275 -176 l 361 -268 z "},"Ŝ":{"ha":940,"x_min":-31,"x_max":1083,"o":"m 231 804 q 294 861 257 839 q 372 897 331 883 q 458 915 414 910 q 544 919 503 919 q 684 908 613 919 q 825 876 756 897 q 960 826 894 856 q 1083 757 1026 796 q 997 656 1040 706 q 908 556 953 607 q 841 597 879 575 q 760 635 803 618 q 676 665 718 653 q 599 676 633 676 q 567 672 586 676 q 547 650 547 668 q 575 622 547 638 q 644 588 603 607 q 735 545 686 569 q 828 490 785 521 q 901 422 871 460 q 936 336 932 383 l 231 804 m 907 313 q 908 303 908 308 q 908 294 908 299 q 869 144 908 204 q 768 49 831 85 q 628 0 706 14 q 476 -14 551 -14 q 217 10 346 -14 q -31 92 89 35 q 40 203 6 147 q 111 315 75 258 q 194 284 149 300 q 285 256 239 268 q 378 235 332 243 q 467 226 425 226 q 505 231 486 226 q 524 258 524 235 q 492 287 524 275 q 413 313 460 299 q 310 347 365 328 q 207 394 254 365 q 128 466 160 424 q 96 569 96 508 q 104 640 96 606 q 131 707 113 675 l 907 313 m 801 971 l 738 1068 l 613 992 q 485 1006 549 999 q 357 1021 421 1014 l 669 1249 l 919 1221 q 988 1081 954 1150 q 1054 940 1021 1011 l 801 971 z "},"Ť":{"ha":939,"x_min":96,"x_max":1085,"o":"m 158 775 l 228 949 l 1085 814 l 982 561 l 740 597 l 706 514 l 158 775 m 340 597 l 697 493 l 600 0 l 222 0 l 340 597 m 339 597 l 96 597 l 110 665 l 339 597 m 592 1225 l 649 1125 l 779 1197 q 906 1177 843 1188 q 1033 1156 969 1167 q 871 1048 951 1101 q 708 942 790 994 l 460 982 l 339 1267 l 592 1225 z "},"Ŭ":{"ha":1044,"x_min":57,"x_max":1189,"o":"m 126 671 q 303 610 215 640 q 479 551 390 581 q 453 435 468 494 q 438 318 438 376 q 460 265 438 279 q 518 251 482 251 q 586 277 563 251 q 622 340 610 303 q 638 419 633 378 q 651 493 643 461 l 1004 375 l 1003 369 q 940 188 979 261 q 842 70 901 115 q 701 6 783 25 q 508 -14 619 -14 q 351 -5 431 -14 q 206 35 271 4 q 99 123 140 65 q 57 278 57 181 q 65 374 57 324 q 83 475 72 424 q 106 576 93 526 q 126 671 118 626 m 1010 396 l 681 567 q 748 735 713 651 q 815 903 783 818 l 1189 849 l 1010 396 m 524 646 q 359 731 440 688 q 194 815 278 774 q 228 900 210 858 q 263 985 246 942 q 449 956 356 969 q 635 929 542 943 l 524 646 m 1115 1193 q 1060 1101 1090 1143 q 992 1029 1031 1060 q 906 981 953 999 q 800 964 858 964 q 681 976 735 964 q 586 1017 626 989 q 524 1094 546 1046 q 501 1213 501 1142 q 501 1232 501 1222 q 503 1251 501 1242 l 706 1232 q 733 1166 707 1185 q 804 1147 760 1147 q 868 1165 840 1147 q 914 1214 896 1182 l 1115 1193 z "},"Ű":{"ha":1044,"x_min":57,"x_max":1397,"o":"m 126 671 q 303 610 215 640 q 479 551 390 581 q 453 435 468 494 q 438 318 438 376 q 460 265 438 279 q 518 251 482 251 q 586 277 563 251 q 622 340 610 303 q 638 419 633 378 q 651 493 643 461 l 1004 375 l 1003 369 q 940 188 979 261 q 842 70 901 115 q 701 6 783 25 q 508 -14 619 -14 q 351 -5 431 -14 q 206 35 271 4 q 99 123 140 65 q 57 278 57 181 q 65 374 57 324 q 83 475 72 424 q 106 576 93 526 q 126 671 118 626 m 1010 396 l 681 567 q 748 735 713 651 q 815 903 783 818 l 1189 849 l 1010 396 m 524 646 q 359 731 440 688 q 194 815 278 774 q 228 900 210 858 q 263 985 246 942 q 449 956 356 969 q 635 929 542 943 l 524 646 m 1063 943 q 963 957 1013 950 q 863 971 913 964 q 972 1085 918 1029 q 1081 1200 1026 1142 l 1397 1161 l 1063 943 m 649 971 q 549 983 599 976 q 449 997 499 990 q 558 1113 504 1056 q 667 1226 611 1169 l 982 1189 l 649 971 z "},"Ū":{"ha":1044,"x_min":57,"x_max":1189,"o":"m 126 671 q 303 610 215 640 q 479 551 390 581 q 453 435 468 494 q 438 318 438 376 q 460 265 438 279 q 518 251 482 251 q 586 277 563 251 q 622 340 610 303 q 638 419 633 378 q 651 493 643 461 l 1004 375 l 1003 369 q 940 188 979 261 q 842 70 901 115 q 701 6 783 25 q 508 -14 619 -14 q 351 -5 431 -14 q 206 35 271 4 q 99 123 140 65 q 57 278 57 181 q 65 374 57 324 q 83 475 72 424 q 106 576 93 526 q 126 671 118 626 m 1010 396 l 681 567 q 748 735 713 651 q 815 903 783 818 l 1189 849 l 1010 396 m 524 646 q 359 731 440 688 q 194 815 278 774 q 228 900 210 858 q 263 985 246 942 q 449 956 356 969 q 635 929 542 943 l 524 646 m 449 1042 q 495 1135 472 1089 q 542 1229 518 1182 l 1097 1100 l 1004 914 l 449 1042 z "},"Ų":{"ha":1044,"x_min":57,"x_max":1189,"o":"m 126 671 q 303 610 215 640 q 479 551 390 581 q 453 435 468 494 q 438 318 438 376 q 460 265 438 279 q 518 251 482 251 q 586 277 563 251 q 622 340 610 303 q 638 419 633 378 q 651 493 643 461 l 1004 375 l 1003 369 q 940 188 979 261 q 842 70 901 115 q 701 6 783 25 q 508 -14 619 -14 q 351 -5 431 -14 q 206 35 271 4 q 99 123 140 65 q 57 278 57 181 q 65 374 57 324 q 83 475 72 424 q 106 576 93 526 q 126 671 118 626 m 1010 396 l 681 567 q 748 735 713 651 q 815 903 783 818 l 1189 849 l 1010 396 m 524 646 q 359 731 440 688 q 194 815 278 774 q 228 900 210 858 q 263 985 246 942 q 449 956 356 969 q 635 929 542 943 l 524 646 m 311 -224 q 280 -202 290 -218 q 269 -165 269 -186 q 283 -118 269 -140 q 317 -76 297 -96 q 360 -41 338 -57 q 403 -14 383 -25 l 526 -14 q 509 -35 519 -22 q 488 -61 499 -47 q 471 -90 478 -75 q 464 -115 464 -104 q 469 -133 464 -126 l 311 -224 m 488 -144 q 497 -147 493 -147 q 552 -137 526 -142 q 606 -121 578 -132 l 629 -185 q 515 -232 575 -215 q 392 -249 454 -249 q 346 -244 368 -249 l 488 -144 z "},"Ů":{"ha":1044,"x_min":57,"x_max":1189,"o":"m 126 671 q 303 610 215 640 q 479 551 390 581 q 453 435 468 494 q 438 318 438 376 q 460 265 438 279 q 518 251 482 251 q 586 277 563 251 q 622 340 610 303 q 638 419 633 378 q 651 493 643 461 l 1004 375 l 1003 369 q 940 188 979 261 q 842 70 901 115 q 701 6 783 25 q 508 -14 619 -14 q 351 -5 431 -14 q 206 35 271 4 q 99 123 140 65 q 57 278 57 181 q 65 374 57 324 q 83 475 72 424 q 106 576 93 526 q 126 671 118 626 m 1010 396 l 681 567 q 748 735 713 651 q 815 903 783 818 l 1189 849 l 1010 396 m 524 646 q 359 731 440 688 q 194 815 278 774 q 228 900 210 858 q 263 985 246 942 q 449 956 356 969 q 635 929 542 943 l 524 646 m 831 1143 q 747 1228 831 1228 q 714 1224 731 1228 q 686 1207 697 1219 l 671 1188 l 572 1214 q 637 1292 592 1263 q 747 1321 682 1321 q 816 1309 782 1321 q 876 1276 850 1297 q 917 1224 901 1254 q 933 1156 933 1193 q 932 1134 933 1144 q 928 1113 931 1124 l 831 1143 m 917 1075 q 845 994 892 1022 q 740 967 799 967 q 671 978 704 967 q 612 1012 638 990 q 570 1064 586 1033 q 554 1132 554 1094 q 560 1181 554 1160 q 609 1166 585 1174 q 658 1151 633 1158 q 657 1132 657 1144 q 682 1078 657 1096 q 740 1060 707 1060 q 787 1069 765 1060 q 819 1104 808 1079 l 917 1075 z "},"Ũ":{"ha":1044,"x_min":57,"x_max":1192,"o":"m 126 671 q 303 610 215 640 q 479 551 390 581 q 453 435 468 494 q 438 318 438 376 q 460 265 438 279 q 518 251 482 251 q 586 277 563 251 q 622 340 610 303 q 638 419 633 378 q 651 493 643 461 l 1004 375 l 1003 369 q 940 188 979 261 q 842 70 901 115 q 701 6 783 25 q 508 -14 619 -14 q 351 -5 431 -14 q 206 35 271 4 q 99 123 140 65 q 57 278 57 181 q 65 374 57 324 q 83 475 72 424 q 106 576 93 526 q 126 671 118 626 m 1010 396 l 681 567 q 748 735 713 651 q 815 903 783 818 l 1189 849 l 1010 396 m 524 646 q 359 731 440 688 q 194 815 278 774 q 228 900 210 858 q 263 985 246 942 q 449 956 356 969 q 635 929 542 943 l 524 646 m 1192 1149 q 1148 1074 1172 1111 q 1093 1007 1124 1036 q 1024 960 1063 978 q 939 942 986 942 q 838 961 881 942 q 762 1003 794 981 q 705 1046 729 1026 q 660 1065 681 1065 q 626 1047 639 1065 q 604 1013 613 1028 l 382 1064 q 426 1138 401 1101 q 481 1204 450 1175 q 551 1251 513 1233 q 635 1269 589 1269 q 741 1250 697 1269 q 817 1208 785 1231 q 872 1165 849 1185 q 914 1146 894 1146 q 947 1164 933 1146 q 968 1197 960 1182 l 1192 1149 z "},"Ẃ":{"ha":1367,"x_min":138,"x_max":1506,"o":"m 138 689 q 310 658 225 674 q 482 626 394 642 q 472 510 478 568 q 457 394 467 453 l 486 392 q 517 504 501 449 q 550 615 532 560 l 939 546 q 931 471 936 508 q 919 396 925 433 l 949 393 q 990 538 968 469 l 1286 485 l 1060 0 l 697 0 q 702 222 697 111 q 724 440 707 332 l 696 443 q 626 219 665 329 q 547 0 588 110 l 186 0 l 138 689 m 1294 499 q 1149 540 1221 518 q 1003 581 1076 561 q 1071 731 1035 656 q 1142 881 1107 806 q 1324 864 1233 874 q 1506 847 1414 854 l 1294 499 m 953 592 l 578 692 q 595 744 582 714 q 624 805 608 774 q 654 866 639 836 q 679 919 669 896 q 841 906 761 914 q 1004 892 921 899 q 979 742 990 817 q 953 592 968 667 m 514 758 q 508 735 510 747 q 504 713 507 724 q 336 756 419 733 q 168 803 253 779 l 179 958 q 361 943 271 950 q 543 929 451 936 l 514 758 l 514 758 m 994 938 q 874 967 933 953 q 751 994 814 982 l 999 1201 l 1392 1108 l 994 938 z "},"Ŵ":{"ha":1367,"x_min":138,"x_max":1506,"o":"m 138 689 q 310 658 225 674 q 482 626 394 642 q 472 510 478 568 q 457 394 467 453 l 486 392 q 517 504 501 449 q 550 615 532 560 l 939 546 q 931 471 936 508 q 919 396 925 433 l 949 393 q 990 538 968 469 l 1286 485 l 1060 0 l 697 0 q 702 222 697 111 q 724 440 707 332 l 696 443 q 626 219 665 329 q 547 0 588 110 l 186 0 l 138 689 m 1294 499 q 1149 540 1221 518 q 1003 581 1076 561 q 1071 731 1035 656 q 1142 881 1107 806 q 1324 864 1233 874 q 1506 847 1414 854 l 1294 499 m 953 592 l 578 692 q 595 744 582 714 q 624 805 608 774 q 654 866 639 836 q 679 919 669 896 q 841 906 761 914 q 1004 892 921 899 q 979 742 990 817 q 953 592 968 667 m 514 758 q 508 735 510 747 q 504 713 507 724 q 336 756 419 733 q 168 803 253 779 l 179 958 q 361 943 271 950 q 543 929 451 936 l 514 758 l 514 758 m 979 971 l 915 1068 l 790 992 q 663 1006 726 999 q 535 1021 599 1014 l 847 1249 l 1097 1221 q 1165 1081 1132 1150 q 1232 940 1199 1011 l 979 971 z "},"Ẅ":{"ha":1367,"x_min":138,"x_max":1506,"o":"m 138 689 q 310 658 225 674 q 482 626 394 642 q 472 510 478 568 q 457 394 467 453 l 486 392 q 517 504 501 449 q 550 615 532 560 l 939 546 q 931 471 936 508 q 919 396 925 433 l 949 393 q 990 538 968 469 l 1286 485 l 1060 0 l 697 0 q 702 222 697 111 q 724 440 707 332 l 696 443 q 626 219 665 329 q 547 0 588 110 l 186 0 l 138 689 m 1294 499 q 1149 540 1221 518 q 1003 581 1076 561 q 1071 731 1035 656 q 1142 881 1107 806 q 1324 864 1233 874 q 1506 847 1414 854 l 1294 499 m 953 592 l 578 692 q 595 744 582 714 q 624 805 608 774 q 654 866 639 836 q 679 919 669 896 q 841 906 761 914 q 1004 892 921 899 q 979 742 990 817 q 953 592 968 667 m 514 758 q 508 735 510 747 q 504 713 507 724 q 336 756 419 733 q 168 803 253 779 l 179 958 q 361 943 271 950 q 543 929 451 936 l 514 758 l 514 758 m 968 1083 q 985 1148 968 1118 q 1028 1199 1001 1178 q 1087 1231 1054 1219 q 1153 1243 1119 1243 q 1210 1235 1182 1243 q 1260 1210 1238 1226 q 1297 1170 1283 1194 q 1311 1114 1311 1146 q 1294 1044 1311 1075 q 1249 991 1276 1013 q 1185 958 1221 969 q 1114 946 1150 946 q 1060 957 1086 946 q 1013 987 1033 968 q 981 1031 993 1006 q 968 1083 968 1056 m 531 1144 q 549 1210 531 1181 q 595 1260 567 1239 q 658 1292 624 1281 q 725 1303 692 1303 q 778 1292 751 1303 q 828 1264 806 1282 q 863 1222 850 1246 q 876 1168 876 1197 q 860 1102 876 1132 q 816 1051 843 1072 q 756 1017 789 1029 q 689 1004 722 1004 q 631 1014 660 1004 q 581 1042 603 1024 q 544 1087 558 1061 q 531 1144 531 1113 z "},"Ẁ":{"ha":1367,"x_min":138,"x_max":1506,"o":"m 138 689 q 310 658 225 674 q 482 626 394 642 q 472 510 478 568 q 457 394 467 453 l 486 392 q 517 504 501 449 q 550 615 532 560 l 939 546 q 931 471 936 508 q 919 396 925 433 l 949 393 q 990 538 968 469 l 1286 485 l 1060 0 l 697 0 q 702 222 697 111 q 724 440 707 332 l 696 443 q 626 219 665 329 q 547 0 588 110 l 186 0 l 138 689 m 1294 499 q 1149 540 1221 518 q 1003 581 1076 561 q 1071 731 1035 656 q 1142 881 1107 806 q 1324 864 1233 874 q 1506 847 1414 854 l 1294 499 m 953 592 l 578 692 q 595 744 582 714 q 624 805 608 774 q 654 866 639 836 q 679 919 669 896 q 841 906 761 914 q 1004 892 921 899 q 979 742 990 817 q 953 592 968 667 m 514 758 q 508 735 510 747 q 504 713 507 724 q 336 756 419 733 q 168 803 253 779 l 179 958 q 361 943 271 950 q 543 929 451 936 l 514 758 l 514 758 m 440 1322 l 832 1236 q 885 1093 860 1165 q 939 950 911 1021 l 699 1000 l 440 1322 z "},"Ŷ":{"ha":1053,"x_min":225,"x_max":1286,"o":"m 313 679 l 265 957 q 463 924 365 942 q 660 892 560 907 q 662 838 661 864 q 663 785 663 813 q 660 685 663 736 q 646 589 657 635 l 669 585 q 774 725 717 660 q 892 854 832 790 l 1286 790 l 778 335 l 313 679 m 735 321 l 711 293 l 654 0 l 276 0 l 335 292 l 225 576 l 735 321 m 879 971 l 815 1068 l 690 992 q 563 1006 626 999 q 435 1021 499 1014 l 747 1249 l 997 1221 q 1065 1081 1032 1150 q 1132 940 1099 1011 l 879 971 z "},"Ỳ":{"ha":1053,"x_min":225,"x_max":1286,"o":"m 313 679 l 265 957 q 463 924 365 942 q 660 892 560 907 q 662 838 661 864 q 663 785 663 813 q 660 685 663 736 q 646 589 657 635 l 669 585 q 774 725 717 660 q 892 854 832 790 l 1286 790 l 778 335 l 313 679 m 735 321 l 711 293 l 654 0 l 276 0 l 335 292 l 225 576 l 735 321 m 375 1322 l 767 1236 q 820 1093 794 1165 q 874 950 846 1021 l 633 1000 l 375 1322 z "},"Ź":{"ha":981,"x_min":-29,"x_max":1215,"o":"m 663 376 q 638 360 651 367 q 613 342 624 353 q 552 295 583 318 q 488 253 521 272 l 497 240 q 553 247 525 246 q 608 249 581 249 l 926 249 l 876 0 l -29 0 l 17 232 q 206 372 111 303 q 392 514 300 440 l 663 376 m 464 589 l 522 613 q 564 627 543 621 q 607 640 585 633 l 604 654 q 508 667 557 657 q 409 690 458 676 q 310 717 360 703 q 215 744 261 732 l 338 969 l 1182 756 l 1069 543 l 683 388 l 464 589 m 818 938 q 697 967 757 953 q 575 994 638 982 l 822 1201 l 1215 1108 l 818 938 z "},"Ż":{"ha":981,"x_min":-29,"x_max":1182,"o":"m 663 376 q 638 360 651 367 q 613 342 624 353 q 552 295 583 318 q 488 253 521 272 l 497 240 q 553 247 525 246 q 608 249 581 249 l 926 249 l 876 0 l -29 0 l 17 232 q 206 372 111 303 q 392 514 300 440 l 663 376 m 464 589 l 522 613 q 564 627 543 621 q 607 640 585 633 l 604 654 q 508 667 557 657 q 409 690 458 676 q 310 717 360 703 q 215 744 261 732 l 338 969 l 1182 756 l 1069 543 l 683 388 l 464 589 m 744 1113 q 770 1161 750 1139 q 816 1199 790 1183 q 874 1224 842 1214 q 956 1228 906 1233 q 1044 1186 1004 1219 q 1083 1097 1083 1153 q 1081 1071 1083 1085 q 1072 1046 1079 1057 l 744 1113 m 1067 1028 q 1043 981 1063 1003 q 997 943 1024 960 q 940 917 969 926 q 889 907 911 907 q 780 947 825 907 q 735 1053 735 988 l 1067 1028 z "},"ā":{"ha":807,"x_min":-6,"x_max":943,"o":"m 460 271 l 454 274 q 408 295 429 286 q 364 297 388 304 q 241 351 301 324 q 119 407 181 379 q 242 440 175 436 q 374 427 308 444 q 499 381 440 410 q 499 383 499 382 q 500 385 500 383 q 509 410 506 397 q 513 438 513 424 l 513 443 q 482 485 511 469 q 412 506 453 500 q 326 513 371 513 q 247 510 281 513 l 208 507 l 218 685 q 322 689 260 688 q 453 686 385 690 q 590 671 522 682 q 713 638 658 660 q 802 583 768 617 q 836 500 836 549 q 824 417 836 467 q 794 316 811 368 q 758 215 776 264 q 728 132 740 165 l 453 256 l 460 271 m 438 218 q 583 173 511 196 q 726 126 654 150 l 700 0 l 392 0 l 406 58 q 358 33 385 46 q 301 9 331 19 q 242 -8 271 -1 q 188 -14 213 -14 q 112 -4 147 -14 q 50 26 76 6 q 9 78 24 47 q -6 154 -6 110 q 11 253 -6 206 q 68 335 28 300 q 195 293 132 314 q 324 253 258 272 q 301 226 308 242 q 294 193 294 211 q 314 154 294 164 q 358 144 333 144 q 392 148 375 144 q 425 154 408 151 l 438 218 m 294 825 q 341 919 318 872 q 388 1013 364 965 l 943 883 l 850 697 l 294 825 z "},"ą":{"ha":807,"x_min":-6,"x_max":836,"o":"m 460 271 l 454 274 q 408 295 429 286 q 364 297 388 304 q 241 351 301 324 q 119 407 181 379 q 242 440 175 436 q 374 427 308 444 q 499 381 440 410 q 499 383 499 382 q 500 385 500 383 q 509 410 506 397 q 513 438 513 424 l 513 443 q 482 485 511 469 q 412 506 453 500 q 326 513 371 513 q 247 510 281 513 l 208 507 l 218 685 q 322 689 260 688 q 453 686 385 690 q 590 671 522 682 q 713 638 658 660 q 802 583 768 617 q 836 500 836 549 q 824 417 836 467 q 794 316 811 368 q 758 215 776 264 q 728 132 740 165 l 453 256 l 460 271 m 438 218 q 583 173 511 196 q 726 126 654 150 l 700 0 l 392 0 l 406 58 q 358 33 385 46 q 301 9 331 19 q 242 -8 271 -1 q 188 -14 213 -14 q 112 -4 147 -14 q 50 26 76 6 q 9 78 24 47 q -6 154 -6 110 q 11 253 -6 206 q 68 335 28 300 q 195 293 132 314 q 324 253 258 272 q 301 226 308 242 q 294 193 294 211 q 314 154 294 164 q 358 144 333 144 q 392 148 375 144 q 425 154 408 151 l 438 218 m 485 -210 q 453 -188 464 -204 q 443 -151 443 -172 q 457 -104 443 -126 q 491 -62 471 -82 q 534 -27 511 -43 q 576 0 557 -11 l 700 0 q 683 -21 693 -8 q 662 -47 672 -33 q 644 -76 651 -61 q 638 -101 638 -90 q 643 -119 638 -112 l 485 -210 m 661 -131 q 671 -133 667 -133 q 726 -123 700 -128 q 779 -107 751 -118 l 803 -171 q 688 -218 749 -201 q 565 -235 628 -235 q 519 -231 542 -235 l 661 -131 z "},"ǽ":{"ha":1238,"x_min":-7,"x_max":1258,"o":"m -7 154 q 12 254 -7 208 q 65 333 31 300 q 147 384 99 365 q 257 403 196 403 l 264 403 l 893 257 l 750 257 q 778 202 760 221 q 822 174 797 183 q 877 164 847 165 q 939 163 907 163 q 1031 169 985 163 q 1121 189 1076 176 l 1164 24 q 1015 -7 1089 0 q 863 -14 940 -14 q 701 4 781 -14 q 550 67 621 22 q 386 8 468 29 q 214 -14 304 -14 q 131 -6 171 -14 q 60 20 90 1 q 11 72 29 39 q -7 154 -7 104 m 482 421 q 490 443 486 432 q 493 465 493 454 q 472 510 493 494 q 419 532 450 525 q 356 540 389 539 q 301 542 324 542 l 296 542 q 183 533 239 542 l 183 711 q 255 718 219 715 q 326 721 290 721 q 428 717 371 721 q 542 703 485 714 q 651 674 599 693 q 738 625 703 656 q 824 659 779 647 q 917 671 869 671 q 1038 656 979 671 q 1142 610 1096 642 q 1215 528 1188 578 q 1243 408 1243 479 q 1234 322 1243 368 q 1211 238 1225 275 q 1153 242 1185 240 q 1088 247 1121 244 q 1024 252 1056 249 q 967 263 992 256 q 851 296 913 276 q 725 338 789 315 q 599 381 661 360 q 482 421 536 403 m 365 269 q 313 247 332 269 q 293 193 293 225 q 313 154 293 164 q 357 144 332 144 q 390 148 374 144 q 424 154 407 151 l 440 246 q 406 265 429 260 q 365 269 382 269 m 981 407 l 982 426 q 958 484 982 468 q 896 500 935 500 q 828 477 854 500 q 789 417 803 454 l 965 400 l 981 407 m 861 721 q 740 751 800 736 q 618 778 681 765 l 865 985 l 1258 892 l 861 721 z "},"ć":{"ha":788,"x_min":26,"x_max":960,"o":"m 361 379 q 350 353 354 369 q 344 318 346 336 q 340 283 342 300 q 339 258 339 267 q 353 206 339 224 q 403 189 367 189 q 457 212 435 189 q 492 263 479 235 q 617 222 554 242 q 742 183 679 203 q 597 38 686 89 q 397 -14 507 -14 q 265 0 331 -14 q 145 46 199 14 q 59 131 92 78 q 26 263 26 185 q 39 374 26 319 q 79 478 51 429 l 361 379 m 128 568 q 253 644 182 619 q 400 669 325 669 q 533 654 464 669 q 658 606 601 639 q 752 519 715 572 q 789 392 789 467 q 788 359 789 375 q 783 326 786 343 l 494 351 q 503 380 500 365 q 507 410 507 394 q 490 448 507 435 q 450 461 474 461 q 407 446 425 461 q 374 413 389 431 l 128 568 m 563 721 q 442 751 501 736 q 319 778 382 765 l 567 985 l 960 892 l 563 721 z "},"č":{"ha":788,"x_min":26,"x_max":1000,"o":"m 361 379 q 350 353 354 369 q 344 318 346 336 q 340 283 342 300 q 339 258 339 267 q 353 206 339 224 q 403 189 367 189 q 457 212 435 189 q 492 263 479 235 q 617 222 554 242 q 742 183 679 203 q 597 38 686 89 q 397 -14 507 -14 q 265 0 331 -14 q 145 46 199 14 q 59 131 92 78 q 26 263 26 185 q 39 374 26 319 q 79 478 51 429 l 361 379 m 128 568 q 253 644 182 619 q 400 669 325 669 q 533 654 464 669 q 658 606 601 639 q 752 519 715 572 q 789 392 789 467 q 788 359 789 375 q 783 326 786 343 l 494 351 q 503 380 500 365 q 507 410 507 394 q 490 448 507 435 q 450 461 474 461 q 407 446 425 461 q 374 413 389 431 l 128 568 m 558 1008 l 615 908 l 746 981 q 873 960 810 971 q 1000 939 936 950 q 838 831 918 885 q 675 725 757 778 l 426 765 l 306 1050 l 558 1008 z "},"ç":{"ha":788,"x_min":26,"x_max":789,"o":"m 361 379 q 350 353 354 369 q 344 318 346 336 q 340 283 342 300 q 339 258 339 267 q 353 206 339 224 q 403 189 367 189 q 457 212 435 189 q 492 263 479 235 q 617 222 554 242 q 742 183 679 203 q 597 38 686 89 q 397 -14 507 -14 q 265 0 331 -14 q 145 46 199 14 q 59 131 92 78 q 26 263 26 185 q 39 374 26 319 q 79 478 51 429 l 361 379 m 128 568 q 253 644 182 619 q 400 669 325 669 q 533 654 464 669 q 658 606 601 639 q 752 519 715 572 q 789 392 789 467 q 788 359 789 375 q 783 326 786 343 l 494 351 q 503 380 500 365 q 507 410 507 394 q 490 448 507 435 q 450 461 474 461 q 407 446 425 461 q 374 413 389 431 l 128 568 m 310 -178 q 328 -176 318 -178 q 348 -172 339 -175 q 363 -161 357 -168 q 369 -143 369 -154 q 353 -119 369 -124 q 322 -115 336 -115 q 297 -119 310 -115 q 274 -128 285 -122 q 256 -115 264 -121 q 238 -103 247 -108 l 303 -14 l 381 -14 l 342 -69 q 379 -60 360 -65 q 418 -56 399 -56 q 456 -60 436 -56 q 490 -73 475 -64 q 516 -97 506 -82 q 526 -133 526 -111 q 508 -194 526 -171 q 463 -231 490 -218 q 402 -250 435 -244 q 340 -256 369 -256 l 310 -178 m 297 -268 q 194 -242 246 -260 q 99 -196 143 -224 l 153 -137 q 276 -189 211 -176 l 297 -268 z "},"ĉ":{"ha":788,"x_min":26,"x_max":846,"o":"m 361 379 q 350 353 354 369 q 344 318 346 336 q 340 283 342 300 q 339 258 339 267 q 353 206 339 224 q 403 189 367 189 q 457 212 435 189 q 492 263 479 235 q 617 222 554 242 q 742 183 679 203 q 597 38 686 89 q 397 -14 507 -14 q 265 0 331 -14 q 145 46 199 14 q 59 131 92 78 q 26 263 26 185 q 39 374 26 319 q 79 478 51 429 l 361 379 m 128 568 q 253 644 182 619 q 400 669 325 669 q 533 654 464 669 q 658 606 601 639 q 752 519 715 572 q 789 392 789 467 q 788 359 789 375 q 783 326 786 343 l 494 351 q 503 380 500 365 q 507 410 507 394 q 490 448 507 435 q 450 461 474 461 q 407 446 425 461 q 374 413 389 431 l 128 568 m 593 754 l 529 851 l 404 775 q 276 790 340 782 q 149 804 213 797 l 461 1032 l 711 1004 q 779 864 746 933 q 846 724 813 794 l 593 754 z "},"ċ":{"ha":788,"x_min":26,"x_max":789,"o":"m 361 379 q 350 353 354 369 q 344 318 346 336 q 340 283 342 300 q 339 258 339 267 q 353 206 339 224 q 403 189 367 189 q 457 212 435 189 q 492 263 479 235 q 617 222 554 242 q 742 183 679 203 q 597 38 686 89 q 397 -14 507 -14 q 265 0 331 -14 q 145 46 199 14 q 59 131 92 78 q 26 263 26 185 q 39 374 26 319 q 79 478 51 429 l 361 379 m 128 568 q 253 644 182 619 q 400 669 325 669 q 533 654 464 669 q 658 606 601 639 q 752 519 715 572 q 789 392 789 467 q 788 359 789 375 q 783 326 786 343 l 494 351 q 503 380 500 365 q 507 410 507 394 q 490 448 507 435 q 450 461 474 461 q 407 446 425 461 q 374 413 389 431 l 128 568 m 375 896 q 401 944 381 922 q 447 982 421 967 q 504 1007 472 997 q 586 1011 536 1017 q 674 969 635 1003 q 714 881 714 936 q 712 854 714 868 q 703 829 710 840 l 375 896 m 697 811 q 674 765 693 786 q 627 726 654 743 q 571 700 600 710 q 519 690 542 690 q 410 731 456 690 q 365 836 365 771 l 697 811 z "},"ď":{"ha":1363,"x_min":24,"x_max":1503,"o":"m 458 504 q 403 475 425 504 q 260 524 331 499 q 117 575 189 550 q 231 675 164 636 q 376 714 297 714 q 483 686 436 714 q 569 618 529 658 l 642 831 l 1014 890 q 916 608 964 749 q 819 326 868 468 q 663 381 740 353 q 507 436 586 408 l 524 483 q 458 504 492 504 m 490 385 l 814 311 q 783 156 797 233 q 753 0 768 79 l 413 0 l 426 67 q 340 10 386 35 q 240 -14 293 -14 q 145 6 186 -14 q 77 61 104 26 q 37 142 50 96 q 24 238 24 188 q 37 363 24 300 q 79 481 50 425 q 228 445 154 464 q 376 411 301 426 q 349 335 357 376 q 340 254 340 294 q 358 202 340 217 q 413 188 376 188 q 453 197 433 188 l 490 385 m 1160 440 q 1040 456 1099 447 q 919 472 981 465 l 1104 901 q 1303 876 1204 889 q 1503 850 1403 863 l 1160 440 z "},"ĕ":{"ha":803,"x_min":25,"x_max":914,"o":"m 449 526 q 383 504 410 526 l 164 614 q 294 679 224 658 q 439 700 365 700 q 567 687 503 700 q 683 643 632 674 q 767 562 735 613 q 800 435 800 511 q 794 371 800 403 q 781 307 788 339 l 538 429 q 539 441 539 436 q 539 453 539 446 q 513 511 539 496 q 449 526 486 526 m 776 292 l 769 257 l 308 257 q 337 202 318 221 q 381 174 356 183 q 435 164 406 165 q 497 163 465 163 q 590 169 543 163 q 681 189 636 176 l 722 24 q 573 -7 647 0 q 421 -14 499 -14 q 275 -1 346 -14 q 149 46 204 13 q 59 135 93 79 q 25 279 25 192 q 47 413 25 347 q 113 529 68 478 q 230 487 172 510 q 347 444 288 464 q 334 420 339 433 q 326 393 329 407 l 449 393 q 523 382 482 393 q 608 356 564 371 q 695 322 651 340 q 776 292 739 304 m 914 954 q 859 863 889 904 q 790 790 829 821 q 704 742 751 760 q 599 725 657 725 q 479 738 533 725 q 385 778 425 750 q 322 855 344 807 q 300 974 300 903 q 300 993 300 983 q 301 1013 300 1003 l 504 993 q 532 927 506 946 q 603 908 558 908 q 667 926 639 908 q 713 975 694 943 l 914 954 z "},"ě":{"ha":803,"x_min":25,"x_max":1014,"o":"m 449 526 q 383 504 410 526 l 164 614 q 294 679 224 658 q 439 700 365 700 q 567 687 503 700 q 683 643 632 674 q 767 562 735 613 q 800 435 800 511 q 794 371 800 403 q 781 307 788 339 l 538 429 q 539 441 539 436 q 539 453 539 446 q 513 511 539 496 q 449 526 486 526 m 776 292 l 769 257 l 308 257 q 337 202 318 221 q 381 174 356 183 q 435 164 406 165 q 497 163 465 163 q 590 169 543 163 q 681 189 636 176 l 722 24 q 573 -7 647 0 q 421 -14 499 -14 q 275 -1 346 -14 q 149 46 204 13 q 59 135 93 79 q 25 279 25 192 q 47 413 25 347 q 113 529 68 478 q 230 487 172 510 q 347 444 288 464 q 334 420 339 433 q 326 393 329 407 l 449 393 q 523 382 482 393 q 608 356 564 371 q 695 322 651 340 q 776 292 739 304 m 572 1008 l 629 908 l 760 981 q 887 960 824 971 q 1014 939 950 950 q 851 831 932 885 q 689 725 771 778 l 440 765 l 319 1050 l 572 1008 z "},"ė":{"ha":803,"x_min":25,"x_max":800,"o":"m 449 526 q 383 504 410 526 l 164 614 q 294 679 224 658 q 439 700 365 700 q 567 687 503 700 q 683 643 632 674 q 767 562 735 613 q 800 435 800 511 q 794 371 800 403 q 781 307 788 339 l 538 429 q 539 441 539 436 q 539 453 539 446 q 513 511 539 496 q 449 526 486 526 m 776 292 l 769 257 l 308 257 q 337 202 318 221 q 381 174 356 183 q 435 164 406 165 q 497 163 465 163 q 590 169 543 163 q 681 189 636 176 l 722 24 q 573 -7 647 0 q 421 -14 499 -14 q 275 -1 346 -14 q 149 46 204 13 q 59 135 93 79 q 25 279 25 192 q 47 413 25 347 q 113 529 68 478 q 230 487 172 510 q 347 444 288 464 q 334 420 339 433 q 326 393 329 407 l 449 393 q 523 382 482 393 q 608 356 564 371 q 695 322 651 340 q 776 292 739 304 m 453 924 q 478 972 458 950 q 524 1010 499 994 q 582 1035 550 1025 q 664 1039 614 1044 q 752 997 713 1031 q 792 908 792 964 q 790 882 792 896 q 781 857 788 868 l 453 924 m 775 839 q 751 792 771 814 q 705 754 732 771 q 649 728 678 738 q 597 718 619 718 q 488 758 533 718 q 443 864 443 799 l 775 839 z "},"ē":{"ha":803,"x_min":25,"x_max":943,"o":"m 449 526 q 383 504 410 526 l 164 614 q 294 679 224 658 q 439 700 365 700 q 567 687 503 700 q 683 643 632 674 q 767 562 735 613 q 800 435 800 511 q 794 371 800 403 q 781 307 788 339 l 538 429 q 539 441 539 436 q 539 453 539 446 q 513 511 539 496 q 449 526 486 526 m 776 292 l 769 257 l 308 257 q 337 202 318 221 q 381 174 356 183 q 435 164 406 165 q 497 163 465 163 q 590 169 543 163 q 681 189 636 176 l 722 24 q 573 -7 647 0 q 421 -14 499 -14 q 275 -1 346 -14 q 149 46 204 13 q 59 135 93 79 q 25 279 25 192 q 47 413 25 347 q 113 529 68 478 q 230 487 172 510 q 347 444 288 464 q 334 420 339 433 q 326 393 329 407 l 449 393 q 523 382 482 393 q 608 356 564 371 q 695 322 651 340 q 776 292 739 304 m 294 825 q 341 919 318 872 q 388 1013 364 965 l 943 883 l 850 697 l 294 825 z "},"ę":{"ha":803,"x_min":25,"x_max":800,"o":"m 449 526 q 383 504 410 526 l 164 614 q 294 679 224 658 q 439 700 365 700 q 567 687 503 700 q 683 643 632 674 q 767 562 735 613 q 800 435 800 511 q 794 371 800 403 q 781 307 788 339 l 538 429 q 539 441 539 436 q 539 453 539 446 q 513 511 539 496 q 449 526 486 526 m 776 292 l 769 257 l 308 257 q 337 202 318 221 q 381 174 356 183 q 435 164 406 165 q 497 163 465 163 q 590 169 543 163 q 681 189 636 176 l 722 24 q 573 -7 647 0 q 421 -14 499 -14 q 275 -1 346 -14 q 149 46 204 13 q 59 135 93 79 q 25 279 25 192 q 47 413 25 347 q 113 529 68 478 q 230 487 172 510 q 347 444 288 464 q 334 420 339 433 q 326 393 329 407 l 449 393 q 523 382 482 393 q 608 356 564 371 q 695 322 651 340 q 776 292 739 304 m 289 -219 q 258 -198 268 -214 q 247 -161 247 -182 q 261 -114 247 -136 q 295 -72 275 -92 q 338 -37 315 -53 q 381 -10 361 -21 l 504 -10 q 487 -31 497 -18 q 466 -57 476 -43 q 449 -85 456 -71 q 442 -111 442 -100 q 447 -129 442 -122 l 289 -219 m 465 -140 q 475 -143 471 -143 q 530 -133 504 -137 q 583 -117 556 -128 l 607 -181 q 492 -228 553 -211 q 369 -244 432 -244 q 324 -240 346 -244 l 465 -140 z "},"ğ":{"ha":863,"x_min":24,"x_max":974,"o":"m 488 372 q 649 334 569 354 q 811 296 729 314 l 779 132 q 706 -53 757 18 q 581 -165 654 -125 q 415 -222 507 -206 q 218 -243 322 -239 l 133 -92 l 146 -92 q 238 -85 188 -90 q 330 -65 288 -81 q 401 -17 372 -49 q 429 68 429 14 q 341 11 389 36 q 240 -14 293 -14 q 145 7 186 -14 q 77 62 104 28 q 37 142 50 96 q 24 238 24 188 q 35 356 24 297 q 74 468 46 415 q 222 433 149 451 q 369 399 294 415 q 347 328 353 365 q 340 254 340 290 q 358 202 340 217 q 413 188 376 188 q 433 189 424 188 q 453 197 443 190 l 488 372 m 531 482 q 468 499 501 499 q 431 487 447 499 q 403 458 414 475 l 115 557 q 229 665 161 622 q 379 708 297 708 q 487 683 440 708 q 575 617 533 658 l 594 675 l 932 642 l 824 314 l 513 421 l 531 482 m 974 935 q 919 843 949 885 q 850 771 889 801 q 764 723 811 740 q 658 706 717 706 q 539 718 593 706 q 444 759 485 731 q 382 835 404 788 q 360 954 360 883 q 360 974 360 964 q 361 993 360 983 l 564 974 q 592 908 565 926 q 663 889 618 889 q 726 906 699 889 q 772 956 754 924 l 974 935 z "},"ĝ":{"ha":863,"x_min":24,"x_max":942,"o":"m 488 372 q 649 334 569 354 q 811 296 729 314 l 779 132 q 706 -53 757 18 q 581 -165 654 -125 q 415 -222 507 -206 q 218 -243 322 -239 l 133 -92 l 146 -92 q 238 -85 188 -90 q 330 -65 288 -81 q 401 -17 372 -49 q 429 68 429 14 q 341 11 389 36 q 240 -14 293 -14 q 145 7 186 -14 q 77 62 104 28 q 37 142 50 96 q 24 238 24 188 q 35 356 24 297 q 74 468 46 415 q 222 433 149 451 q 369 399 294 415 q 347 328 353 365 q 340 254 340 290 q 358 202 340 217 q 413 188 376 188 q 433 189 424 188 q 453 197 443 190 l 488 372 m 531 482 q 468 499 501 499 q 431 487 447 499 q 403 458 414 475 l 115 557 q 229 665 161 622 q 379 708 297 708 q 487 683 440 708 q 575 617 533 658 l 594 675 l 932 642 l 824 314 l 513 421 l 531 482 m 689 754 l 625 851 l 500 775 q 372 790 436 782 q 244 804 308 797 l 557 1032 l 807 1004 q 875 864 842 933 q 942 724 908 794 l 689 754 z "},"ġ":{"ha":863,"x_min":24,"x_max":932,"o":"m 488 372 q 649 334 569 354 q 811 296 729 314 l 779 132 q 706 -53 757 18 q 581 -165 654 -125 q 415 -222 507 -206 q 218 -243 322 -239 l 133 -92 l 146 -92 q 238 -85 188 -90 q 330 -65 288 -81 q 401 -17 372 -49 q 429 68 429 14 q 341 11 389 36 q 240 -14 293 -14 q 145 7 186 -14 q 77 62 104 28 q 37 142 50 96 q 24 238 24 188 q 35 356 24 297 q 74 468 46 415 q 222 433 149 451 q 369 399 294 415 q 347 328 353 365 q 340 254 340 290 q 358 202 340 217 q 413 188 376 188 q 433 189 424 188 q 453 197 443 190 l 488 372 m 531 482 q 468 499 501 499 q 431 487 447 499 q 403 458 414 475 l 115 557 q 229 665 161 622 q 379 708 297 708 q 487 683 440 708 q 575 617 533 658 l 594 675 l 932 642 l 824 314 l 513 421 l 531 482 m 463 928 q 488 976 468 954 q 534 1014 508 999 q 592 1039 560 1029 q 674 1043 624 1049 q 762 1001 722 1035 q 801 913 801 968 q 799 886 801 900 q 790 861 797 872 l 463 928 m 785 843 q 761 797 781 818 q 715 758 742 775 q 658 732 688 742 q 607 722 629 722 q 498 763 543 722 q 453 868 453 803 l 785 843 z "},"ĥ":{"ha":901,"x_min":-11,"x_max":1019,"o":"m 160 685 l 222 864 l 594 929 l 488 619 q 563 651 524 636 q 642 671 601 667 q 722 669 678 675 q 806 648 767 664 q 874 603 846 632 q 906 529 901 574 q 897 430 911 482 q 865 332 882 378 l 856 307 l 160 685 m 854 299 l 796 0 l 456 0 q 467 52 460 21 q 482 119 474 83 q 499 194 490 156 q 514 269 507 233 q 525 333 521 304 q 529 381 529 363 q 513 416 529 407 q 472 425 496 425 q 422 410 436 425 q 400 361 407 396 l 328 0 l -11 0 q 49 303 18 153 q 108 606 79 454 l 854 299 m 767 990 l 703 1088 l 578 1011 q 450 1026 514 1018 q 322 1040 386 1033 l 635 1268 l 885 1240 q 953 1100 919 1169 q 1019 960 986 1031 l 767 990 z "},"ĭ":{"ha":447,"x_min":-8,"x_max":775,"o":"m 133 607 l 179 703 l 513 635 q 469 540 492 586 q 424 447 446 494 l 133 607 m 417 429 l 332 0 l -8 0 q 45 265 18 133 q 99 531 72 397 l 417 429 m 775 935 q 720 843 750 885 q 651 771 690 801 q 565 723 613 740 q 460 706 518 706 q 340 718 394 706 q 246 759 286 731 q 183 835 206 788 q 161 954 161 883 q 161 974 161 964 q 163 993 161 983 l 365 974 q 393 908 367 926 q 464 889 419 889 q 528 906 500 889 q 574 956 556 924 l 775 935 z "},"ī":{"ha":447,"x_min":-8,"x_max":739,"o":"m 133 607 l 179 703 l 513 635 q 469 540 492 586 q 424 447 446 494 l 133 607 m 417 429 l 332 0 l -8 0 q 45 265 18 133 q 99 531 72 397 l 417 429 m 90 825 q 137 919 114 872 q 183 1013 160 965 l 739 883 l 646 697 l 90 825 z "},"į":{"ha":447,"x_min":-8,"x_max":592,"o":"m 213 839 q 226 890 213 868 q 262 925 240 911 q 310 946 283 939 q 361 953 336 953 q 427 945 388 953 q 503 921 467 938 q 565 879 539 904 q 592 819 592 854 q 578 771 592 792 q 542 736 564 750 q 494 716 519 722 q 444 710 468 710 q 378 717 418 710 q 302 739 339 724 q 239 778 265 754 q 213 839 213 803 m 133 607 l 178 703 l 513 635 q 469 540 492 586 q 424 447 446 494 l 133 607 m 417 429 l 331 0 l -8 0 q 44 265 17 135 q 97 531 72 396 l 417 429 m 115 -210 q 84 -188 94 -204 q 74 -151 74 -172 q 88 -104 74 -126 q 122 -62 101 -82 q 165 -27 142 -43 q 207 0 188 -11 l 331 0 q 313 -21 324 -8 q 292 -47 303 -33 q 275 -76 282 -61 q 268 -101 268 -90 q 274 -119 268 -112 l 115 -210 m 292 -131 q 301 -133 297 -133 q 356 -123 331 -128 q 410 -107 382 -118 l 433 -171 q 319 -218 379 -201 q 196 -235 258 -235 q 150 -231 172 -235 l 292 -131 z "},"ĩ":{"ha":447,"x_min":-8,"x_max":814,"o":"m 133 607 l 179 703 l 513 635 q 469 540 492 586 q 424 447 446 494 l 133 607 m 417 429 l 332 0 l -8 0 q 45 265 18 133 q 99 531 72 397 l 417 429 m 814 932 q 770 857 794 894 q 715 790 746 819 q 647 743 685 761 q 561 725 608 725 q 460 744 503 725 q 384 787 417 764 q 327 829 351 810 q 282 849 303 849 q 248 830 261 849 q 226 796 235 811 l 4 847 q 48 922 24 885 q 103 988 72 958 q 173 1035 135 1017 q 257 1053 211 1053 q 363 1033 319 1053 q 439 991 407 1014 q 494 949 471 968 q 536 929 517 929 q 569 947 556 929 q 590 981 582 965 l 814 932 z "},"ĵ":{"ha":447,"x_min":-172,"x_max":739,"o":"m 135 586 l 188 701 q 521 635 354 665 q 469 521 496 576 q 417 407 442 465 l 135 586 m 408 388 q 374 201 388 286 q 341 46 360 115 q 292 -76 322 -24 q 211 -162 263 -128 q 81 -216 160 -197 q -114 -235 3 -235 l -172 -47 q -110 -37 -139 -43 q -58 -21 -81 -32 q -18 13 -35 -10 q 6 72 -1 35 l 92 510 l 408 388 m 486 747 l 422 844 l 297 768 q 169 783 233 775 q 42 797 106 790 l 354 1025 l 604 997 q 672 857 639 926 q 739 717 706 788 l 486 747 z "},"ń":{"ha":901,"x_min":-11,"x_max":1071,"o":"m 433 394 l 139 561 l 208 739 q 376 715 293 728 q 544 692 460 703 l 522 638 q 610 668 564 654 q 701 682 656 682 q 784 674 742 682 q 862 648 826 667 q 920 597 897 629 q 943 517 943 565 q 930 440 943 486 q 899 344 917 393 q 863 247 882 294 q 832 169 844 200 q 687 252 758 210 q 540 335 615 294 q 546 349 542 339 q 554 369 550 358 q 562 390 558 381 q 565 403 565 400 l 564 399 q 571 432 571 417 q 564 452 571 444 q 547 465 557 460 q 524 471 536 469 q 503 472 513 472 q 474 465 486 472 q 455 447 463 458 q 442 422 447 436 q 433 394 438 408 m 76 444 q 234 383 156 414 q 392 319 313 351 l 328 0 l -11 0 l 76 444 m 511 276 l 825 151 l 796 0 l 456 0 l 511 276 m 674 721 q 553 751 613 736 q 431 778 493 765 l 678 985 l 1071 892 l 674 721 z "},"ň":{"ha":901,"x_min":-11,"x_max":961,"o":"m 433 394 l 139 561 l 208 739 q 376 715 293 728 q 544 692 460 703 l 522 638 q 610 668 564 654 q 701 682 656 682 q 784 674 742 682 q 862 648 826 667 q 920 597 897 629 q 943 517 943 565 q 930 440 943 486 q 899 344 917 393 q 863 247 882 294 q 832 169 844 200 q 687 252 758 210 q 540 335 615 294 q 546 349 542 339 q 554 369 550 358 q 562 390 558 381 q 565 403 565 400 l 564 399 q 571 432 571 417 q 564 452 571 444 q 547 465 557 460 q 524 471 536 469 q 503 472 513 472 q 474 465 486 472 q 455 447 463 458 q 442 422 447 436 q 433 394 438 408 m 76 444 q 234 383 156 414 q 392 319 313 351 l 328 0 l -11 0 l 76 444 m 511 276 l 825 151 l 796 0 l 456 0 l 511 276 m 519 1008 l 576 908 l 707 981 q 834 960 771 971 q 961 939 897 950 q 799 831 879 885 q 636 725 718 778 l 388 765 l 267 1050 l 519 1008 z "},"ŏ":{"ha":842,"x_min":25,"x_max":883,"o":"m 494 511 l 489 511 l 485 511 q 483 513 483 511 q 450 503 465 513 q 423 481 435 494 q 402 450 411 467 q 386 419 393 433 l 114 549 q 256 674 169 635 q 442 713 342 713 q 578 698 504 713 q 714 651 651 683 q 818 565 776 618 q 860 435 860 511 q 842 325 860 379 q 799 222 825 271 q 660 288 729 256 q 522 353 592 319 q 524 357 524 356 q 525 361 524 358 q 542 407 533 382 q 550 454 550 432 q 535 496 550 483 q 494 511 521 508 m 408 183 q 444 194 429 183 q 471 222 460 206 q 489 258 482 239 q 500 294 496 278 l 789 207 q 722 108 763 150 q 631 40 682 67 q 522 -1 581 13 q 404 -14 464 -14 q 270 -1 338 -14 q 148 44 203 13 q 59 128 93 75 q 25 260 25 181 q 33 347 25 304 q 57 431 40 390 q 203 385 131 407 q 350 340 275 363 q 343 296 346 318 q 340 251 340 274 q 356 199 340 214 q 408 183 372 183 m 883 978 q 828 886 858 928 q 760 814 799 844 q 674 766 721 783 q 568 749 626 749 q 449 761 503 749 q 354 802 394 774 q 292 878 314 831 q 269 997 269 926 q 269 1017 269 1007 q 271 1036 269 1026 l 474 1017 q 501 951 475 969 q 572 932 528 932 q 636 949 608 932 q 682 999 664 967 l 883 978 z "},"ő":{"ha":842,"x_min":25,"x_max":1076,"o":"m 494 511 l 489 511 l 485 511 q 483 513 483 511 q 450 503 465 513 q 423 481 435 494 q 402 450 411 467 q 386 419 393 433 l 114 549 q 256 674 169 635 q 442 713 342 713 q 578 698 504 713 q 714 651 651 683 q 818 565 776 618 q 860 435 860 511 q 842 325 860 379 q 799 222 825 271 q 660 288 729 256 q 522 353 592 319 q 524 357 524 356 q 525 361 524 358 q 542 407 533 382 q 550 454 550 432 q 535 496 550 483 q 494 511 521 508 m 408 183 q 444 194 429 183 q 471 222 460 206 q 489 258 482 239 q 500 294 496 278 l 789 207 q 722 108 763 150 q 631 40 682 67 q 522 -1 581 13 q 404 -14 464 -14 q 270 -1 338 -14 q 148 44 203 13 q 59 128 93 75 q 25 260 25 181 q 33 347 25 304 q 57 431 40 390 q 203 385 131 407 q 350 340 275 363 q 343 296 346 318 q 340 251 340 274 q 356 199 340 214 q 408 183 372 183 m 742 726 q 642 740 692 733 q 542 754 592 747 q 651 869 597 813 q 760 983 706 925 l 1076 944 l 742 726 m 328 754 q 228 767 278 760 q 128 781 178 774 q 237 896 183 839 q 346 1010 290 953 l 661 972 l 328 754 z "},"ō":{"ha":842,"x_min":25,"x_max":947,"o":"m 494 511 l 489 511 l 485 511 q 483 513 483 511 q 450 503 465 513 q 423 481 435 494 q 402 450 411 467 q 386 419 393 433 l 114 549 q 256 674 169 635 q 442 713 342 713 q 578 698 504 713 q 714 651 651 683 q 818 565 776 618 q 860 435 860 511 q 842 325 860 379 q 799 222 825 271 q 660 288 729 256 q 522 353 592 319 q 524 357 524 356 q 525 361 524 358 q 542 407 533 382 q 550 454 550 432 q 535 496 550 483 q 494 511 521 508 m 408 183 q 444 194 429 183 q 471 222 460 206 q 489 258 482 239 q 500 294 496 278 l 789 207 q 722 108 763 150 q 631 40 682 67 q 522 -1 581 13 q 404 -14 464 -14 q 270 -1 338 -14 q 148 44 203 13 q 59 128 93 75 q 25 260 25 181 q 33 347 25 304 q 57 431 40 390 q 203 385 131 407 q 350 340 275 363 q 343 296 346 318 q 340 251 340 274 q 356 199 340 214 q 408 183 372 183 m 299 825 q 345 919 322 872 q 392 1013 368 965 l 947 883 l 854 697 l 299 825 z "},"ǿ":{"ha":867,"x_min":-65,"x_max":989,"o":"m 592 721 q 471 751 531 736 q 349 778 411 765 l 596 985 l 989 892 l 592 721 m 407 183 q 448 197 431 183 q 476 231 465 211 q 494 274 488 251 q 504 317 501 297 l 806 251 q 744 133 785 183 q 651 51 704 83 q 534 2 597 18 q 403 -14 471 -14 q 267 -1 333 -14 q 238 -33 251 -17 q 210 -64 225 -49 l -65 -64 l 81 96 q 39 174 53 132 q 25 260 25 215 q 31 340 25 300 q 51 417 36 379 q 201 384 126 401 q 353 351 276 367 q 344 302 347 328 q 340 251 340 276 q 356 199 340 215 q 407 183 371 183 m 468 506 q 438 497 451 506 q 412 476 424 489 q 391 447 400 463 q 376 419 382 432 l 89 517 q 236 659 144 613 q 438 706 328 706 q 539 696 490 706 q 638 672 588 686 q 669 699 654 685 q 701 726 685 713 l 976 697 l 810 557 q 844 432 844 500 q 836 349 844 396 q 813 268 828 303 q 666 318 738 292 q 519 369 594 344 q 530 410 525 386 q 535 450 535 433 q 515 493 535 481 q 468 506 496 506 z "},"ŕ":{"ha":650,"x_min":-10,"x_max":906,"o":"m 422 376 q 401 347 408 363 q 392 313 394 331 l 331 0 l -10 0 l 83 478 l 422 376 m 131 571 q 168 642 147 607 q 206 713 189 676 q 370 674 289 693 q 535 635 451 654 l 507 578 q 576 602 539 590 q 649 614 614 614 q 722 603 685 614 q 792 578 758 592 l 606 349 q 549 385 582 371 q 485 400 517 400 q 442 392 463 400 l 131 571 m 508 721 q 388 751 447 736 q 265 778 328 765 l 513 985 l 906 892 l 508 721 z "},"ř":{"ha":650,"x_min":-10,"x_max":879,"o":"m 422 376 q 401 347 408 363 q 392 313 394 331 l 331 0 l -10 0 l 83 478 l 422 376 m 131 571 q 168 642 147 607 q 206 713 189 676 q 370 674 289 693 q 535 635 451 654 l 507 578 q 576 602 539 590 q 649 614 614 614 q 722 603 685 614 q 792 578 758 592 l 606 349 q 549 385 582 371 q 485 400 517 400 q 442 392 463 400 l 131 571 m 438 1008 l 494 908 l 625 981 q 752 960 689 971 q 879 939 815 950 q 717 831 797 885 q 554 725 636 778 l 306 765 l 185 1050 l 438 1008 z "},"ś":{"ha":719,"x_min":-35,"x_max":1021,"o":"m 61 433 q 78 513 61 475 l 674 199 q 638 92 669 133 q 558 28 606 51 q 453 -5 510 4 q 342 -14 396 -14 q -35 46 146 -14 l 64 222 q 125 203 92 213 q 193 185 158 193 q 262 172 228 176 q 325 167 296 167 q 353 172 339 167 q 367 194 367 178 q 344 216 367 207 q 288 235 321 225 q 214 258 254 244 q 140 294 174 272 q 84 350 107 317 q 61 433 61 383 m 442 465 q 521 428 479 449 q 598 382 563 408 q 656 324 633 356 q 679 250 679 292 q 678 235 679 243 q 676 219 678 226 q 414 416 544 318 q 151 611 283 514 q 261 683 196 664 q 392 703 326 703 q 496 694 440 703 q 607 672 551 686 q 715 637 663 657 q 810 592 768 617 l 668 431 q 622 457 651 442 q 561 485 593 472 q 499 508 529 499 q 449 518 468 518 q 426 513 439 518 q 414 496 414 508 q 422 475 414 482 q 442 465 431 468 m 624 721 q 503 751 563 736 q 381 778 443 765 l 628 985 l 1021 892 l 624 721 z "},"ş":{"ha":719,"x_min":-35,"x_max":810,"o":"m 61 433 q 78 513 61 475 l 674 199 q 638 92 669 133 q 558 28 606 51 q 453 -5 510 4 q 342 -14 396 -14 q -35 46 146 -14 l 64 222 q 125 203 92 213 q 193 185 158 193 q 262 172 228 176 q 325 167 296 167 q 353 172 339 167 q 367 194 367 178 q 344 216 367 207 q 288 235 321 225 q 214 258 254 244 q 140 294 174 272 q 84 350 107 317 q 61 433 61 383 m 442 465 q 521 428 479 449 q 598 382 563 408 q 656 324 633 356 q 679 250 679 292 q 678 235 679 243 q 676 219 678 226 q 414 416 544 318 q 151 611 283 514 q 261 683 196 664 q 392 703 326 703 q 496 694 440 703 q 607 672 551 686 q 715 637 663 657 q 810 592 768 617 l 668 431 q 622 457 651 442 q 561 485 593 472 q 499 508 529 499 q 449 518 468 518 q 426 513 439 518 q 414 496 414 508 q 422 475 414 482 q 442 465 431 468 m 213 -178 q 231 -176 221 -178 q 251 -172 242 -175 q 266 -161 260 -168 q 272 -143 272 -154 q 256 -119 272 -124 q 225 -115 239 -115 q 200 -119 213 -115 q 176 -128 188 -122 q 158 -115 167 -121 q 140 -103 150 -108 l 206 -14 l 283 -14 l 244 -69 q 282 -60 263 -65 q 321 -56 301 -56 q 358 -60 339 -56 q 393 -73 378 -64 q 419 -97 408 -82 q 429 -133 429 -111 q 411 -194 429 -171 q 365 -231 393 -218 q 305 -250 338 -244 q 243 -256 272 -256 l 213 -178 m 200 -268 q 97 -242 149 -260 q 1 -196 46 -224 l 56 -137 q 179 -189 114 -176 l 200 -268 z "},"ŝ":{"ha":719,"x_min":-35,"x_max":868,"o":"m 61 433 q 78 513 61 475 l 674 199 q 638 92 669 133 q 558 28 606 51 q 453 -5 510 4 q 342 -14 396 -14 q -35 46 146 -14 l 64 222 q 125 203 92 213 q 193 185 158 193 q 262 172 228 176 q 325 167 296 167 q 353 172 339 167 q 367 194 367 178 q 344 216 367 207 q 288 235 321 225 q 214 258 254 244 q 140 294 174 272 q 84 350 107 317 q 61 433 61 383 m 442 465 q 521 428 479 449 q 598 382 563 408 q 656 324 633 356 q 679 250 679 292 q 678 235 679 243 q 676 219 678 226 q 414 416 544 318 q 151 611 283 514 q 261 683 196 664 q 392 703 326 703 q 496 694 440 703 q 607 672 551 686 q 715 637 663 657 q 810 592 768 617 l 668 431 q 622 457 651 442 q 561 485 593 472 q 499 508 529 499 q 449 518 468 518 q 426 513 439 518 q 414 496 414 508 q 422 475 414 482 q 442 465 431 468 m 615 754 l 551 851 l 426 775 q 299 790 363 782 q 171 804 235 797 l 483 1032 l 733 1004 q 801 864 768 933 q 868 724 835 794 l 615 754 z "},"ť":{"ha":1110,"x_min":46,"x_max":1250,"o":"m 438 426 q 417 333 429 382 q 406 238 406 283 q 413 214 406 222 q 430 200 419 206 q 453 193 440 194 q 478 192 467 192 q 521 193 500 192 q 563 201 542 194 l 489 1 q 415 -11 453 -8 q 342 -14 378 -14 q 251 -10 300 -14 q 161 11 203 -6 q 92 60 119 28 q 65 149 65 93 q 85 302 65 225 q 119 454 104 379 l 46 454 q 58 511 51 483 q 69 568 64 539 l 438 426 m 119 657 q 134 686 126 672 q 149 715 142 700 l 219 701 q 256 776 238 739 q 292 851 275 813 l 665 878 l 546 635 q 622 619 585 628 q 697 603 660 610 q 655 513 678 557 q 611 424 632 468 l 453 456 l 447 443 l 119 657 m 907 440 q 787 456 846 447 q 667 472 728 465 l 851 901 q 1051 876 951 889 q 1250 850 1150 863 l 907 440 z "}}}
